<?xml version="1.0" encoding="UTF-8"?><svg id="a" xmlns="http://www.w3.org/2000/svg" xmlns:xlink="http://www.w3.org/1999/xlink" viewBox="0 0 346 297"><defs><style>.a`,.aa{fill:#e9531e;}.ab{fill:#e7e56d;}.ac,.ad{fill:#e7e66c;}.ae{fill:#e7b88a;}.af{fill:#fff;}.ag{fill:#aa98c9;}.ah{fill:#aa97c8;}.ai{fill:#a997c8;}.aj{fill:#ddd;}.ak{fill:#c74117;}.al{fill:#d5ddf2;}.am{fill:#3573b9;}.an{fill:#5b4f9c;}.ao,.ap,.aq{fill:#282d3f;}.ar,.as{fill:#81c8be;}.at{fill:#282e40;}.ad,.aa,.as,.aq{stroke:#000;stroke-miterlimit:10;stroke-width:.5px;}.ap{stroke:#fff;stroke-linecap:round;stroke-linejoin:round;stroke-width:.25px;}.au{clip-path:url(#e);}.av{clip-path:url(#d);}.aw{fill:#667abb;opacity:.3;}</style><clipPath id="d"><path d="M251.59287,161.26147h0c.99754-2.59069-.29397-5.49955-2.88461-6.49708l-20.7399-7.98604c-2.59073-.99759-5.49952,.29392-6.49708,2.88461h0c-.58268,1.51324-.38329,3.13447,.3987,4.42049-1.44256,.42943-2.67776,1.49825-3.26045,3.01149-.99756,2.59068,.29385,5.49951,2.8846,6.4971l20.7399,7.98602c2.59061,.99755,5.49951-.2939,6.49708-2.88458,.58268-1.51324,.38329-3.13447-.39873-4.4205,1.44256-.42945,2.67777-1.49827,3.26047-3.01151Z" style="fill:#d5ddf2;"/></clipPath><clipPath id="e"><path d="M283.46802,61.18384s-33.25003-21.41318-52.15368,10.38216c-19.92211,33.50835,1.17187,51.33975-3.00889,75.34216l20.56017,7.91683s6.58175-11.0456,22.74338-21.62176c19.70033-12.89188,38.89787-50.96509,11.85902-72.01939Z" style="fill:#e7e56d;"/></clipPath></defs><g id="b"><polygon points="93.88065 161.89422 172.63283 116.85648 129.73582 123.18394 128.0984 123.42615 64.80173 159.61998 49.34619 168.45838 93.88065 161.89422" style="fill:#5b4f9c;"/><polygon points="93.88065 161.89422 49.34619 168.45838 49.34619 170.59932 76.88831 166.53212 93.88065 164.05087 93.88065 161.89422" style="fill:#ddd;"/><polygon points="174.85918 117.18727 172.66334 116.86368 251.37593 161.87514 251.38335 161.87514 251.38971 161.88363 251.41386 161.89741 295.94957 168.47746 217.20119 123.43548 212.19521 122.69654 204.07031 121.49861 174.85918 117.18727" style="fill:#5b4f9c;"/><polygon points="251.3664 161.88363 251.37593 161.87514 172.66334 116.86368 172.66334 116.87216 251.3664 161.88363" style="fill:#e7b88a;"/><polygon points="251.41386 161.89741 251.38971 161.88363 251.41386 161.90693 251.41386 161.89741" style="fill:#e7b88a;"/><polygon points="172.34633 119.29769 97.87327 161.89422 147.20008 190.10724 172.34633 175.72482 172.34633 119.29769" style="fill:#aa98c9;"/><polygon points="172.34633 175.72482 147.20008 190.10724 172.34633 204.48014 197.49428 190.10724 172.34633 175.72482" style="fill:#ddd;"/><polygon points="172.34633 175.72482 197.49428 190.10724 246.81921 161.89422 172.34633 119.29769 172.34633 175.72482" style="fill:#5b4f9c;"/><path d="M251.3664,161.88363l-78.70306-45.01146-.03051-.01569-78.75218,45.03774,78.75218,45.02927v-.01061l78.73357-45.02925Zm-79.02007,42.59652l-25.14625-14.3729-49.32682-28.21303,74.47306-42.59652,74.47288,42.59652-49.32493,28.21303-25.14795,14.3729Z" style="fill:#ddd;"/><g id="c"><g><g><path d="M147.26821,129.77676c-.88627,.23405-1.8191,.46713-2.49348,1.08774-.72958,.67138-1.02926,1.67894-1.27318,2.63968-4.64394,18.3034,.06319,38.04143,9.35113,54.48243,.34428,.60947,.71271,1.23578,1.28714,1.63573,.62252,.43357,1.40863,.54696,2.16503,.60645,1.98041,.15586,3.98298,.02547,5.92613-.38612-4.4754-6.67384-6.08676-15.0662-5.09204-23.03962,.63039-5.05362,2.33061-10.09145,5.62779-13.97265,3.2974-3.88109,8.34454-6.45687,13.41824-6.01528-1.54449-4.68178-3.21332-9.32263-5.00436-13.91574-.83147-2.13258-1.68912-4.25483-2.57315-6.36632-.68052-1.62526-1.54538-5.5502-2.9168-6.63436-2.18633-1.72853-5.77009,3.85912-7.81054,5.25249-3.19971,2.18495-6.88009,3.64089-10.61191,4.62557Z" style="fill:#c74117;"/><path d="M226.39293,133.00157c.86424,.30515,1.77512,.61341,2.39667,1.2869,.67242,.72848,.88928,1.75681,1.05413,2.73432,3.13908,18.62046-3.15839,37.91009-13.75313,53.54107-.39272,.57936-.81105,1.17354-1.41616,1.52539-.6558,.38146-1.44852,.43062-2.20739,.42836-1.98629-.00571-3.97154-.29884-5.87484-.86702,5.00352-6.28753,7.29241-14.52083,6.94988-22.54915-.21719-5.08791-1.50157-10.2475-4.47237-14.38406-2.97059-4.13645-7.79145-7.1145-12.88404-7.08696,1.92014-4.54084,3.96128-9.0304,6.11984-13.46268,1.00236-2.05775,2.03-4.10333,3.08274-6.13584,.8106-1.5644,1.99216-5.40587,3.44707-6.375,2.31976-1.54479,5.4369,4.31592,7.3572,5.8706,3.01141,2.43822,6.56115,4.18853,10.20041,5.47408Z" style="fill:#c74117;"/></g><path d="M202.32568,150.44751c-1.4893,3.44399-2.94785,6.78337-4.33529,9.99371l-12.31891-.50206s-.02065,.18431-.01321-.00057l-12.31899-.50189c-1.12128-3.31251-2.30354-6.7597-3.50776-10.31347-8.25206-24.35389-17.46434-53.70667-14.48625-78.10546,2.42443-19.89812,13.21269-40.2491,22.51646-54.0347C184.84464,6.60794,190.98774-.0454,192.11005,.00023c.02641,.00114,.05283,.00228,.07867,.01662,.87441-.3613,6.598,6.85519,12.89887,18.07576,8.13826,14.4965,17.23472,35.65766,18.03206,55.68726,.98291,24.56014-10.58736,53.06573-20.79398,76.66763Z" style="fill:#ddd;"/><path d="M202.32568,150.44751c-1.4893,3.44399-2.94785,6.78337-4.33529,9.99371l-12.31891-.50206s-.02065,.18431-.01321-.00057l-12.31899-.50189c-1.12128-3.31251-2.30354-6.7597-3.50776-10.31347l32.49416,1.32428Z" style="fill:#282d3f;"/><path d="M205.08759,18.09262l-27.22586-1.10953C184.84464,6.60794,190.98774-.0454,192.11005,.00023c.02641,.00114,.05283,.00228,.07867,.01662,.87441-.3613,6.598,6.85519,12.89887,18.07576Z" style="fill:#c74117;"/><g><path d="M208.02502,56.07203c-.40473,9.93559-8.78738,17.66167-18.72314,17.25687-9.93544-.40492-17.66152-8.78758-17.25682-18.72312,.40502-9.93566,8.78768-17.66174,18.72312-17.25682,9.93576,.4048,17.66184,8.78746,17.25684,18.72307Z" style="fill:#282d3f;"/><path d="M202.99988,55.86721c-.29169,7.16032-6.33282,12.72827-13.49304,12.43636-7.16032-.29169-12.72827-6.33282-12.43636-13.49304,.29169-7.16032,6.33282-12.72827,13.49304-12.43636,7.16032,.29169,12.72827,6.33282,12.43636,13.49304Z" style="fill:#81c8be;"/></g><g><path d="M202.59104,102.40913c-.32525,7.9805-7.05835,14.18654-15.03907,13.86119-7.9806-.32503-14.18654-7.05835-13.86127-15.0389,.32532-7.98067,7.05833-14.18648,15.03914-13.86135,7.9805,.32525,14.18643,7.05857,13.86119,15.03907Z" style="fill:#282d3f;"/><path d="M198.55467,102.24456c-.23437,5.75155-5.0869,10.22388-10.83813,9.98939-5.75131-.23432-10.22376-5.08658-9.98939-10.83813,.23429-5.75139,5.08682-10.22371,10.83813-9.98939,5.75124,.23449,10.22388,5.0869,9.98939,10.83813Z" style="fill:#81c8be;"/></g></g><rect x="151.84414" y="155.56454" width="68.79409" height="2.94667" transform="translate(21.7515 336.73154) rotate(-87.6668)" style="fill:#c74117;"/></g><g><path d="M221.49414,163.59204s-5.96992,7.91513,7.16178,13.83854c0,0,10.29426,4.16204,14.68067-5.56674l-21.84245-8.2718Z" style="fill:#282e40;"/><g><path d="M251.59287,161.26147h0c.99754-2.59069-.29397-5.49955-2.88461-6.49708l-20.7399-7.98604c-2.59073-.99759-5.49952,.29392-6.49708,2.88461h0c-.58268,1.51324-.38329,3.13447,.3987,4.42049-1.44256,.42943-2.67776,1.49825-3.26045,3.01149-.99756,2.59068,.29385,5.49951,2.8846,6.4971l20.7399,7.98602c2.59061,.99755,5.49951-.2939,6.49708-2.88458,.58268-1.51324,.38329-3.13447-.39873-4.4205,1.44256-.42945,2.67777-1.49827,3.26047-3.01151Z" style="fill:#d5ddf2;"/><g style="clip-path:url(#d);"><path d="M220.68134,150.26522s2.74289,2.3954,6.51556,4.13003c3.77267,1.73465,22.66932,6.70463,24.39596,6.86621,1.72662,.16158,0,0,0,0,0,0-.52972,2.84194-3.26047,3.01151-2.73078,.16957,0,0,0,0,0,0,1.56657,1.5724,.80557,3.36388-.76098,1.79148,0,0,0,0,0,0-19.44511-7.27603-20.08259-7.451s-11.44642-2.85684-11.44642-2.85684c0,0,1.71702-4.22516,2.98902-3.73536,0,0-.70654-2.72613,.08338-3.32842Z" style="fill:#667abb; opacity:.3;"/></g></g></g><g><path d="M283.46802,61.18384s-33.25003-21.41318-52.15368,10.38216c-19.92211,33.50835,1.17187,51.33975-3.00889,75.34216l20.56017,7.91683s6.58175-11.0456,22.74338-21.62176c19.70033-12.89188,38.89787-50.96509,11.85902-72.01939Z" style="fill:#e7e56d;"/><g style="clip-path:url(#e);"><path d="M222.58251,111.54054s12.63363,23.94576,21.18835,26.4102c8.5547,2.46442,27.38845-2.06402,27.38845-2.06402,0,0-20.76371,21.87086-22.34778,21.75868-1.58409-.11218-21.48515-7.77524-21.93267-8.61123-.44751-.83602-4.16899-35.78536-4.29635-37.49362Z" style="fill:#e7e56d;"/></g></g><g id="f"><g><polygon points="49.31397 120.90837 178.73565 238.35481 232.29587 179.3334 232.29587 179.33336 102.87421 61.88694 49.31397 120.90837" style="fill:#282d3f; stroke:#000; stroke-miterlimit:10; stroke-width:.5px;"/><rect x="40.29975" y="92.1016" width="74.37058" height="8.31447" transform="translate(-45.86934 88.9519) rotate(-47.77716)" style="fill:#282d3f; stroke:#000; stroke-miterlimit:10; stroke-width:.5px;"/><rect x="163.06092" y="35.23021" width="5.4116" height="174.76738" transform="translate(-36.43124 162.97178) rotate(-47.77716)" style="fill:#282d3f; stroke:#000; stroke-miterlimit:10; stroke-width:.5px;"/><g><path d="M109.47847,71.55519c-.44755,.49319-.41034,1.256,.0831,1.70378s1.25629,.41101,1.70384-.08218,.41038-1.25604-.08308-1.70384-1.2563-.41095-1.70386,.08224Z" style="fill:#81c8be; stroke:#000; stroke-miterlimit:10; stroke-width:.5px;"/><path d="M106.4124,68.77282c-.44755,.49319-.41036,1.25598,.08308,1.70376s1.25629,.41101,1.70384-.08218,.41036-1.25606-.08308-1.70384-1.25628-.41093-1.70384,.08226Z" style="fill:#e7e66c; stroke:#000; stroke-miterlimit:10; stroke-width:.5px;"/><path d="M103.34632,65.99044c-.44755,.49319-.41036,1.25598,.08308,1.70376s1.25629,.41101,1.70384-.08218,.41036-1.25606-.08308-1.70384-1.25628-.41093-1.70384,.08226Z" style="fill:#e9531e; stroke:#000; stroke-miterlimit:10; stroke-width:.5px;"/></g><g id="g"><g id="h"><g id="i"><g id="j"><path id="k" d="M100.75916,72.12506l-1.59547,1.75815c-.0801,.08827-.21664,.09486-.30495,.01472l-1.49251-1.35441c-.08832-.08015-.09497-.21667-.01487-.30495l1.9339-2.13108c.0801-.08827,.21664-.09486,.30495-.01472l1.11938,1.01581,.04957,1.01649Z" style="fill:#282d3f; stroke:#fff; stroke-linecap:round; stroke-linejoin:round; stroke-width:.25px;"/><path id="l" d="M100.70959,71.10857l-.33843,.37294c-.0801,.08827-.07345,.2248,.01487,.30495l.37313,.3386" style="fill:#282d3f; stroke:#fff; stroke-linecap:round; stroke-linejoin:round; stroke-width:.25px;"/></g></g><g id="m"><path id="n" d="M101.73124,72.12497l-1.59547,1.75815c-.0801,.08827-.21664,.09486-.30495,.01472l-1.49251-1.35441c-.08832-.08015-.09497-.21667-.01487-.30495l1.9339-2.13108c.0801-.08827,.21664-.09486,.30495-.01472l1.11938,1.01581,.04957,1.01649Z" style="fill:#282d3f; stroke:#fff; stroke-linecap:round; stroke-linejoin:round; stroke-width:.25px;"/><path id="o" d="M101.68167,71.10848l-.33843,.37294c-.0801,.08827-.07345,.2248,.01487,.30495l.37313,.3386" style="fill:#282d3f; stroke:#fff; stroke-linecap:round; stroke-linejoin:round; stroke-width:.25px;"/></g></g></g><g id="p" transform="translate(0,-288.53332)"><path id="q" d="M95.01571,75.96308c-.21225,.2339-.32307,.52482-.33548,.8183l-1.71543,.08278c-.15795,.00762-.1464,.24466,.01156,.23703l1.71526-.08293c.04064,.29144,.17918,.57075,.41358,.78347,.53151,.48233,1.35677,.4425,1.83885-.08873,.48208-.53124,.44169-1.35631-.08982-1.83863s-1.35644-.44252-1.83852,.08872Zm1.75302,1.59082c-.39615,.43654-1.06776,.46894-1.50451,.0726s-.46934-1.06778-.07319-1.50432c.39614-.43653,1.06743-.46893,1.50419-.07259,.43675,.39635,.46966,1.06777,.07352,1.50431Z" style="fill:#fff;"/></g><path d="M61.71982,116.6736c.67616-.7451,.61981-1.90166-.12572-2.5782s-1.90211-.62069-2.57827,.12442c-.34577,.38103-.49874,.86954-.46721,1.34654-.00108,.01317,.00028,.02587,.00373,.03867,.03862,.44221,.23523,.87178,.58919,1.19299s.80055,.47532,1.24442,.47096c.01307,.0022,.02584,.00232,.03885-.00003,.47782-.01478,.94923-.21432,1.295-.59535Zm-.279-2.40929c.65234,.59198,.70163,1.60397,.11,2.25593-.25087,.27645-.57753,.44324-.9201,.49994,.14109-.30275,.09968-.67755-.10708-1.02035,.25634,.0285,.52215-.06101,.70812-.26594,.30802-.33942,.282-.86657-.05809-1.17519s-.86728-.2835-1.17529,.05593c-.18597,.20494-.24933,.47815-.19616,.73053-.3612-.1726-.73826-.17754-1.02592-.00782,.02328-.34645,.15767-.68772,.40854-.96417,.59163-.65196,1.60364-.70084,2.25598-.10886Zm-1.27344,.50368c.22349-.24628,.60611-.26443,.85301-.04037s.26587,.60663,.04238,.85291-.60611,.26443-.85301,.04037-.26587-.60663-.04238-.85291Zm-1.38509,.84813c.30642-.28662,.84294-.21764,1.27418,.1737s.55182,.91867,.29621,1.25139c-.3781-.00357-.75638-.13853-1.05784-.4121s-.4724-.63701-.51255-1.01299Z" style="fill:#fff;"/><g id="r"><path d="M58.23107,120.1888l-.23451-.28425c.01385-.03376,.02759-.06654,.03832-.10015l.36675-.06983c.10385-.02019,.17826-.12115,.17266-.23538l-.01789-.37219c-.00309-.06403-.03092-.12401-.07619-.16509-.03356-.03046-.07464-.04827-.11843-.05251l-.37108-.03454c-.01412-.03331-.0308-.06474-.04734-.09665l.20226-.30192c.05995-.08879,.03134-.20274-.05336-.2796l-.27623-.25067c-.08471-.07687-.20088-.09431-.28349-.02602l-.28023,.2297c-.0334-.01334-.06655-.02689-.10125-.03765l-.07047-.36554c-.00842-.04315-.03029-.08239-.06379-.11279-.04534-.04114-.10789-.06319-.17198-.06l-.37244,.01784c-.11448,.00556-.20841,.08888-.21835,.19416l-.03542,.3702c-.03327,.01407-.06676,.02898-.09872,.0457l-.30005-.20084c-.08665-.05857-.2032-.03518-.28169,.05131l-.25043,.27596c-.07849,.0865-.09058,.20473-.024,.28534l.23454,.28435c-.01388,.0338-.02765,.06654-.03835,.10012l-.36675,.06983c-.10392,.02019-.17833,.12116-.17272,.23538l.01789,.37219c.00303,.06404,.03073,.12408,.076,.16516,.03356,.03046,.07456,.04863,.11829,.05286l.37056,.03505c.01409,.03328,.02993,.06577,.04647,.09768l-.20401,.30392c-.06002,.08879-.03507,.20677,.04964,.28364l.27623,.25067c.08471,.07687,.20449,.09035,.28718,.02201l.28383-.23367c.03311,.01326,.06622,.02678,.10129,.03768l.0705,.3655c.00832,.04306,.03022,.08233,.06375,.11276,.04531,.04111,.10792,.06322,.17202,.06009l.37241-.01794c.11448-.00556,.20834-.08881,.21842-.19416l.03536-.37013c.03352-.01415,.06697-.02915,.09872-.0457l.30011,.2009c.08658,.05844,.20306,.03494,.28146-.05146l.25046-.27599c.07855-.08656,.09065-.20474,.02406-.28535Zm-.90955,.18061c-.05993,.03554-.12417,.06578-.19076,.08981l-.06756,.02424-.04711,.49993-.00487,.00081-.3725,.01804-.0047-.00019-.09618-.4926-.06963-.01759c-.07087-.01804-.13805-.04148-.19939-.07028l-.06558-.02984-.39784,.33135-.01285,.00779-.27623-.25067,.00652-.01342,.28869-.42511-.03387-.06497c-.03553-.05966-.06482-.12486-.08906-.19173l-.02389-.06813-.49993-.04848-.00039-.004-.01803-.37243,.00013-.0045,.49353-.09524,.01737-.07009c.01661-.06543,.03935-.13078,.07109-.1984l.02888-.06628-.32579-.39135-.01048-.01681,.25046-.27599,.01778,.00884,.41837,.28389,.06357-.03479c.06006-.03561,.12527-.06497,.19176-.08896l.06803-.02388,.04744-.49969,.00497-.00065,.37244-.01797,.00477,.00031,.09603,.49277,.06952,.01785c.07096,.01807,.13766,.04204,.19884,.07075l.06467,.0309,.39602-.32947,.00925-.00376,.27623,.25067-.00286,.00945-.28605,.42228,.03487,.06374c.03575,.06023,.06504,.12542,.08897,.19183l.02398,.06803,.49993,.04841,.00036,.00403,.01803,.37231-.00016,.0046-.49343,.09533-.01741,.07c-.01655,.0647-.03986,.13195-.07112,.19844l-.02881,.06634,.32562,.39126,.01048,.01687-.25043,.27596-.01781-.0088-.41831-.2839-.06556,.03317Z" style="fill:#fff;"/><path d="M56.44902,119.72984c-.17914-.16257-.19266-.44052-.03018-.61957s.44042-.19248,.61956-.02992c.1791,.16253,.19271,.4405,.03021,.61957-.16247,.17903-.4405,.19245-.6196,.02992Zm.52049-.57356c-.13725-.12455-.35023-.11428-.47472,.02291s-.11411,.35015,.02315,.47471c.13724,.12454,.35018,.11433,.47472-.02291,.12447-.1372,.11409-.35017-.02315-.47471Z" style="fill:#fff;"/></g><polygon points="49.17034 120.92349 178.91653 238.66441 180.55177 236.86243 180.55177 236.8624 50.8056 119.12149 49.17034 120.92349" style="fill:#3573b9;"/></g><g id="s"><g id="t"><rect x="103.50366" y="81.14349" width="15.85552" height="1.13961" transform="translate(83.82498 -53.68208) rotate(42.22284)" style="fill:#81c8be;"/><rect x="77.90419" y="109.3532" width="15.85552" height="1.13956" transform="translate(96.14021 -29.15946) rotate(42.22284)" style="fill:#81c8be;"/><rect x="119.76582" y="115.84275" width="35.15116" height="1.13956" transform="translate(113.86609 -62.09083) rotate(42.22284)" style="fill:#81c8be;"/><rect x="100.58327" y="116.07678" width="23.26439" height="1.13956" transform="translate(107.50411 -45.14508) rotate(42.22284)" style="fill:#81c8be;"/><rect x="86.79943" y="142.16462" width="36.31622" height="1.13966" transform="translate(123.15242 -33.49879) rotate(42.22284)" style="fill:#81c8be;"/></g><g id="u"><rect x="97.93659" y="87.27823" width="15.85552" height="1.13956" transform="translate(86.50315 -48.34919) rotate(42.22284)" style="fill:#e9531e;"/><rect x="147.7449" y="138.74431" width="29.66637" height="1.13956" transform="translate(135.8043 -73.10817) rotate(42.22284)" style="fill:#e9531e;"/><rect x="87.14961" y="106.44259" width="53.55334" height="1.13956" transform="translate(101.47367 -48.79449) rotate(42.22284)" style="fill:#e9531e;"/><rect x="75.12068" y="112.42053" width="15.85552" height="1.13954" transform="translate(97.47928 -26.49304) rotate(42.22284)" style="fill:#e9531e;"/><rect x="76.71682" y="138.52301" width="20.22732" height="1.13954" transform="translate(116.00186 -22.262) rotate(42.22284)" style="fill:#e9531e;"/></g><g id="v"><rect x="115.48481" y="93.13822" width="6.00138" height="1.13954" transform="translate(93.71588 -55.31036) rotate(42.22284)" style="fill:#ddd;"/><rect x="111.86519" y="98.37105" width="12.44607" height="1.13956" transform="translate(97.12934 -53.68565) rotate(42.22284)" style="fill:#ddd;"/><rect x="99.4374" y="123.18672" width="53.55339" height="1.13956" transform="translate(115.91423 -52.70761) rotate(42.22284)" style="fill:#ddd;"/><rect x="121.07323" y="130.51092" width="14.09624" height="1.13956" transform="translate(121.33107 -52.08896) rotate(42.22284)" style="fill:#ddd;"/><rect x="96.71375" y="121.95688" width="31.63553" height="1.13956" transform="translate(111.53763 -43.8318) rotate(42.22284)" style="fill:#ddd;"/><rect x="85.62228" y="137.36316" width="48.12846" height="1.13965" transform="translate(121.15276 -37.92253) rotate(42.22284)" style="fill:#ddd;"/><rect x="70.21269" y="117.82889" width="15.85552" height="1.13966" transform="translate(99.84038 -21.79151) rotate(42.22284)" style="fill:#ddd;"/><rect x="84.97738" y="126.75624" width="6.00138" height="1.13966" transform="translate(108.3922 -26.08622) rotate(42.22284)" style="fill:#ddd;"/><rect x="96.85168" y="154.01717" width="14.09624" height="1.13956" transform="translate(130.84305 -29.71269) rotate(42.22284)" style="fill:#ddd;"/><rect x="100.72013" y="84.21087" width="15.85552" height="1.13954" transform="translate(85.16406 -51.01564) rotate(42.22284)" style="fill:#ddd;"/></g><g id="w"><rect x="72.4922" y="145.46313" width="31.63553" height="1.13956" transform="translate(121.04961 -21.45553) rotate(42.22284)" style="fill:#aa97c8;"/><rect x="91.3275" y="127.29835" width="28.5587" height="1.13956" transform="translate(113.33049 -37.7924) rotate(42.22284)" style="fill:#aa97c8;"/><rect x="91.88934" y="98.30861" width="38.47436" height="1.13954" transform="translate(95.28108 -49.02347) rotate(42.22284)" style="fill:#aa97c8;"/></g><g id="x"><rect x="113.40885" y="121.34519" width="72.31942" height="1.13954" transform="translate(120.73632 -68.87999) rotate(42.22284)" style="fill:#e7e66c;"/><rect x="91.66473" y="130.89193" width="49.09858" height="1.13954" transform="translate(118.4976 -43.98819) rotate(42.22284)" style="fill:#e7e66c;"/><rect x="75.21585" y="146.69297" width="53.55339" height="1.13956" transform="translate(125.42621 -30.33134) rotate(42.22284)" style="fill:#e7e66c;"/></g></g></g><polygon points="217.16729 246.74268 172.63283 209.05171 172.63283 209.06443 172.63283 297 251.38335 251.96439 251.38335 227.28456 251.38335 227.17139 217.16729 246.74268" style="fill:#aa98c9;"/><polygon points="172.63283 206.91288 172.63283 206.92349 172.63283 209.05171 217.16729 246.74268 217.16729 244.60512 172.63283 206.91288" style="fill:#ddd;"/><polygon points="251.38971 161.88363 251.38335 161.87514 251.37593 161.87514 251.3664 161.88363 172.63283 206.91288 217.16729 244.60512 295.91568 199.56529 254.46411 164.48124 251.41386 161.90693 251.38971 161.88363" style="fill:#5b4f9c;"/><polygon points="217.16729 244.60512 217.16729 246.74268 251.38335 227.17139 268.40661 217.43746 271.34265 215.75764 295.91568 201.70601 295.91568 199.56529 217.16729 244.60512" style="fill:#ddd;"/><polygon points="93.88068 164.05084 93.88068 227.18091 93.88068 251.96436 172.63281 297 172.63281 209.06439 93.88068 164.05084" style="fill:#ddd;"/><g id="y"><path d="M133.05764,241.07325l-3.50855-.62316-.59665-4.85695c.00777,4.4364-2.37688,6.68833-5.33662,5.07348-2.97739-1.62078-5.4234-6.5525-5.46143-11.02495-.04274-4.45626,2.32786-6.77943,5.30125-5.17359,2.29681,1.2236,4.2818,4.42836,5.09955,7.8913l-1.8931-15.41051c-.56741-.54016-1.14328-1.02184-1.72272-1.44305l-1.00234,2.724-2.38513-1.0264-1.33806-3.73155c-.87994-.10961-1.73675-.04972-2.55438,.18485l.48148,3.78894-1.80019,1.32497-2.24604-2.4904c-.55751,.75872-1.02177,1.65027-1.39428,2.64003l1.75184,3.41514-.56078,3.14041-2.30018-.33514c-.03573,1.35348,.03199,2.77268,.20891,4.23313l2.36878,1.76036,.90252,3.80165-1.48839,1.96753c.24736,.7015,.51813,1.40413,.81553,2.09699,.30378,.71478,.62944,1.40637,.96753,2.07664l2.0937-.57364,2.03243,3.03368-.10613,3.54434c.87351,.98349,1.78088,1.82546,2.70299,2.52154l1.00876-2.70806,2.39561,1.0893,1.34523,3.7916c.89113,.1335,1.76173,.09998,2.59435-.11251l-.48733-3.84121,1.83606-1.29464,2.29715,2.57766c.58968-.78048,1.07721-1.70789,1.46969-2.74192l-1.80948-3.48752,.31845-1.80234Z" style="fill:#a997c8;"/><g><path d="M132.62896,237.43979c-.63857-.35799-1.16697-.9312-1.58479-1.72094-.41879-.78904-.62861-1.96709-.63086-3.53307l-.03581-24.91535-7.42593-4.0303,.00431,4.9509,3.39487,1.85295,.02196,19.4478c.00357,3.15727,.43247,5.79873,1.28754,7.92353,.85619,2.12849,2.21662,3.71835,4.0849,4.7718,.68212,.38462,1.29358,.663,1.83362,.83736,.54039,.17356,.99756,.27554,1.3732,.30783,.32974,.02822,.60428,.03073,.82294,.00812l-.00542-5.26896c-.17687-.00072-.5409,.00839-1.09188,.0264-.55063,.01891-1.23424-.20152-2.04864-.65809Z" style="fill:#fff;"/><polygon points="139.14828 246.36149 152.21999 253.73217 152.23564 258.78729 139.15881 251.37343 139.14828 246.36149" style="fill:#a997c8;"/></g></g><polygon points="93.88065 161.89422 93.88065 164.05087 172.63283 209.06443 172.63283 206.92349 93.88065 161.89422" style="fill:#5b4f9c;"/><polygon points="251.41386 161.90693 254.46411 164.48124 295.94957 170.60781 295.94957 168.47746 251.41386 161.89741 251.41386 161.90693" style="fill:#ddd;"/></g></svg>