<?xml version="1.0" encoding="UTF-8"?><svg id="a" xmlns="http://www.w3.org/2000/svg" viewBox="0 0 346 297"><g><circle cx="42.12194" cy="279.42086" r="17.57914" style="fill:#fff;"/><circle cx="328.31826" cy="63.62639" r="17.57914" style="fill:#fff;"/><circle cx="135.6848" cy="91.34221" r="17.57914" style="fill:#fff;"/><circle cx="124.63782" cy="17.57914" r="17.57914" style="fill:#fff;"/></g><g><polyline points="41.40396 278.5986 85.0854 204.61191 160.4626 153.7229 225.49231 144.3153 308.3419 122.12238 328.31826 63.62639" style="fill:none; stroke:#fff; stroke-miterlimit:10; stroke-width:4px;"/><line x1="17.68174" y1="132.81903" x2="85.08541" y2="204.6119" style="fill:none; stroke:#fff; stroke-miterlimit:10; stroke-width:4px;"/><polyline points="124.63781 17.57914 135.15214 91.23592 160.4626 153.7229" style="fill:none; stroke:#fff; stroke-miterlimit:10; stroke-width:4px;"/></g><circle cx="17.68174" cy="132.81903" r="17.57914" style="fill:#fff;"/><circle cx="160.98171" cy="153.7229" r="17.57914" style="fill:#fff;"/><circle cx="308.34188" cy="122.12238" r="17.57914" style="fill:#aa97c8;"/><circle cx="84.45066" cy="204.59887" r="17.57914" style="fill:#fff;"/><circle cx="225.58853" cy="145.08241" r="17.57914" style="fill:#aa97c8;"/><path d="M11.39279,149.24579c-3.33725-1.14793-6.27165-4.06433-6.27165-4.06433,0,0-2.25607-2.22425-3.70922-5.64106l16.24702-6.72409-6.26615,16.42949Z" style="fill:#aa97c8;"/><path d="M80.64145,187.43065c8.61742-2.0162,18.84211,3.06671,20.99881,13.49197l-17.179,3.55516-3.81981-17.04714Z" style="fill:#aa97c8;"/><path d="M139.95792,74.28545c7.11417,1.43655,11.3236,7.61512,12.57091,12.01109,2.27025,8.00118-.95423,15.10883-5.85582,18.76341l-10.98821-13.71774,4.27312-17.05676Z" style="fill:#aa97c8;"/><path d="M56.60197,289.39691c-1.90505,2.97082-5.43302,5.13174-5.43302,5.13174,0,0-2.69495,1.66565-6.35858,2.26897l-2.68843-17.37675,14.48003,9.97604Z" style="fill:#aa97c8;"/></svg>