<?xml version="1.0" encoding="UTF-8"?><svg id="a" xmlns="http://www.w3.org/2000/svg" viewBox="0 0 150 150"><g id="b"><g><g><g><path d="M29.50648,103.62213c-.67713,.21337-1.39032,.42769-1.88943,.9324-.53997,.546-.73509,1.33642-.88879,2.08858-2.92571,14.32962,1.4353,29.42833,9.22008,41.80936,.28856,.45896,.59642,.93009,1.05541,1.21856,.49741,.31274,1.10972,.37182,1.69707,.39028,1.53782,.0484,3.08235-.12545,4.57066-.5147-3.70561-5.00009-5.25809-11.43409-4.77912-17.63895,.30352-3.93269,1.43528-7.89216,3.84469-11.015,2.40958-3.12277,6.2204-5.29945,10.16175-5.14273-1.36551-3.56576-2.82574-7.09532-4.37877-10.58349-.72099-1.61956-1.46185-3.23018-2.22273-4.83151-.58571-1.23258-1.39785-4.23758-2.49836-5.02635-1.75445-1.25759-4.32337,3.19588-5.85118,4.34822-2.39581,1.807-5.19007,3.06751-8.04129,3.96531Z" style="fill:#c74117;"/><path d="M90.83873,103.26382c.67974,.20534,1.39568,.41138,1.9011,.91158,.54678,.54104,.75204,1.33155,.91522,2.0845,3.10749,14.34292-1.06118,29.55042-8.68781,42.07428-.2827,.4642-.58468,.94084-1.03998,1.23614-.49345,.32015-1.10494,.3873-1.69212,.41329-1.5369,.06819-3.08346-.08684-4.57666-.45841,3.64169-5.06482,5.11228-11.54117,4.55455-17.76216-.35354-3.94253-1.53533-7.90169-3.98451-11.00487-2.44901-3.10311-6.28724-5.23915-10.2261-5.03158,1.31994-3.59589,2.73536-7.15639,4.24371-10.67671,.70044-1.63437,1.42088-3.26021,2.16122-4.87682,.57008-1.2443,1.34412-4.27017,2.43436-5.07583,1.73835-1.28424,4.36361,3.15229,5.90593,4.2892,2.41867,1.78304,5.22873,3.01228,8.0911,3.87739Z" style="fill:#c74117;"/></g><path d="M72.85486,117.60743c-1.02668,2.71871-2.03338,5.35537-2.98976,7.8896l-9.54879,.06055s-.00925,.14335-.01024,.00004l-9.54884,.06068c-.9882-2.52185-2.02849-5.14567-3.08964-7.85114-7.27175-18.54057-15.46856-40.91352-14.05378-59.8981,1.15047-15.48248,8.75509-31.62013,15.45051-42.62439C54.08851,6.96348,58.59862,1.59226,59.46855,1.58666c.02048-.00008,.04095-.00016,.06147,.00999,.66332-.31139,5.35436,5.06304,10.63794,13.51416,6.82446,10.91858,14.63313,26.95832,15.97996,42.42511,1.65551,18.96505-6.25691,41.43999-13.29306,60.07151Z" style="fill:#ddd;"/><path d="M72.85486,117.60743c-1.02668,2.71871-2.03338,5.35537-2.98976,7.8896l-9.54879,.06055s-.00925,.14335-.01024,.00004l-9.54884,.06068c-.9882-2.52185-2.02849-5.14567-3.08964-7.85114l25.18727-.15972Z" style="fill:#282d3f;"/><path d="M70.16796,15.11081l-21.10364,.13385C54.08851,6.96348,58.59862,1.59226,59.46855,1.58666c.02048-.00008,.04095-.00016,.06147,.00999,.66332-.31139,5.35436,5.06304,10.63794,13.51416Z" style="fill:#c74117;"/><g><path d="M73.82464,44.38642c.04899,7.70139-6.15466,13.98416-13.85618,14.03309-7.70128,.04883-13.98404-6.15481-14.03305-13.85616-.04876-7.70145,6.15488-13.98422,13.85616-14.03305,7.70152-.04893,13.98429,6.15471,14.03306,13.85612Z" style="fill:#282d3f;"/><path d="M69.9295,44.4111c.03529,5.55019-4.43549,10.07798-9.98561,10.1131-5.55019,.03529-10.07799-4.43549-10.1131-9.98561-.03529-5.55019,4.43549-10.07798,9.98561-10.1131,5.55019-.03529,10.07799,4.43549,10.1131,9.98561Z" style="fill:#81c8be;"/></g><g><path d="M71.30941,80.43301c.03922,6.18594-4.94365,11.23261-11.12976,11.27176-6.18601,.03939-11.23261-4.94365-11.27182-11.12963-.03917-6.18607,4.94363-11.23257,11.12981-11.27189,6.18594-.03922,11.23254,4.94382,11.27176,11.12976Z" style="fill:#282d3f;"/><path d="M68.18069,80.4528c.02829,4.45821-3.56286,8.09506-8.02083,8.12325-4.45803,.02832-8.09496-3.56261-8.12325-8.02083-.02835-4.45808,3.5628-8.09493,8.02083-8.12325,4.45797-.02819,8.09506,3.56286,8.12325,8.02083Z" style="fill:#81c8be;"/></g></g><rect x="59.51023" y="96.65156" width="2.28221" height="53.28136" transform="translate(-.78181 .38769) rotate(-.36389)" style="fill:#c74117;"/></g><path d="M68.89788,13.12008l2.81222,4.52158,19.60653,.1051V150h3.10212v-22.82338l27.04154,18.39506v4.42832h2.61989l-2.08972-136.87992h-53.09258Zm52.56241,68.37036l-23.2947-15.84665,23.26249-1.14055,.03221,.0219v16.9653Zm-27.03729-18.39263l-.00425-.00285v-16.96482l23.26661,15.82711-23.26237,1.14055Zm-.00425,20.25859v-16.96476l23.33802,15.87619-23.26176,1.14043-.07626-.05187Zm0,20.26205v-16.9653l23.56989,16.03387-23.26188,1.14098-.30801-.20955Zm27.04154,18.395l-22.99088-15.63953,22.99088-1.12769v16.76722Zm-23.22263-36.05913l23.22263-1.13855v16.93618l-23.22263-15.79763Zm23.22263-24.72585l-27.04154-18.39506v-.73444l27.04154-1.32583v20.45533Zm-27.04154,62.65149v-16.96476l23.26595,15.82663-23.26176,1.14098-.00419-.00285Zm24.52304-85.7128l-24.52304,1.20231V20.03981l24.52304,18.12733Zm-20.7762,88.26157l23.26176-1.14098,.03294,.02245v16.96476l-23.2947-15.84622Z" style="fill:#ddd;"/></g></svg>