<?xml version="1.0" encoding="UTF-8" standalone="no"?>
<!-- Generator: Adobe Illustrator 25.4.1, SVG Export Plug-In . SVG Version: 6.00 Build 0)  -->

<svg
   xmlns:dc="http://purl.org/dc/elements/1.1/"
   xmlns:cc="http://creativecommons.org/ns#"
   xmlns:rdf="http://www.w3.org/1999/02/22-rdf-syntax-ns#"
   xmlns:svg="http://www.w3.org/2000/svg"
   xmlns="http://www.w3.org/2000/svg"
   xmlns:sodipodi="http://sodipodi.sourceforge.net/DTD/sodipodi-0.dtd"
   xmlns:inkscape="http://www.inkscape.org/namespaces/inkscape"
   version="1.1"
   x="0px"
   y="0px"
   viewBox="0 0 476.96381 573.88373"
   xml:space="preserve"
   id="svg141"
   sodipodi:docname="USSF_Sgt_Flat.svg"
   width="476.96381"
   height="573.88373"
   inkscape:version="0.92.0 r15299"><metadata
     id="metadata147"><rdf:RDF><cc:Work
         rdf:about=""><dc:format>image/svg+xml</dc:format><dc:type
           rdf:resource="http://purl.org/dc/dcmitype/StillImage" /></cc:Work></rdf:RDF></metadata><defs
     id="defs145" /><sodipodi:namedview
     pagecolor="#ffffff"
     bordercolor="#666666"
     borderopacity="1"
     objecttolerance="10"
     gridtolerance="10"
     guidetolerance="10"
     inkscape:pageopacity="0"
     inkscape:pageshadow="2"
     inkscape:window-width="1920"
     inkscape:window-height="1017"
     id="namedview143"
     showgrid="false"
     inkscape:zoom="0.236"
     inkscape:cx="238.4819"
     inkscape:cy="286.94187"
     inkscape:window-x="-8"
     inkscape:window-y="-8"
     inkscape:window-maximized="1"
     inkscape:current-layer="svg141" /><style
     type="text/css"
     id="style2">
	.st0{display:none;}
	.st1{display:inline;fill-rule:evenodd;clip-rule:evenodd;fill:#4B515B;}
	
		.st2{display:inline;fill:none;stroke:#000000;stroke-width:1.7312;stroke-linecap:round;stroke-linejoin:round;stroke-miterlimit:2.613;}
	.st3{display:inline;fill-rule:evenodd;clip-rule:evenodd;fill:#00002C;}
	.st4{display:inline;fill-rule:evenodd;clip-rule:evenodd;fill:#002639;}
	
		.st5{display:inline;fill:none;stroke:#00002C;stroke-width:18.2291;stroke-linecap:round;stroke-linejoin:round;stroke-miterlimit:2.613;}
	.st6{display:inline;fill-rule:evenodd;clip-rule:evenodd;fill:#CCD0D7;}
	.st7{display:inline;fill-rule:evenodd;clip-rule:evenodd;fill:#FFFFFF;}
	.st8{display:inline;fill-rule:evenodd;clip-rule:evenodd;fill:#DEE1E8;}
	.st9{display:inline;fill-rule:evenodd;clip-rule:evenodd;fill:#EAEDF4;}
	
		.st10{display:inline;fill:none;stroke:#E1E4ED;stroke-width:3.9116;stroke-linecap:round;stroke-linejoin:round;stroke-miterlimit:2.613;}
	.st11{fill-rule:evenodd;clip-rule:evenodd;fill:#4B515B;}
	.st12{fill:none;stroke:#000000;stroke-width:3.4638;stroke-linecap:round;stroke-linejoin:round;stroke-miterlimit:2.613;}
	.st13{fill-rule:evenodd;clip-rule:evenodd;fill:#00002C;}
	.st14{fill-rule:evenodd;clip-rule:evenodd;fill:#FFFFFF;}
	.st15{fill:none;stroke:#E1E4ED;stroke-width:3.9116;stroke-linecap:round;stroke-linejoin:round;stroke-miterlimit:2.613;}
	.st16{fill:none;stroke:#000000;stroke-width:3.6163;stroke-linecap:round;stroke-linejoin:round;stroke-miterlimit:2.613;}
	.st17{fill-rule:evenodd;clip-rule:evenodd;fill:#002639;}
	.st18{fill:none;stroke:#00002C;stroke-width:9.1142;stroke-linecap:round;stroke-linejoin:round;stroke-miterlimit:2.613;}
	.st19{fill-rule:evenodd;clip-rule:evenodd;fill:#CCD0D7;}
	.st20{fill-rule:evenodd;clip-rule:evenodd;fill:#DEE1E8;}
	.st21{fill-rule:evenodd;clip-rule:evenodd;fill:#EAEDF4;}
</style><g
     id="Layer_1"
     class="st0"
     style="display:none"
     transform="translate(-261.5181,-213.05813)"><polygon
       class="st1"
       points="736.75,363.31 736.75,499.99 736.75,636.68 618.37,705.03 500,773.38 381.62,705.03 263.25,636.68 263.25,499.99 263.25,363.31 381.62,294.97 500,226.62 618.37,294.97 "
       id="polygon4"
       style="clip-rule:evenodd;display:inline;fill:#4b515b;fill-rule:evenodd" /><polygon
       class="st2"
       points="736.75,363.31 736.75,499.99 736.75,636.68 618.37,705.03 500,773.38 381.62,705.03 263.25,636.68 263.25,499.99 263.25,363.31 381.62,294.97 500,226.62 618.37,294.97 "
       id="polygon6"
       style="display:inline;fill:none;stroke:#000000;stroke-width:1.73119998;stroke-linecap:round;stroke-linejoin:round;stroke-miterlimit:2.61299992" /><polygon
       class="st3"
       points="716.47,375.01 716.48,375.01 716.48,375.02 716.48,499.99 716.48,624.97 716.47,624.98 608.23,687.47 500,749.96 500,749.96 499.99,749.96 391.76,687.47 283.52,624.98 283.52,624.97 283.52,499.99 283.52,375.02 283.52,375.01 283.52,375.01 391.76,312.52 499.99,250.03 500,250.03 608.23,312.52 "
       id="polygon8"
       style="clip-rule:evenodd;display:inline;fill:#00002c;fill-rule:evenodd" /><polygon
       class="st2"
       points="716.47,375.01 716.48,375.01 716.48,375.02 716.48,499.99 716.48,624.97 716.47,624.98 608.23,687.47 500,749.96 500,749.96 499.99,749.96 391.76,687.47 283.52,624.98 283.52,624.97 283.52,499.99 283.52,375.02 283.52,375.01 283.52,375.01 391.76,312.52 499.99,250.03 500,250.03 608.23,312.52 "
       id="polygon10"
       style="display:inline;fill:none;stroke:#000000;stroke-width:1.73119998;stroke-linecap:round;stroke-linejoin:round;stroke-miterlimit:2.61299992" /><polygon
       class="st4"
       points="430.19,607.43 500.06,392.76 569.78,607.43 500.06,556.75 "
       id="polygon12"
       style="clip-rule:evenodd;display:inline;fill:#002639;fill-rule:evenodd" /><polygon
       class="st5"
       points="430.19,607.43 500.06,392.76 569.78,607.43 500.06,556.75 "
       id="polygon14"
       style="display:inline;fill:none;stroke:#00002c;stroke-width:18.22909927;stroke-linecap:round;stroke-linejoin:round;stroke-miterlimit:2.61299992" /><polygon
       class="st6"
       points="430.21,607.32 500.07,392.65 569.8,607.32 500.07,556.64 "
       id="polygon16"
       style="clip-rule:evenodd;display:inline;fill:#ccd0d7;fill-rule:evenodd" /><polygon
       class="st7"
       points="500.07,392.65 500.07,556.65 430.21,607.32 "
       id="polygon18"
       style="clip-rule:evenodd;display:inline;fill:#ffffff;fill-rule:evenodd" /><polygon
       class="st8"
       points="499.93,517.66 499.93,556.65 569.79,607.32 "
       id="polygon20"
       style="clip-rule:evenodd;display:inline;fill:#dee1e8;fill-rule:evenodd" /><polygon
       class="st9"
       points="500.07,517.66 500.07,556.65 430.21,607.32 "
       id="polygon22"
       style="clip-rule:evenodd;display:inline;fill:#eaedf4;fill-rule:evenodd" /></g><g
     id="Layer_2"
     class="st0"
     style="display:none"
     transform="translate(-261.5181,-213.05813)"><polygon
       class="st1"
       points="736.75,363.31 736.75,500 736.75,636.68 618.37,705.03 500,773.37 381.62,705.03 263.25,636.68 263.25,500 263.25,363.31 381.62,294.97 500,226.63 618.37,294.97 "
       id="polygon25"
       style="clip-rule:evenodd;display:inline;fill:#4b515b;fill-rule:evenodd" /><polygon
       class="st2"
       points="736.75,363.31 736.75,500 736.75,636.68 618.37,705.03 500,773.37 381.62,705.03 263.25,636.68 263.25,500 263.25,363.31 381.62,294.97 500,226.63 618.37,294.97 "
       id="polygon27"
       style="display:inline;fill:none;stroke:#000000;stroke-width:1.73119998;stroke-linecap:round;stroke-linejoin:round;stroke-miterlimit:2.61299992" /><polygon
       class="st3"
       points="716.47,375.02 716.48,375.02 716.48,375.02 716.48,500 716.48,624.98 716.47,624.98 608.23,687.48 500,749.96 500,749.96 499.99,749.96 391.76,687.48 283.52,624.98 283.52,624.98 283.52,500 283.52,375.02 283.52,375.02 283.52,375.02 391.76,312.53 499.99,250.04 500,250.04 608.23,312.53 "
       id="polygon29"
       style="clip-rule:evenodd;display:inline;fill:#00002c;fill-rule:evenodd" /><polygon
       class="st2"
       points="716.47,375.02 716.48,375.02 716.48,375.02 716.48,500 716.48,624.98 716.47,624.98 608.23,687.48 500,749.96 500,749.96 499.99,749.96 391.76,687.48 283.52,624.98 283.52,624.98 283.52,500 283.52,375.02 283.52,375.02 283.52,375.02 391.76,312.53 499.99,250.04 500,250.04 608.23,312.53 "
       id="polygon31"
       style="display:inline;fill:none;stroke:#000000;stroke-width:1.73119998;stroke-linecap:round;stroke-linejoin:round;stroke-miterlimit:2.61299992" /><rect
       x="290.72"
       y="479.29001"
       class="st7"
       width="418.51999"
       height="32.57"
       id="rect33"
       style="clip-rule:evenodd;display:inline;fill:#ffffff;fill-rule:evenodd" /><rect
       x="290.72"
       y="479.29001"
       class="st10"
       width="418.51999"
       height="32.57"
       id="rect35"
       style="display:inline;fill:none;stroke:#e1e4ed;stroke-width:3.91160011;stroke-linecap:round;stroke-linejoin:round;stroke-miterlimit:2.61299992" /><polygon
       class="st4"
       points="430.19,607.42 500.06,392.76 569.78,607.42 500.06,556.75 "
       id="polygon37"
       style="clip-rule:evenodd;display:inline;fill:#002639;fill-rule:evenodd" /><polygon
       class="st5"
       points="430.19,607.42 500.06,392.76 569.78,607.42 500.06,556.75 "
       id="polygon39"
       style="display:inline;fill:none;stroke:#00002c;stroke-width:18.22909927;stroke-linecap:round;stroke-linejoin:round;stroke-miterlimit:2.61299992" /><polygon
       class="st6"
       points="430.21,607.32 500.07,392.66 569.8,607.32 500.07,556.65 "
       id="polygon41"
       style="clip-rule:evenodd;display:inline;fill:#ccd0d7;fill-rule:evenodd" /><polygon
       class="st7"
       points="500.07,392.65 500.07,556.65 430.21,607.33 "
       id="polygon43"
       style="clip-rule:evenodd;display:inline;fill:#ffffff;fill-rule:evenodd" /><polygon
       class="st8"
       points="499.93,517.66 499.93,556.65 569.79,607.33 "
       id="polygon45"
       style="clip-rule:evenodd;display:inline;fill:#dee1e8;fill-rule:evenodd" /><polygon
       class="st9"
       points="500.07,517.66 500.07,556.65 430.21,607.33 "
       id="polygon47"
       style="clip-rule:evenodd;display:inline;fill:#eaedf4;fill-rule:evenodd" /></g><g
     id="Layer_3"
     class="st0"
     style="display:none"
     transform="translate(-261.5181,-213.05813)"><polygon
       class="st1"
       points="736.75,363.31 736.75,500 736.75,636.68 618.37,705.03 500,773.37 381.62,705.03 263.25,636.68 263.25,500 263.25,363.31 381.62,294.97 500,226.63 618.37,294.97 "
       id="polygon50"
       style="clip-rule:evenodd;display:inline;fill:#4b515b;fill-rule:evenodd" /><polygon
       class="st2"
       points="736.75,363.31 736.75,500 736.75,636.68 618.37,705.03 500,773.37 381.62,705.03 263.25,636.68 263.25,500 263.25,363.31 381.62,294.97 500,226.63 618.37,294.97 "
       id="polygon52"
       style="display:inline;fill:none;stroke:#000000;stroke-width:1.73119998;stroke-linecap:round;stroke-linejoin:round;stroke-miterlimit:2.61299992" /><polygon
       class="st3"
       points="716.47,375.02 716.48,375.02 716.48,375.02 716.48,500 716.48,624.98 716.47,624.98 608.23,687.48 500,749.96 500,749.96 499.99,749.96 391.76,687.48 283.52,624.98 283.52,624.98 283.52,500 283.52,375.02 283.52,375.02 283.52,375.02 391.76,312.53 499.99,250.04 500,250.04 608.23,312.53 "
       id="polygon54"
       style="clip-rule:evenodd;display:inline;fill:#00002c;fill-rule:evenodd" /><polygon
       class="st2"
       points="716.47,375.02 716.48,375.02 716.48,375.02 716.48,500 716.48,624.98 716.47,624.98 608.23,687.48 500,749.96 500,749.96 499.99,749.96 391.76,687.48 283.52,624.98 283.52,624.98 283.52,500 283.52,375.02 283.52,375.02 283.52,375.02 391.76,312.53 499.99,250.04 500,250.04 608.23,312.53 "
       id="polygon56"
       style="display:inline;fill:none;stroke:#000000;stroke-width:1.73119998;stroke-linecap:round;stroke-linejoin:round;stroke-miterlimit:2.61299992" /><path
       class="st7"
       d="M 290.73,490.83 H 709.25 V 458.25 H 290.73 Z m 0,51.06 H 709.25 V 509.32 H 290.73 Z"
       id="path58"
       inkscape:connector-curvature="0"
       style="clip-rule:evenodd;display:inline;fill:#ffffff;fill-rule:evenodd" /><path
       class="st10"
       d="M 290.73,490.83 H 709.25 V 458.25 H 290.73 Z m 0,51.06 H 709.25 V 509.32 H 290.73 Z"
       id="path60"
       inkscape:connector-curvature="0"
       style="display:inline;fill:none;stroke:#e1e4ed;stroke-width:3.91160011;stroke-linecap:round;stroke-linejoin:round;stroke-miterlimit:2.61299992" /><polygon
       class="st4"
       points="430.19,607.41 500.06,392.74 569.78,607.41 500.06,556.74 "
       id="polygon62"
       style="clip-rule:evenodd;display:inline;fill:#002639;fill-rule:evenodd" /><polygon
       class="st5"
       points="430.19,607.41 500.06,392.74 569.78,607.41 500.06,556.74 "
       id="polygon64"
       style="display:inline;fill:none;stroke:#00002c;stroke-width:18.22909927;stroke-linecap:round;stroke-linejoin:round;stroke-miterlimit:2.61299992" /><polygon
       class="st6"
       points="430.21,607.32 500.07,392.66 569.8,607.32 500.07,556.65 "
       id="polygon66"
       style="clip-rule:evenodd;display:inline;fill:#ccd0d7;fill-rule:evenodd" /><polygon
       class="st7"
       points="500.07,392.65 500.07,556.65 430.21,607.33 "
       id="polygon68"
       style="clip-rule:evenodd;display:inline;fill:#ffffff;fill-rule:evenodd" /><polygon
       class="st8"
       points="499.93,517.66 499.93,556.65 569.79,607.33 "
       id="polygon70"
       style="clip-rule:evenodd;display:inline;fill:#dee1e8;fill-rule:evenodd" /><polygon
       class="st9"
       points="500.07,517.66 500.07,556.65 430.21,607.33 "
       id="polygon72"
       style="clip-rule:evenodd;display:inline;fill:#eaedf4;fill-rule:evenodd" /></g><g
     id="Layer_4"
     class="st0"
     style="display:none"
     transform="translate(-261.5181,-213.05813)"><polygon
       class="st1"
       points="736.75,363.31 736.75,500 736.75,636.69 618.37,705.03 500,773.38 381.62,705.03 263.25,636.69 263.25,500 263.25,363.31 381.62,294.97 500,226.62 618.37,294.97 "
       id="polygon75"
       style="clip-rule:evenodd;display:inline;fill:#4b515b;fill-rule:evenodd" /><polygon
       class="st2"
       points="736.75,363.31 736.75,500 736.75,636.69 618.37,705.03 500,773.38 381.62,705.03 263.25,636.69 263.25,500 263.25,363.31 381.62,294.97 500,226.62 618.37,294.97 "
       id="polygon77"
       style="display:inline;fill:none;stroke:#000000;stroke-width:1.73119998;stroke-linecap:round;stroke-linejoin:round;stroke-miterlimit:2.61299992" /><polygon
       class="st3"
       points="716.47,375.01 716.48,375.01 716.48,375.02 716.48,500 716.48,624.98 716.47,624.98 608.23,687.47 500,749.96 500,749.96 499.99,749.96 391.76,687.47 283.52,624.98 283.52,624.98 283.52,500 283.52,375.02 283.52,375.01 283.52,375.01 391.76,312.52 499.99,250.04 500,250.04 608.23,312.52 "
       id="polygon79"
       style="clip-rule:evenodd;display:inline;fill:#00002c;fill-rule:evenodd" /><polygon
       class="st2"
       points="716.47,375.01 716.48,375.01 716.48,375.02 716.48,500 716.48,624.98 716.47,624.98 608.23,687.47 500,749.96 500,749.96 499.99,749.96 391.76,687.47 283.52,624.98 283.52,624.98 283.52,500 283.52,375.02 283.52,375.01 283.52,375.01 391.76,312.52 499.99,250.04 500,250.04 608.23,312.52 "
       id="polygon81"
       style="display:inline;fill:none;stroke:#000000;stroke-width:1.73119998;stroke-linecap:round;stroke-linejoin:round;stroke-miterlimit:2.61299992" /><path
       class="st7"
       d="M 290.73,460.8 H 709.25 V 428.23 H 290.73 Z m 0,51.05 H 709.25 V 479.28 H 290.73 Z m 0,51.06 H 709.25 V 530.33 H 290.73 Z"
       id="path83"
       inkscape:connector-curvature="0"
       style="clip-rule:evenodd;display:inline;fill:#ffffff;fill-rule:evenodd" /><path
       class="st10"
       d="M 290.73,460.8 H 709.25 V 428.23 H 290.73 Z m 0,51.05 H 709.25 V 479.28 H 290.73 Z m 0,51.06 H 709.25 V 530.33 H 290.73 Z"
       id="path85"
       inkscape:connector-curvature="0"
       style="display:inline;fill:none;stroke:#e1e4ed;stroke-width:3.91160011;stroke-linecap:round;stroke-linejoin:round;stroke-miterlimit:2.61299992" /><polygon
       class="st4"
       points="430.19,607.4 500.06,392.74 569.78,607.4 500.06,556.73 "
       id="polygon87"
       style="clip-rule:evenodd;display:inline;fill:#002639;fill-rule:evenodd" /><polygon
       class="st5"
       points="430.19,607.4 500.06,392.74 569.78,607.4 500.06,556.73 "
       id="polygon89"
       style="display:inline;fill:none;stroke:#00002c;stroke-width:18.22909927;stroke-linecap:round;stroke-linejoin:round;stroke-miterlimit:2.61299992" /><polygon
       class="st6"
       points="430.21,607.32 500.07,392.66 569.8,607.32 500.07,556.65 "
       id="polygon91"
       style="clip-rule:evenodd;display:inline;fill:#ccd0d7;fill-rule:evenodd" /><polygon
       class="st7"
       points="500.07,392.65 500.07,556.65 430.21,607.33 "
       id="polygon93"
       style="clip-rule:evenodd;display:inline;fill:#ffffff;fill-rule:evenodd" /><polygon
       class="st8"
       points="499.93,517.66 499.93,556.65 569.79,607.33 "
       id="polygon95"
       style="clip-rule:evenodd;display:inline;fill:#dee1e8;fill-rule:evenodd" /><polygon
       class="st9"
       points="500.07,517.66 500.07,556.65 430.21,607.33 "
       id="polygon97"
       style="clip-rule:evenodd;display:inline;fill:#eaedf4;fill-rule:evenodd" /></g><g
     id="Layer_5"
     transform="translate(-261.5181,-213.05813)"><polygon
       class="st11"
       points="736.75,351.48 736.75,488.16 736.75,648.52 618.37,716.86 500,785.21 381.62,716.86 263.25,648.52 263.25,488.16 263.25,351.48 381.62,283.14 500,214.79 618.37,283.14 "
       id="polygon100"
       style="clip-rule:evenodd;fill:#4b515b;fill-rule:evenodd" /><polygon
       class="st12"
       points="736.75,351.48 736.75,488.16 736.75,648.52 618.37,716.86 500,785.21 381.62,716.86 263.25,648.52 263.25,488.16 263.25,351.48 381.62,283.14 500,214.79 618.37,283.14 "
       id="polygon102"
       style="fill:none;stroke:#000000;stroke-width:3.46379995;stroke-linecap:round;stroke-linejoin:round;stroke-miterlimit:2.61299992" /><polygon
       class="st13"
       points="716.47,363.18 716.48,363.18 716.48,363.19 716.48,488.16 716.48,636.81 716.47,636.82 608.23,699.3 500,761.79 500,761.79 499.99,761.79 391.76,699.3 283.52,636.82 283.52,636.81 283.52,488.16 283.52,363.19 283.52,363.18 283.52,363.18 391.76,300.69 499.99,238.2 500,238.2 608.23,300.69 "
       id="polygon104"
       style="clip-rule:evenodd;fill:#00002c;fill-rule:evenodd" /><polygon
       class="st12"
       points="716.47,363.18 716.48,363.18 716.48,363.19 716.48,488.16 716.48,636.81 716.47,636.82 608.23,699.3 500,761.79 500,761.79 499.99,761.79 391.76,699.3 283.52,636.82 283.52,636.81 283.52,488.16 283.52,363.19 283.52,363.18 283.52,363.18 391.76,300.69 499.99,238.2 500,238.2 608.23,300.69 "
       id="polygon106"
       style="fill:none;stroke:#000000;stroke-width:3.46379995;stroke-linecap:round;stroke-linejoin:round;stroke-miterlimit:2.61299992" /><path
       class="st14"
       d="m 290.55,568.78 v 36.47 L 500,726.17 v 0.01 0 -0.01 L 709.44,605.25 V 568.78 L 499.99,689.7 Z m 0,-59.46 v 36.47 L 500,666.72 v 0 L 709.44,545.8 V 509.33 L 499.99,630.25 Z m 0,-59.46 v 36.47 L 500,607.25 v 0.01 0 -0.01 L 709.44,486.33 V 449.86 L 499.99,570.79 Z"
       id="path108"
       inkscape:connector-curvature="0"
       style="clip-rule:evenodd;fill:#ffffff;fill-rule:evenodd" /><path
       class="st15"
       d="m 290.55,568.78 v 36.47 L 500,726.17 v 0.01 0 -0.01 L 709.44,605.25 V 568.78 L 499.99,689.7 Z m 0,-59.46 v 36.47 L 500,666.72 v 0 L 709.44,545.8 V 509.33 L 499.99,630.25 Z m 0,-59.46 v 36.47 L 500,607.25 v 0.01 0 -0.01 L 709.44,486.33 V 449.86 L 499.99,570.79 Z"
       id="path110"
       inkscape:connector-curvature="0"
       style="fill:none;stroke:#e1e4ed;stroke-width:3.91160011;stroke-linecap:round;stroke-linejoin:round;stroke-miterlimit:2.61299992" /><path
       class="st14"
       d="m 588.66,362.8 c 0.39,-0.56 0.78,-1.15 1.17,-1.78 -0.39,0.58 -0.78,1.17 -1.17,1.78 m -54.1,-38.67 c 1.54,0.62 2.86,1.32 4.41,1.95 24.41,-8.22 49.61,-6.38 56.28,6.24 4.15,7.86 -0.52,20.82 -5.43,28.7 8.33,-12.83 11.52,-21.46 7.07,-30.12 -3.88,-7.57 -13.66,-12.2 -28.87,-12.2 -9.19,0 -20.38,1.69 -33.46,5.43 z"
       id="path112"
       inkscape:connector-curvature="0"
       style="clip-rule:evenodd;fill:#ffffff;fill-rule:evenodd" /><path
       class="st12"
       d="m 588.67,362.76 c 0.39,-0.56 0.78,-1.16 1.17,-1.78 -0.38,0.59 -0.77,1.18 -1.17,1.78 z m -47.88,-37.31 c 24.1,-7.87 47.89,-5.62 54.48,6.84 4.15,7.86 -0.53,20.82 -5.43,28.7 8.33,-12.83 11.51,-21.46 7.07,-30.12 -3.89,-7.57 -13.66,-12.2 -28.88,-12.2 -8.81,0 -18.64,1.28 -30.97,4.69 z"
       id="path114"
       inkscape:connector-curvature="0"
       style="fill:none;stroke:#000000;stroke-width:3.46379995;stroke-linecap:round;stroke-linejoin:round;stroke-miterlimit:2.61299992" /><path
       class="st14"
       d="m 588.65,362.8 c 0.39,-0.55 0.78,-1.15 1.17,-1.78 -0.37,0.58 -0.77,1.17 -1.17,1.78 m -47.88,-37.32 c 24.1,-7.87 47.89,-5.62 54.48,6.84 4.15,7.86 -0.53,20.82 -5.43,28.7 8.33,-12.83 11.51,-21.46 7.06,-30.12 -3.88,-7.57 -13.65,-12.2 -28.87,-12.2 -8.81,0 -18.64,1.28 -30.97,4.69 z"
       id="path116"
       inkscape:connector-curvature="0"
       style="clip-rule:evenodd;fill:#ffffff;fill-rule:evenodd" /><path
       class="st16"
       d="m 473.11,456.46 c 8.33,-4.38 17.84,-6.86 27.92,-6.86 10.08,0 19.57,2.48 27.91,6.86 -8.56,3.67 -17.99,5.71 -27.91,5.71 -9.92,0 -19.35,-2.04 -27.92,-5.71 z m -17.83,-11.04 c 2.47,-1.28 5,-2.46 7.58,-3.55 2.77,3.63 5.82,7.03 9.13,10.15 -1.32,0.64 -2.63,1.32 -3.9,2.04 -4.59,-2.42 -8.89,-5.32 -12.81,-8.64 z m 74.77,6.6 c 3.31,-3.12 6.37,-6.52 9.15,-10.15 2.57,1.08 5.11,2.26 7.58,3.55 -3.93,3.33 -8.22,6.22 -12.82,8.65 -1.28,-0.73 -2.58,-1.41 -3.91,-2.05 z m -64.06,-11.39 c 3.87,-1.46 7.87,-2.69 11.96,-3.67 1.86,3.66 3.94,7.2 6.23,10.59 -3.09,0.81 -6.09,1.82 -8.99,3.04 -3.34,-3.06 -6.42,-6.39 -9.2,-9.96 z m 51.88,6.92 c 2.28,-3.39 4.37,-6.93 6.23,-10.59 4.09,0.98 8.09,2.21 11.97,3.67 -2.79,3.57 -5.87,6.9 -9.22,9.96 -2.9,-1.22 -5.89,-2.23 -8.98,-3.04 z m -36.63,-11.31 c 5.8,-1.18 11.78,-1.85 17.9,-1.97 v 11.17 c -3.95,0.11 -7.8,0.57 -11.55,1.32 -2.32,-3.36 -4.45,-6.87 -6.35,-10.52 z m 21.67,9.21 v -11.17 c 6.13,0.12 12.1,0.79 17.9,1.97 -1.89,3.65 -4.02,7.16 -6.35,10.53 -3.75,-0.77 -7.61,-1.22 -11.55,-1.33 z m -59.58,-13.01 c 3.47,-1.82 7.02,-3.49 10.67,-4.98 1.81,3.77 3.91,7.37 6.24,10.79 -2.9,1.21 -5.73,2.52 -8.5,3.97 -3.09,-2.99 -5.9,-6.27 -8.41,-9.78 z m 98.48,5.82 c 2.33,-3.42 4.42,-7.02 6.24,-10.79 3.65,1.49 7.2,3.15 10.67,4.98 -2.51,3.51 -5.32,6.79 -8.4,9.78 -2.78,-1.45 -5.62,-2.77 -8.51,-3.97 z m -84.77,-11.99 c 4.75,-1.8 9.66,-3.33 14.69,-4.53 1.23,3.9 2.7,7.7 4.39,11.39 -4.37,1.04 -8.63,2.36 -12.78,3.91 -2.37,-3.41 -4.48,-7.01 -6.3,-10.77 z m 68.9,6.85 c 1.68,-3.68 3.15,-7.49 4.39,-11.39 5.02,1.21 9.93,2.73 14.69,4.53 -1.82,3.76 -3.93,7.36 -6.3,10.76 -4.14,-1.54 -8.41,-2.86 -12.78,-3.9 z M 474.91,421 c 7.84,-1.66 15.93,-2.61 24.24,-2.73 v 11.96 c -6.78,0.1 -13.39,0.85 -19.79,2.17 -1.71,-3.68 -3.2,-7.48 -4.45,-11.4 z m 28,9.22 v -11.96 c 8.3,0.12 16.41,1.07 24.24,2.73 -1.26,3.92 -2.74,7.72 -4.45,11.4 -6.41,-1.31 -13.02,-2.06 -19.79,-2.17 z M 434.76,416.4 c 4.4,-1.85 8.9,-3.51 13.48,-4.98 1.02,4.11 2.33,8.09 3.93,11.94 -3.88,1.58 -7.67,3.35 -11.37,5.28 -2.39,-3.85 -4.42,-7.95 -6.04,-12.24 z m 115.11,6.96 c 1.61,-3.84 2.93,-7.83 3.95,-11.94 4.57,1.47 9.07,3.13 13.47,4.98 -1.61,4.28 -3.65,8.38 -6.04,12.23 -3.69,-1.93 -7.48,-3.69 -11.38,-5.27 z m -98.54,-12.91 c 5.5,-1.66 11.12,-3.05 16.83,-4.15 0.57,3.8 1.34,7.52 2.33,11.17 -5.23,1.26 -10.33,2.84 -15.3,4.71 -1.58,-3.78 -2.87,-7.69 -3.86,-11.73 z m 80.24,7.02 c 0.97,-3.65 1.75,-7.37 2.32,-11.17 5.73,1.11 11.33,2.49 16.83,4.15 -0.99,4.04 -2.28,7.96 -3.86,11.73 -4.96,-1.87 -10.05,-3.45 -15.29,-4.71 z m -60.2,-11.77 c 9.03,-1.57 18.32,-2.44 27.78,-2.53 v 10.69 c -8.74,0.13 -17.25,1.11 -25.49,2.87 -0.98,-3.58 -1.74,-7.27 -2.29,-11.03 z m 31.54,8.16 v -10.69 c 9.47,0.09 18.75,0.96 27.78,2.53 -0.55,3.76 -1.33,7.44 -2.29,11.03 -8.24,-1.76 -16.76,-2.74 -25.49,-2.87 z m -72.69,-20.63 h 15.61 c 0.1,4.73 0.59,9.35 1.45,13.86 -4.73,1.52 -9.4,3.22 -13.96,5.14 -1.85,-6.04 -2.93,-12.41 -3.1,-19 z m 18.84,0 h 18.02 c 0.05,2.92 0.22,5.82 0.53,8.68 -5.85,1.12 -11.59,2.53 -17.2,4.22 -0.79,-4.2 -1.25,-8.52 -1.35,-12.9 z m 21.27,0 h 28.81 v 5.53 c -9.65,0.1 -19.11,0.98 -28.33,2.57 -0.26,-2.67 -0.43,-5.37 -0.48,-8.1 z m 32.58,5.52 v -5.53 h 28.81 c -0.06,2.73 -0.22,5.43 -0.48,8.09 -9.22,-1.58 -18.69,-2.46 -28.33,-2.56 z m 31.54,3.16 c 0.3,-2.86 0.48,-5.76 0.52,-8.68 H 553 c -0.11,4.39 -0.57,8.71 -1.34,12.9 -5.63,-1.69 -11.36,-3.1 -17.21,-4.22 z m 20.31,5.18 c 0.87,-4.51 1.37,-9.13 1.48,-13.86 h 15.59 c -0.17,6.59 -1.24,12.96 -3.1,19 -4.56,-1.92 -9.22,-3.62 -13.97,-5.14 z m -83.95,-25.73 c 9.22,1.6 18.68,2.47 28.33,2.57 v 5.53 h -28.81 c 0.06,-2.73 0.22,-5.42 0.48,-8.1 z m 32.1,2.57 c 9.65,-0.1 19.11,-0.98 28.33,-2.57 0.27,2.68 0.43,5.38 0.48,8.1 h -28.81 z m -52.51,-7.37 c 5.62,1.68 11.35,3.09 17.2,4.21 -0.31,2.86 -0.48,5.76 -0.53,8.69 h -18.02 c 0.11,-4.4 0.57,-8.7 1.35,-12.9 z m 84.05,4.21 c 5.85,-1.12 11.59,-2.53 17.21,-4.21 0.78,4.2 1.23,8.49 1.34,12.9 h -18.03 c -0.05,-2.93 -0.23,-5.82 -0.52,-8.69 z m -101.13,-10.3 c 4.56,1.89 9.23,3.61 13.96,5.13 -0.86,4.5 -1.35,9.13 -1.45,13.85 h -15.61 c 0.17,-6.58 1.25,-12.95 3.1,-18.98 z m 121.44,5.13 c 4.75,-1.53 9.41,-3.24 13.97,-5.13 1.86,6.03 2.93,12.4 3.1,18.99 h -15.59 c -0.11,-4.73 -0.61,-9.36 -1.48,-13.86 z m -83.39,1.38 c 0.55,-3.75 1.32,-7.43 2.29,-11.03 8.24,1.77 16.75,2.75 25.49,2.88 v 10.7 c -9.46,-0.11 -18.75,-0.98 -27.78,-2.55 z m 31.54,-8.15 c 8.73,-0.14 17.25,-1.11 25.49,-2.89 0.97,3.6 1.75,7.29 2.29,11.04 -9.03,1.57 -18.31,2.44 -27.78,2.55 z m -51.58,3.41 c 0.99,-4.04 2.28,-7.96 3.85,-11.73 4.98,1.88 10.07,3.45 15.3,4.71 -0.99,3.64 -1.76,7.37 -2.33,11.17 -5.71,-1.11 -11.32,-2.49 -16.82,-4.15 z m 80.24,-7.02 c 5.24,-1.26 10.33,-2.84 15.3,-4.71 1.57,3.78 2.86,7.69 3.86,11.73 -5.51,1.66 -11.11,3.04 -16.83,4.15 -0.58,-3.8 -1.36,-7.53 -2.33,-11.17 z m -96.81,1.07 c 1.62,-4.3 3.65,-8.38 6.04,-12.23 3.69,1.93 7.49,3.69 11.37,5.27 -1.59,3.84 -2.91,7.83 -3.93,11.94 -4.58,-1.47 -9.08,-3.13 -13.48,-4.98 z m 115.11,-6.96 c 3.9,-1.58 7.69,-3.34 11.37,-5.27 2.39,3.85 4.43,7.94 6.04,12.23 -4.4,1.85 -8.9,3.51 -13.47,4.98 -1.01,-4.11 -2.33,-8.1 -3.94,-11.94 z m -74.96,2.35 c 1.25,-3.91 2.74,-7.71 4.45,-11.39 6.4,1.32 13.01,2.07 19.79,2.18 v 11.95 c -8.31,-0.13 -16.4,-1.06 -24.24,-2.74 z m 28,-9.21 c 6.78,-0.11 13.38,-0.86 19.79,-2.18 1.71,3.68 3.2,7.48 4.45,11.39 -7.83,1.68 -15.94,2.61 -24.24,2.74 z m -45.87,3.94 c 1.83,-3.76 3.93,-7.36 6.3,-10.77 4.15,1.57 8.4,2.87 12.78,3.91 -1.69,3.68 -3.16,7.49 -4.39,11.39 -5.04,-1.21 -9.94,-2.72 -14.69,-4.53 z m 68.9,-6.85 c 4.37,-1.04 8.64,-2.35 12.78,-3.91 2.37,3.41 4.48,7.01 6.3,10.77 -4.76,1.8 -9.67,3.32 -14.69,4.53 -1.24,-3.9 -2.71,-7.71 -4.39,-11.39 z m -82.61,0.69 c 2.51,-3.51 5.32,-6.79 8.41,-9.78 2.77,1.44 5.6,2.75 8.5,3.95 -2.34,3.43 -4.42,7.03 -6.24,10.79 -3.64,-1.48 -7.2,-3.14 -10.67,-4.96 z m 98.48,-5.82 c 2.89,-1.2 5.73,-2.52 8.51,-3.95 3.08,2.99 5.9,6.26 8.4,9.78 -3.47,1.81 -7.02,3.48 -10.67,4.97 -1.82,-3.77 -3.91,-7.37 -6.24,-10.8 z m -60.57,2.02 c 1.9,-3.65 4.03,-7.17 6.36,-10.53 3.75,0.76 7.6,1.21 11.55,1.33 v 11.16 c -6.12,-0.12 -12.11,-0.79 -17.91,-1.96 z m 21.67,-9.2 c 3.94,-0.11 7.8,-0.57 11.55,-1.33 2.33,3.36 4.46,6.88 6.35,10.53 -5.8,1.17 -11.77,1.84 -17.9,1.96 z m -36.92,4.81 c 2.78,-3.57 5.86,-6.91 9.2,-9.96 2.9,1.21 5.9,2.23 8.99,3.03 -2.29,3.39 -4.37,6.93 -6.23,10.59 -4.09,-0.97 -8.09,-2.2 -11.96,-3.66 z m 51.88,-6.93 c 3.09,-0.8 6.09,-1.81 8.98,-3.03 3.35,3.05 6.43,6.38 9.22,9.96 -3.88,1.46 -7.88,2.69 -11.97,3.66 -1.87,-3.66 -3.95,-7.2 -6.23,-10.59 z m -62.59,2.14 c 3.93,-3.33 8.22,-6.24 12.82,-8.65 1.27,0.71 2.57,1.4 3.9,2.04 -3.31,3.12 -6.37,6.51 -9.13,10.14 -2.6,-1.06 -5.12,-2.24 -7.59,-3.53 z m 74.77,-6.6 c 1.33,-0.64 2.63,-1.33 3.91,-2.04 4.6,2.41 8.89,5.31 12.82,8.65 -2.47,1.28 -5,2.46 -7.58,3.54 -2.78,-3.64 -5.84,-7.03 -9.15,-10.15 z m -56.94,-4.44 c 8.56,-3.68 18,-5.73 27.92,-5.73 9.92,0 19.35,2.04 27.91,5.73 -8.34,4.37 -17.84,6.87 -27.91,6.87 -10.08,0 -19.58,-2.49 -27.92,-6.87 z m -46.28,65.12 c 0,40.97 33.22,74.18 74.2,74.18 40.97,0 74.2,-33.21 74.2,-74.18 0,-40.98 -33.22,-74.2 -74.2,-74.2 -40.97,0 -74.2,33.22 -74.2,74.2 z"
       id="path118"
       inkscape:connector-curvature="0"
       style="fill:none;stroke:#000000;stroke-width:3.61630011;stroke-linecap:round;stroke-linejoin:round;stroke-miterlimit:2.61299992" /><path
       class="st14"
       d="m 473.12,456.45 c 8.34,-4.38 17.84,-6.86 27.92,-6.86 10.07,0 19.57,2.48 27.91,6.86 -8.56,3.68 -18,5.72 -27.91,5.72 -9.92,0 -19.36,-2.04 -27.92,-5.72 m -17.84,-11.04 c 2.47,-1.28 4.99,-2.46 7.58,-3.55 2.77,3.64 5.83,7.02 9.14,10.15 -1.32,0.64 -2.63,1.32 -3.9,2.04 -4.59,-2.42 -8.89,-5.32 -12.82,-8.64 z m 74.77,6.6 c 3.31,-3.12 6.37,-6.51 9.15,-10.15 2.57,1.08 5.11,2.26 7.58,3.55 -3.93,3.32 -8.22,6.22 -12.81,8.65 -1.29,-0.73 -2.58,-1.41 -3.92,-2.05 z m -64.06,-11.39 c 3.87,-1.46 7.87,-2.69 11.96,-3.67 1.86,3.66 3.94,7.2 6.23,10.59 -3.09,0.81 -6.09,1.82 -8.99,3.04 -3.34,-3.06 -6.42,-6.39 -9.2,-9.96 z m 51.87,6.92 c 2.29,-3.39 4.37,-6.93 6.24,-10.59 4.09,0.98 8.09,2.21 11.97,3.67 -2.79,3.57 -5.87,6.9 -9.22,9.96 -2.9,-1.22 -5.89,-2.23 -8.99,-3.04 z m -36.61,-11.32 c 5.8,-1.17 11.78,-1.84 17.9,-1.96 v 11.17 c -3.95,0.11 -7.8,0.57 -11.55,1.32 -2.33,-3.36 -4.46,-6.87 -6.35,-10.53 z m 21.66,9.22 v -11.17 c 6.13,0.12 12.1,0.79 17.9,1.96 -1.89,3.66 -4.02,7.17 -6.35,10.54 -3.75,-0.77 -7.61,-1.22 -11.55,-1.33 z m -59.57,-13 c 3.47,-1.83 7.02,-3.49 10.68,-4.98 1.81,3.77 3.9,7.37 6.24,10.79 -2.9,1.21 -5.74,2.52 -8.5,3.97 -3.1,-3 -5.93,-6.28 -8.42,-9.78 z m 98.47,5.81 c 2.33,-3.42 4.42,-7.02 6.24,-10.79 3.65,1.49 7.2,3.15 10.67,4.98 -2.5,3.51 -5.32,6.78 -8.4,9.78 -2.77,-1.45 -5.62,-2.77 -8.51,-3.97 z m -84.77,-11.99 c 4.75,-1.8 9.66,-3.33 14.69,-4.53 1.23,3.9 2.7,7.7 4.39,11.39 -4.38,1.03 -8.63,2.35 -12.78,3.91 -2.37,-3.41 -4.47,-7.01 -6.3,-10.77 z m 68.9,6.86 c 1.68,-3.69 3.15,-7.49 4.39,-11.39 5.02,1.21 9.93,2.73 14.69,4.53 -1.83,3.76 -3.93,7.36 -6.3,10.77 -4.14,-1.56 -8.4,-2.88 -12.78,-3.91 z M 474.91,421 c 7.84,-1.67 15.93,-2.62 24.24,-2.74 v 11.96 c -6.78,0.11 -13.39,0.85 -19.79,2.17 -1.71,-3.68 -3.2,-7.48 -4.45,-11.39 z m 28,9.22 v -11.96 c 8.3,0.12 16.41,1.07 24.24,2.74 -1.26,3.91 -2.74,7.71 -4.45,11.39 -6.41,-1.32 -13.01,-2.07 -19.79,-2.17 z m -68.14,-13.83 c 4.4,-1.85 8.89,-3.51 13.47,-4.98 1.01,4.11 2.33,8.1 3.93,11.94 -3.88,1.58 -7.67,3.34 -11.37,5.28 -2.38,-3.85 -4.41,-7.95 -6.03,-12.24 z m 115.11,6.96 c 1.61,-3.84 2.93,-7.83 3.95,-11.94 4.57,1.48 9.07,3.13 13.47,4.98 -1.62,4.28 -3.65,8.38 -6.05,12.23 -3.69,-1.93 -7.47,-3.69 -11.37,-5.27 z m -98.55,-12.9 c 5.5,-1.67 11.12,-3.05 16.83,-4.16 0.57,3.8 1.35,7.52 2.33,11.17 -5.23,1.26 -10.33,2.84 -15.3,4.71 -1.57,-3.77 -2.87,-7.69 -3.86,-11.72 z m 80.24,7.01 c 0.97,-3.65 1.76,-7.37 2.32,-11.17 5.73,1.11 11.34,2.49 16.83,4.16 -0.99,4.03 -2.28,7.95 -3.86,11.72 -4.96,-1.87 -10.05,-3.45 -15.29,-4.71 z m -60.2,-11.77 c 9.03,-1.57 18.32,-2.44 27.78,-2.53 v 10.7 c -8.73,0.13 -17.26,1.11 -25.49,2.88 -0.97,-3.6 -1.74,-7.29 -2.29,-11.05 z m 31.54,8.16 v -10.7 c 9.47,0.09 18.75,0.96 27.78,2.53 -0.55,3.76 -1.33,7.44 -2.29,11.04 -8.24,-1.76 -16.75,-2.74 -25.49,-2.87 z m -72.69,-20.63 h 15.61 c 0.1,4.73 0.59,9.36 1.45,13.86 -4.73,1.52 -9.4,3.22 -13.96,5.14 -1.85,-6.04 -2.93,-12.41 -3.1,-19 z m 18.84,0 h 18.02 c 0.05,2.92 0.22,5.82 0.53,8.68 -5.85,1.12 -11.59,2.53 -17.2,4.22 -0.78,-4.2 -1.24,-8.51 -1.35,-12.9 z m 21.27,0 h 28.81 v 5.53 c -9.65,0.1 -19.11,0.98 -28.33,2.57 -0.26,-2.67 -0.43,-5.37 -0.48,-8.1 z m 32.58,5.52 v -5.53 h 28.81 c -0.05,2.73 -0.21,5.43 -0.48,8.09 -9.22,-1.58 -18.68,-2.46 -28.33,-2.56 z m 31.54,3.16 c 0.3,-2.86 0.48,-5.76 0.52,-8.68 H 553 c -0.11,4.4 -0.57,8.71 -1.35,12.9 -5.61,-1.69 -11.36,-3.1 -17.2,-4.22 z m 20.31,5.18 c 0.87,-4.51 1.37,-9.13 1.48,-13.86 h 15.59 c -0.17,6.6 -1.24,12.96 -3.1,19 -4.55,-1.92 -9.22,-3.62 -13.97,-5.14 z m -83.94,-25.73 c 9.22,1.59 18.68,2.47 28.33,2.57 v 5.53 h -28.81 c 0.05,-2.73 0.21,-5.42 0.48,-8.1 z m 32.09,2.57 c 9.65,-0.1 19.11,-0.98 28.33,-2.57 0.27,2.68 0.43,5.38 0.48,8.1 h -28.81 z m -52.5,-7.37 c 5.62,1.68 11.35,3.09 17.2,4.21 -0.31,2.86 -0.48,5.76 -0.53,8.69 h -18.02 c 0.11,-4.4 0.57,-8.7 1.35,-12.9 z m 84.04,4.21 c 5.84,-1.12 11.59,-2.53 17.21,-4.21 0.78,4.19 1.23,8.5 1.35,12.9 h -18.03 c -0.05,-2.93 -0.23,-5.82 -0.53,-8.69 z m -101.13,-10.3 c 4.56,1.9 9.23,3.61 13.96,5.13 -0.85,4.5 -1.35,9.14 -1.45,13.85 h -15.61 c 0.17,-6.58 1.25,-12.94 3.1,-18.98 z m 121.44,5.13 c 4.75,-1.53 9.41,-3.24 13.97,-5.13 1.86,6.04 2.93,12.4 3.1,18.99 h -15.59 c -0.11,-4.72 -0.61,-9.36 -1.48,-13.86 z m -83.39,1.38 c 0.55,-3.75 1.32,-7.43 2.28,-11.03 8.24,1.77 16.76,2.75 25.49,2.88 v 10.7 c -9.45,-0.11 -18.74,-0.98 -27.77,-2.55 z m 31.54,-8.15 c 8.74,-0.13 17.25,-1.11 25.49,-2.88 0.96,3.59 1.75,7.29 2.29,11.03 -9.03,1.57 -18.31,2.44 -27.78,2.55 z m -51.58,3.41 c 0.99,-4.04 2.28,-7.95 3.85,-11.73 4.98,1.88 10.07,3.45 15.3,4.71 -0.98,3.64 -1.76,7.37 -2.33,11.17 -5.7,-1.1 -11.32,-2.49 -16.82,-4.15 z m 80.24,-7.02 c 5.24,-1.26 10.33,-2.83 15.3,-4.71 1.57,3.78 2.86,7.69 3.86,11.73 -5.5,1.66 -11.11,3.05 -16.83,4.15 -0.57,-3.8 -1.35,-7.53 -2.33,-11.17 z m -96.8,1.07 c 1.62,-4.29 3.65,-8.38 6.04,-12.23 3.69,1.93 7.49,3.69 11.37,5.27 -1.59,3.84 -2.91,7.83 -3.93,11.94 -4.59,-1.47 -9.08,-3.13 -13.48,-4.98 z m 115.11,-6.96 c 3.9,-1.58 7.69,-3.34 11.37,-5.27 2.39,3.85 4.43,7.94 6.05,12.23 -4.4,1.85 -8.9,3.51 -13.47,4.98 -1.03,-4.11 -2.34,-8.1 -3.95,-11.94 z m -74.97,2.36 c 1.25,-3.92 2.74,-7.71 4.45,-11.4 6.4,1.32 13.01,2.07 19.79,2.18 v 11.95 c -8.31,-0.12 -16.4,-1.06 -24.24,-2.73 z m 28,-9.22 c 6.78,-0.11 13.38,-0.86 19.79,-2.18 1.71,3.68 3.19,7.48 4.45,11.4 -7.83,1.67 -15.94,2.61 -24.24,2.73 z m -45.87,3.95 c 1.83,-3.76 3.93,-7.36 6.3,-10.77 4.15,1.57 8.4,2.87 12.78,3.91 -1.69,3.69 -3.16,7.49 -4.39,11.39 -5.03,-1.22 -9.94,-2.73 -14.69,-4.53 z m 68.9,-6.86 c 4.37,-1.04 8.64,-2.34 12.78,-3.91 2.37,3.41 4.47,7.01 6.3,10.77 -4.76,1.8 -9.67,3.32 -14.69,4.53 -1.23,-3.9 -2.7,-7.7 -4.39,-11.39 z m -82.6,0.69 c 2.5,-3.5 5.32,-6.78 8.41,-9.77 2.76,1.44 5.6,2.75 8.5,3.95 -2.34,3.43 -4.42,7.04 -6.24,10.79 -3.65,-1.49 -7.2,-3.15 -10.67,-4.97 z m 98.47,-5.82 c 2.89,-1.2 5.73,-2.52 8.51,-3.95 3.08,2.99 5.9,6.27 8.4,9.77 -3.47,1.82 -7.02,3.49 -10.67,4.98 -1.81,-3.76 -3.91,-7.37 -6.24,-10.8 z m -60.56,2.02 c 1.9,-3.65 4.03,-7.17 6.35,-10.53 3.75,0.76 7.6,1.22 11.55,1.32 v 11.17 c -6.12,-0.12 -12.1,-0.79 -17.9,-1.96 z m 21.66,-9.21 c 3.94,-0.1 7.8,-0.56 11.55,-1.32 2.33,3.36 4.46,6.88 6.35,10.53 -5.8,1.17 -11.77,1.84 -17.9,1.96 z m -36.92,4.82 c 2.78,-3.57 5.86,-6.91 9.2,-9.95 2.91,1.21 5.9,2.23 8.99,3.03 -2.29,3.38 -4.37,6.92 -6.23,10.58 -4.09,-0.97 -8.08,-2.2 -11.96,-3.66 z m 51.87,-6.92 c 3.1,-0.8 6.09,-1.82 8.99,-3.03 3.35,3.04 6.43,6.38 9.22,9.95 -3.88,1.46 -7.88,2.69 -11.97,3.66 -1.86,-3.66 -3.95,-7.2 -6.24,-10.58 z m -62.58,2.13 c 3.93,-3.33 8.22,-6.24 12.82,-8.64 1.27,0.72 2.57,1.4 3.9,2.03 -3.31,3.13 -6.37,6.52 -9.14,10.15 -2.59,-1.07 -5.11,-2.25 -7.58,-3.54 z m 74.77,-6.61 c 1.33,-0.63 2.63,-1.32 3.91,-2.03 4.6,2.41 8.89,5.31 12.81,8.64 -2.47,1.28 -5,2.46 -7.58,3.54 -2.77,-3.63 -5.82,-7.02 -9.14,-10.15 z m -56.93,-4.42 c 8.56,-3.68 18,-5.72 27.92,-5.72 9.91,0 19.35,2.04 27.91,5.72 -8.34,4.37 -17.84,6.86 -27.91,6.86 -10.09,-0.01 -19.59,-2.49 -27.92,-6.86 z m -46.28,65.11 c 0,40.97 33.22,74.18 74.19,74.18 40.97,0 74.2,-33.21 74.2,-74.18 0,-40.98 -33.22,-74.2 -74.2,-74.2 -40.97,0 -74.19,33.22 -74.19,74.2 z"
       id="path120"
       inkscape:connector-curvature="0"
       style="clip-rule:evenodd;fill:#ffffff;fill-rule:evenodd" /><polygon
       class="st17"
       points="431.14,489.72 501,275.05 570.73,489.72 501,439.04 "
       id="polygon122"
       style="clip-rule:evenodd;fill:#002639;fill-rule:evenodd" /><polygon
       class="st18"
       points="431.14,489.72 501,275.05 570.73,489.72 501,439.04 "
       id="polygon124"
       style="fill:none;stroke:#00002c;stroke-width:9.11419964;stroke-linecap:round;stroke-linejoin:round;stroke-miterlimit:2.61299992" /><polygon
       class="st19"
       points="431.16,489.65 501.02,274.98 570.74,489.65 501.02,438.98 "
       id="polygon126"
       style="clip-rule:evenodd;fill:#ccd0d7;fill-rule:evenodd" /><polygon
       class="st14"
       points="501.02,274.98 501.02,438.98 431.16,489.65 "
       id="polygon128"
       style="clip-rule:evenodd;fill:#ffffff;fill-rule:evenodd" /><polygon
       class="st20"
       points="500.88,399.98 500.88,438.98 570.74,489.65 "
       id="polygon130"
       style="clip-rule:evenodd;fill:#dee1e8;fill-rule:evenodd" /><polygon
       class="st21"
       points="501.02,399.98 501.02,438.98 431.16,489.65 "
       id="polygon132"
       style="clip-rule:evenodd;fill:#eaedf4;fill-rule:evenodd" /><path
       class="st18"
       d="M 562.06,393.62 H 562 c -1.3,0.01 -2.99,0.64 -4.95,2.03 -1.54,1.11 -6.16,6.11 -7.47,7.46 -3.01,2.97 -7.49,6.85 -10.95,9.36 -6.11,4.44 -12.53,8.58 -18.9,11.97 -51.56,27.46 -102.67,31.5 -112.24,15.27 -5.33,-9.03 -2.35,-21.89 13.99,-39.29 l -0.4,-3.98 c -17.71,18.19 -23.94,33.46 -17.44,45.76 11.2,21.21 66.01,14.24 119.2,-14.01 7.14,-3.79 13.64,-7.82 18.89,-11.81 3.98,-3.03 7.24,-5.17 11.62,-7.94 3.62,-2.35 6.85,-4.15 9.73,-7.53 2.87,-4.02 2.02,-7.29 -1.02,-7.29 z"
       id="path134"
       inkscape:connector-curvature="0"
       style="fill:none;stroke:#00002c;stroke-width:9.11419964;stroke-linecap:round;stroke-linejoin:round;stroke-miterlimit:2.61299992" /><path
       class="st12"
       d="M 562.06,393.62 H 562 c -1.3,0.01 -2.99,0.64 -4.95,2.03 -1.54,1.11 -6.16,6.11 -7.47,7.46 -3.01,2.97 -7.49,6.85 -10.95,9.36 -6.11,4.44 -12.53,8.58 -18.9,11.97 -51.56,27.46 -102.67,31.5 -112.24,15.27 -5.56,-9.42 -2.09,-22.97 16.13,-41.51 l 0.31,-0.35 -0.25,-4.02 c -19.68,19.35 -26.84,35.48 -20.03,48.37 11.2,21.21 66.01,14.24 119.2,-14.01 7.14,-3.79 13.64,-7.82 18.89,-11.81 3.98,-3.03 7.24,-5.17 11.62,-7.94 3.62,-2.35 6.85,-4.15 9.73,-7.53 2.86,-4.02 2.01,-7.29 -1.03,-7.29 z"
       id="path136"
       inkscape:connector-curvature="0"
       style="fill:none;stroke:#000000;stroke-width:3.46379995;stroke-linecap:round;stroke-linejoin:round;stroke-miterlimit:2.61299992" /><path
       class="st14"
       d="m 562.04,393.65 h -0.06 c -1.3,0.02 -2.99,0.63 -4.95,2.03 -1.54,1.1 -6.16,6.11 -7.47,7.46 -3.01,2.97 -7.49,6.84 -10.95,9.36 -6.11,4.44 -12.53,8.58 -18.9,11.97 -51.56,27.46 -102.67,31.5 -112.24,15.27 -5.56,-9.42 -2.09,-22.97 16.13,-41.51 l 0.31,-0.35 -0.25,-4.02 c -19.68,19.34 -26.85,35.48 -20.04,48.36 11.2,21.22 66,14.24 119.2,-14.01 7.14,-3.79 13.63,-7.82 18.89,-11.81 3.98,-3.03 7.24,-5.17 11.62,-7.94 3.62,-2.35 6.85,-4.15 9.73,-7.53 2.88,-4.01 2.02,-7.28 -1.02,-7.28"
       id="path138"
       inkscape:connector-curvature="0"
       style="clip-rule:evenodd;fill:#ffffff;fill-rule:evenodd" /></g></svg>