<?xml version="1.0" encoding="UTF-8" standalone="no"?>
<!-- Generator: Adobe Illustrator 25.4.1, SVG Export Plug-In . SVG Version: 6.00 Build 0)  -->

<svg
   xmlns:dc="http://purl.org/dc/elements/1.1/"
   xmlns:cc="http://creativecommons.org/ns#"
   xmlns:rdf="http://www.w3.org/1999/02/22-rdf-syntax-ns#"
   xmlns:svg="http://www.w3.org/2000/svg"
   xmlns="http://www.w3.org/2000/svg"
   xmlns:sodipodi="http://sodipodi.sourceforge.net/DTD/sodipodi-0.dtd"
   xmlns:inkscape="http://www.inkscape.org/namespaces/inkscape"
   version="1.1"
   id="Layer_1"
   x="0px"
   y="0px"
   viewBox="0 0 475.2312 548.49115"
   xml:space="preserve"
   sodipodi:docname="USSF_Specialist_1_Flat.svg"
   width="475.2312"
   height="548.49115"
   inkscape:version="0.92.0 r15299"><metadata
     id="metadata29"><rdf:RDF><cc:Work
         rdf:about=""><dc:format>image/svg+xml</dc:format><dc:type
           rdf:resource="http://purl.org/dc/dcmitype/StillImage" /></cc:Work></rdf:RDF></metadata><defs
     id="defs27" /><sodipodi:namedview
     pagecolor="#ffffff"
     bordercolor="#666666"
     borderopacity="1"
     objecttolerance="10"
     gridtolerance="10"
     guidetolerance="10"
     inkscape:pageopacity="0"
     inkscape:pageshadow="2"
     inkscape:window-width="669"
     inkscape:window-height="480"
     id="namedview25"
     showgrid="false"
     inkscape:zoom="0.236"
     inkscape:cx="237.6156"
     inkscape:cy="274.24559"
     inkscape:window-x="0"
     inkscape:window-y="0"
     inkscape:window-maximized="0"
     inkscape:current-layer="Layer_1" /><style
     type="text/css"
     id="style2">
	.st0{fill-rule:evenodd;clip-rule:evenodd;fill:#4B515B;}
	.st1{fill:none;stroke:#000000;stroke-width:1.7312;stroke-linecap:round;stroke-linejoin:round;stroke-miterlimit:2.613;}
	.st2{fill-rule:evenodd;clip-rule:evenodd;fill:#00002C;}
	.st3{fill-rule:evenodd;clip-rule:evenodd;fill:#002639;}
	.st4{fill:none;stroke:#00002C;stroke-width:18.2291;stroke-linecap:round;stroke-linejoin:round;stroke-miterlimit:2.613;}
	.st5{fill-rule:evenodd;clip-rule:evenodd;fill:#CCD0D7;}
	.st6{fill-rule:evenodd;clip-rule:evenodd;fill:#FFFFFF;}
	.st7{fill-rule:evenodd;clip-rule:evenodd;fill:#DEE1E8;}
	.st8{fill-rule:evenodd;clip-rule:evenodd;fill:#EAEDF4;}
</style><polygon
     class="st0"
     points="736.75,363.31 736.75,499.99 736.75,636.68 618.37,705.03 500,773.38 381.62,705.03 263.25,636.68 263.25,499.99 263.25,363.31 381.62,294.97 500,226.62 618.37,294.97 "
     id="polygon4"
     style="clip-rule:evenodd;fill:#4b515b;fill-rule:evenodd"
     transform="translate(-262.3844,-225.75441)" /><polygon
     class="st1"
     points="736.75,363.31 736.75,499.99 736.75,636.68 618.37,705.03 500,773.38 381.62,705.03 263.25,636.68 263.25,499.99 263.25,363.31 381.62,294.97 500,226.62 618.37,294.97 "
     id="polygon6"
     style="fill:none;stroke:#000000;stroke-width:1.73119998;stroke-linecap:round;stroke-linejoin:round;stroke-miterlimit:2.61299992"
     transform="translate(-262.3844,-225.75441)" /><polygon
     class="st2"
     points="716.47,375.01 716.48,375.01 716.48,375.02 716.48,499.99 716.48,624.97 716.47,624.98 608.23,687.47 500,749.96 500,749.96 499.99,749.96 391.76,687.47 283.52,624.98 283.52,624.97 283.52,499.99 283.52,375.02 283.52,375.01 283.52,375.01 391.76,312.52 499.99,250.03 500,250.03 608.23,312.52 "
     id="polygon8"
     style="clip-rule:evenodd;fill:#00002c;fill-rule:evenodd"
     transform="translate(-262.3844,-225.75441)" /><polygon
     class="st1"
     points="716.47,375.01 716.48,375.01 716.48,375.02 716.48,499.99 716.48,624.97 716.47,624.98 608.23,687.47 500,749.96 500,749.96 499.99,749.96 391.76,687.47 283.52,624.98 283.52,624.97 283.52,499.99 283.52,375.02 283.52,375.01 283.52,375.01 391.76,312.52 499.99,250.03 500,250.03 608.23,312.52 "
     id="polygon10"
     style="fill:none;stroke:#000000;stroke-width:1.73119998;stroke-linecap:round;stroke-linejoin:round;stroke-miterlimit:2.61299992"
     transform="translate(-262.3844,-225.75441)" /><polygon
     class="st3"
     points="430.19,607.43 500.06,392.76 569.78,607.43 500.06,556.75 "
     id="polygon12"
     style="clip-rule:evenodd;fill:#002639;fill-rule:evenodd"
     transform="translate(-262.3844,-225.75441)" /><polygon
     class="st4"
     points="430.19,607.43 500.06,392.76 569.78,607.43 500.06,556.75 "
     id="polygon14"
     style="fill:none;stroke:#00002c;stroke-width:18.22909927;stroke-linecap:round;stroke-linejoin:round;stroke-miterlimit:2.61299992"
     transform="translate(-262.3844,-225.75441)" /><polygon
     class="st5"
     points="430.21,607.32 500.07,392.65 569.8,607.32 500.07,556.64 "
     id="polygon16"
     style="clip-rule:evenodd;fill:#ccd0d7;fill-rule:evenodd"
     transform="translate(-262.3844,-225.75441)" /><polygon
     class="st6"
     points="500.07,392.65 500.07,556.65 430.21,607.32 "
     id="polygon18"
     style="clip-rule:evenodd;fill:#ffffff;fill-rule:evenodd"
     transform="translate(-262.3844,-225.75441)" /><polygon
     class="st7"
     points="499.93,517.66 499.93,556.65 569.79,607.32 "
     id="polygon20"
     style="clip-rule:evenodd;fill:#dee1e8;fill-rule:evenodd"
     transform="translate(-262.3844,-225.75441)" /><polygon
     class="st8"
     points="500.07,517.66 500.07,556.65 430.21,607.32 "
     id="polygon22"
     style="clip-rule:evenodd;fill:#eaedf4;fill-rule:evenodd"
     transform="translate(-262.3844,-225.75441)" /></svg>