<svg width="20" height="20" viewBox="0 0 20 20" fill="none" xmlns="http://www.w3.org/2000/svg">
<path d="M10 20C8.68678 20 7.38642 19.7413 6.17317 19.2388C4.95991 18.7362 3.85752 17.9997 2.92893 17.0711C1.05357 15.1957 0 12.6522 0 10C0 7.34784 1.05357 4.8043 2.92893 2.92893C4.8043 1.05357 7.34784 0 10 0C15.5 0 20 4 20 9C20 10.5913 19.3679 12.1174 18.2426 13.2426C17.1174 14.3679 15.5913 15 14 15H12.2C11.9 15 11.7 15.2 11.7 15.5C11.7 15.6 11.8 15.7 11.8 15.8C12.2 16.3 12.4 16.9 12.4 17.5C12.5 18.9 11.4 20 10 20ZM10 2C7.87827 2 5.84344 2.84285 4.34315 4.34315C2.84285 5.84344 2 7.87827 2 10C2 12.1217 2.84285 14.1566 4.34315 15.6569C5.84344 17.1571 7.87827 18 10 18C10.3 18 10.5 17.8 10.5 17.5C10.5 17.3 10.4 17.2 10.4 17.1C10 16.6 9.8 16.1 9.8 15.5C9.8 14.1 10.9 13 12.3 13H14C15.0609 13 16.0783 12.5786 16.8284 11.8284C17.5786 11.0783 18 10.0609 18 9C18 5.1 14.4 2 10 2ZM4.5 8C5.3 8 6 8.7 6 9.5C6 10.3 5.3 11 4.5 11C3.7 11 3 10.3 3 9.5C3 8.7 3.7 8 4.5 8ZM7.5 4C8.3 4 9 4.7 9 5.5C9 6.3 8.3 7 7.5 7C6.7 7 6 6.3 6 5.5C6 4.7 6.7 4 7.5 4ZM12.5 4C13.3 4 14 4.7 14 5.5C14 6.3 13.3 7 12.5 7C11.7 7 11 6.3 11 5.5C11 4.7 11.7 4 12.5 4ZM15.5 8C16.3 8 17 8.7 17 9.5C17 10.3 16.3 11 15.5 11C14.7 11 14 10.3 14 9.5C14 8.7 14.7 8 15.5 8Z" fill="#616161"/>
</svg>
