<svg width="20" height="20" viewBox="0 0 20 20" fill="none" xmlns="http://www.w3.org/2000/svg">
<path d="M10 0C4.5 0 0 4.5 0 10V20H20V10C20 4.5 15.5 0 10 0ZM13.47 5.11C12.75 4.6 11.91 4.24 11 4.09V2.07C12.46 2.25 13.79 2.83 14.9 3.69L13.47 5.11ZM6.53 5.11L5.1 3.69C6.21 2.83 7.54 2.25 9 2.07V4.09C8.09 4.24 7.25 4.6 6.53 5.11ZM3.69 5.1L5.11 6.53C4.6 7.25 4.24 8.09 4.09 9H2.07C2.25 7.54 2.83 6.21 3.69 5.1ZM4 11V13.5H2V11H4ZM2 18V15.5H4V18H2ZM14 18H6V10C6 7.79 7.79 6 10 6C12.21 6 14 7.79 14 10V18ZM14.89 6.53L16.31 5.1C17.17 6.21 17.75 7.54 17.93 9H15.91C15.76 8.09 15.4 7.25 14.89 6.53ZM16 11H18V13.5H16V11ZM16 18V15.5H18V18H16Z" fill="#616161"/>
</svg>
