<svg width="22" height="22" viewBox="0 0 22 22" fill="none" xmlns="http://www.w3.org/2000/svg">
<path d="M7 13.25L3.75 10H6C6.25 4.39 8.39 0 11 0C13 0 14.77 2.64 15.55 6.45C19.36 7.23 22 9 22 11C22 12.83 19.83 14.43 16.6 15.3L16.89 13.27C18.8 12.72 20 11.91 20 11C20 9.94 18.35 9 15.87 8.5C15.95 9.29 16 10.13 16 11C16 17.08 13.76 22 11 22C9.17 22 7.57 19.83 6.7 16.6L8.73 16.89C9.28 18.8 10.09 20 11 20C12.66 20 14 15.97 14 11C14 10 13.95 9.05 13.85 8.15C12.95 8.05 12 8 11 8L9.14 8.06L9.43 6.05L11 6C11.87 6 12.71 6.05 13.5 6.13C13 3.65 12.06 2 11 2C9.46 2 8.18 5.5 8 10H10.25L7 13.25ZM13.25 15L10 18.25V16C4.39 15.75 0 13.61 0 11C0 9.17 2.17 7.57 5.4 6.7L5.11 8.73C3.2 9.28 2 10.09 2 11C2 12.54 5.5 13.82 10 14V11.75L13.25 15Z" fill="#616161"/>
</svg>
