<svg width="20" height="18" viewBox="0 0 20 18" fill="none" xmlns="http://www.w3.org/2000/svg">
<path d="M10 0C11.0609 0 12.0783 0.421427 12.8284 1.17157C13.5786 1.92172 14 2.93913 14 4C14 4.73 13.81 5.41 13.46 6H16C16.95 6 17.75 6.67 17.95 7.56C19.96 15.57 20 15.78 20 16C20 16.5304 19.7893 17.0391 19.4142 17.4142C19.0391 17.7893 18.5304 18 18 18H2C1.46957 18 0.960859 17.7893 0.585786 17.4142C0.210714 17.0391 0 16.5304 0 16C0 15.78 0.0400002 15.57 2.05 7.56C2.25 6.67 3.05 6 4 6H6.54C6.19 5.41 6 4.73 6 4C6 2.93913 6.42143 1.92172 7.17157 1.17157C7.92172 0.421427 8.93913 0 10 0ZM10 2C9.46957 2 8.96086 2.21071 8.58579 2.58579C8.21071 2.96086 8 3.46957 8 4C8 4.53043 8.21071 5.03914 8.58579 5.41421C8.96086 5.78929 9.46957 6 10 6C10.5304 6 11.0391 5.78929 11.4142 5.41421C11.7893 5.03914 12 4.53043 12 4C12 3.46957 11.7893 2.96086 11.4142 2.58579C11.0391 2.21071 10.5304 2 10 2Z" fill="#616161"/>
</svg>
