<svg width="29" height="29" viewBox="0 0 29 29" fill="none" xmlns="http://www.w3.org/2000/svg">
<path d="M9.66667 29V25.7778H6.44444C5.58986 25.7778 4.77027 25.4383 4.16599 24.834C3.56171 24.2297 3.22222 23.4101 3.22222 22.5556V19.3333H0V16.1111H3.22222V12.8889H0V9.66667H3.22222V6.44445C3.22222 5.58986 3.56171 4.77028 4.16599 4.16599C4.77027 3.56171 5.58986 3.22222 6.44444 3.22222H9.66667V1.90735e-06H12.8889V3.22222H16.1111V1.90735e-06H19.3333V3.22222H22.5556C23.4101 3.22222 24.2297 3.56171 24.834 4.16599C25.4383 4.77028 25.7778 5.58986 25.7778 6.44445V9.66667H29V12.8889H25.7778V16.1111H29V19.3333H25.7778V22.5556C25.7778 23.4101 25.4383 24.2297 24.834 24.834C24.2297 25.4383 23.4101 25.7778 22.5556 25.7778H19.3333V29H16.1111V25.7778H12.8889V29H9.66667Z" fill="#616161"/>
</svg>
