<svg width="20" height="22" viewBox="0 0 20 22" fill="none" xmlns="http://www.w3.org/2000/svg">
<path d="M2.15 20.07L3.47 18.19C1.35 16.35 0 13.64 0 10.61C0 7.95783 1.05357 5.4143 2.92893 3.53893C4.8043 1.66357 7.34784 0.61 10 0.61C11.78 0.61 13.44 1.07 14.89 1.88L16.21 0L17.85 1.15L16.53 3.03C18.65 4.87 20 7.58 20 10.61C20 13.2622 18.9464 15.8057 17.0711 17.6811C15.1957 19.5564 12.6522 20.61 10 20.61C8.22 20.61 6.56 20.15 5.11 19.34L3.79 21.22L2.15 20.07ZM10 2.61C7.87827 2.61 5.84344 3.45286 4.34315 4.95315C2.84285 6.45344 2 8.48827 2 10.61C2 12.96 3 15.07 4.63 16.54L13.73 3.53C12.62 2.94 11.35 2.61 10 2.61ZM10 18.61C12.1217 18.61 14.1566 17.7671 15.6569 16.2669C17.1571 14.7666 18 12.7317 18 10.61C18 8.26 17 6.15 15.37 4.68L6.27 17.69C7.38 18.28 8.65 18.61 10 18.61Z" fill="#616161"/>
</svg>
