<?xml version="1.0" encoding="utf-8"?>
<!-- Generator: Adobe Illustrator 26.4.0, SVG Export Plug-In . SVG Version: 6.00 Build 0)  -->
<svg version="1.1" id="Calque_1" xmlns="http://www.w3.org/2000/svg" xmlns:xlink="http://www.w3.org/1999/xlink" x="0px" y="0px"
	 viewBox="0 0 595.3 253.6" style="enable-background:new 0 0 595.3 253.6;" xml:space="preserve">
<style type="text/css">
	.st0{fill:#4C4C4B;}
	.st1{fill:#949696;}
	.st2{fill:#2F2F30;}
	.st3{fill:#858788;}
	.st4{fill:#676868;}
	.st5{fill:#BFC0C1;}
	.st6{fill:#989B9B;}
	.st7{fill:#6F7070;}
	.st8{fill:#6C6D6D;}
	.st9{fill:#737374;}
	.st10{fill:#828283;}
	.st11{fill:#7B7B7C;}
	.st12{fill:#8E9091;}
	.st13{fill:#353635;}
	.st14{fill:#AEABAC;}
	.st15{fill:#D2D0D1;}
	.st16{fill:#D5D4D5;}
	.st17{fill:#929495;}
	.st18{fill:#EAE9EA;}
	.st19{fill:#BAB9BA;}
	.st20{fill:#C2C0C1;}
	.st21{fill:#DEDCDD;}
	.st22{fill:#9A9D9D;}
	.st23{fill:#585856;}
	.st24{fill:#3E403F;}
	.st25{fill:#BBBCBD;}
	.st26{fill:#686869;}
	.st27{fill:#505252;}
	.st28{fill:#535454;}
	.st29{fill:#BD99FF;}
</style>
<g>
	<g>
		<path class="st0" d="M447.4,94.6c0.2-0.1,0.4-0.2,0.6-0.3c0.2-0.1,0.4-0.2,0.5-0.3c0.3-0.2,0.7-0.5,1-0.7c0.4-0.1,0.8-0.2,1.1-0.3
			c0.9-0.5,1.8-1.1,2.8-1.6c3.7-2.1,7.5-4.2,11.2-6.4c2.9-1.7,5.8-3.4,8.7-5.2c1.4-0.9,2.6-1,4-0.1c1.7,1.2,3.5,2.2,5.3,3.2
			c5.4,3.1,10.8,6.2,16.2,9.3c5.5,3.2,11.1,6.5,16.6,9.7c5.7,3.3,11.3,6.5,17,9.8c4.1,2.4,8.2,4.7,12.2,7.1
			c3.7,2.2,7.5,4.3,11.2,6.5c4,2.3,8.1,4.7,12.2,7c2.2,1.3,4.5,2.5,6.7,3.8l0,0c0.3,0.3,0.6,0.6,0.9,0.9c0.2,0.2,0.3,0.4,0.5,0.7
			c-0.4,0.6,0,0.7,0.5,0.7c0.1,0.1,0.2,0.1,0.3,0.2c0,0.2,0,0.3,0,0.5c-0.1,0.6-0.1,1.3-0.2,1.9c-0.1,0.3-0.3,0.6-0.5,0.9
			c-0.3-0.3-0.5-0.6-0.8-0.9c-0.4-0.3-0.9-1-1.1-0.9c-1,0.6-2,1.3-3,2c-0.1,0-0.2,0.1-0.4,0.1c-0.7,0.4-1.4,0.9-2,1.3
			c-0.1,0.5-0.2,0.9-0.4,1.4c0.2,0.5,0.3,1.1,0.6,1.5c0.6,0.8,1.4,1.4,2,2.1c0.4,0.5,0.8,1.1-0.1,1.5c-0.2-0.2-0.5-0.5-0.7-0.7l0,0
			c-0.2-0.2-0.5-0.5-0.7-0.7l0,0c-0.3-0.4-0.6-0.8-1-1.2c-0.2-0.2-0.3-0.3-0.5-0.5c-0.2-0.2-0.5-0.5-0.7-0.8l0,0
			c-0.8-1.7-0.9-1.7-2.4-0.8c-0.9,0.5-1.8,1.1-2.7,1.7c-0.4,0.3-0.8,0.7-1.2,1c-0.2,0.1-0.5,0.2-0.8,0.3c-0.4,0.3-0.7,0.7,0,1.1
			c0,0.1,0.1,0.1,0.1,0.2c0.1,0.2,0.2,0.5,0.2,0.7c0,0.3,0,0.8,0.2,1c0.6,0.7,1.3,1.4,1.8,2.1c0.2,0.3,0.1,0.8,0.2,1.2
			c-0.2,0-0.3,0-0.5-0.1c-1.1-1.3-2.3-2.7-3.4-4c-0.2-0.2-0.3-0.3-0.5-0.5c-0.1,0-0.1-0.1-0.2-0.1c-0.1-0.2-0.2-0.4-0.3-0.6
			c-0.8,0.5-1.5,1.1-2.3,1.6h0c-1.4,0.4-2.7,0.9-3.6,2.1l0,0c-0.8,0.1-0.6,0.5-0.3,0.9c0.2,0.5,0.4,1.1,0.7,1.5
			c0.6,0.8,1.4,1.4,1.9,2.2c0.2,0.4,1,1-0.1,1.4c-1.3-1.5-2.7-2.9-4-4.4c-0.2-0.1-0.3-0.2-0.5-0.2c-0.2,0-0.3,0-0.5,0
			c-0.9,0.6-1.9,1.2-2.8,1.7l0,0c-0.5,0.3-1,0.6-1.5,0.9c-0.4,0.2-0.7,0.4-1.1,0.6c-0.2,0.2-0.7,0.4-0.7,0.5c0.3,0.7,0.5,1.5,1,2.1
			c0.6,0.9,1.4,1.6,2.1,2.4c0.6,0.6,0.4,0.9-0.3,1.2c-0.1,0-0.1,0-0.2,0c-0.3-0.4-0.6-0.7-0.9-1.1c-0.4-0.4-0.7-0.9-1.1-1.3
			c-0.2-0.2-0.4-0.4-0.6-0.6c-0.2-0.2-0.3-0.3-0.5-0.5l0,0c-0.1-0.2-0.3-0.4-0.4-0.5l0,0c-0.2-0.2-0.3-0.3-0.5-0.5l0,0
			c-0.4-0.1-0.8-0.3-1.1-0.1c-1.1,0.5-2.1,1.2-3.2,1.8c-0.6,0.4-1.2,0.9-1.8,1.4c-0.1,0-0.1,0.1-0.2,0.1c-1,0.2-0.5,0.7-0.3,1.2
			c0.3,0.6,0.5,1.1,0.9,1.6c0.7,0.9,1.5,1.6,2.2,2.5c0.4,0.6,0.6,1.1-0.5,1.1c-1-1.2-2.1-2.3-3.1-3.5c-0.3-0.4-0.6-0.7-0.9-1.1l0,0
			c-0.2-0.8-0.7-0.8-1.2-0.5c-1.8,1-3.6,2-5.4,3.1c-0.5,0.3-0.9,1-0.1,1.6c0.2,0.5,0.3,1.1,0.6,1.5c0.7,0.8,1.5,1.5,2.1,2.3
			c0.4,0.5,0.9,1.1-0.3,1.2c0,0-0.1,0-0.2,0c-0.3-0.4-0.5-0.8-0.8-1.1c-0.2-0.2-0.3-0.3-0.4-0.5c-0.4-0.5-0.8-0.9-1.2-1.4
			c-0.2-0.2-0.5-0.5-0.7-0.8c-0.2-0.2-0.5-0.5-0.7-0.8c0-0.5-0.1-0.7-0.7-0.4c-1.6,0.9-3.3,1.8-4.9,2.8c-0.3,0.2-0.4,0.5-0.6,0.8
			c-0.1,0.2-0.2,0.5-0.3,0.7c-0.2,1.6,1.1,2.2,1.8,3.2c0.5,0.7,1.1,1.4,1.6,2.1c-0.1,0.1-0.2,0.1-0.3,0.2c-0.3-0.1-0.7-0.3-1-0.4
			c-0.2-0.2-0.5-0.5-0.7-0.7c-0.5-0.5-0.9-1-1.3-1.5c0-0.1,0-0.1-0.1-0.2c-0.5-0.9-1-2.3-2.1-2.1c-1.2,0.3-2.2,1.3-3.3,2
			c-0.1,0-0.1,0-0.2,0.1c-0.3,0.1-0.5,0.3-0.8,0.4c-1.8,0.3-2.3,1.1-1.8,2.4c0.1,0.2,0.2,0.4,0.4,0.6c0.8,0.9,1.6,1.8,2.5,2.7
			c0.7,0.8,0.6,1.2-0.3,1.5c-0.5-0.6-1-1.2-1.4-1.8c-0.2-0.2-0.3-0.3-0.5-0.5c-0.1-0.1-0.1-0.2-0.2-0.2c-0.2-0.2-0.3-0.3-0.5-0.5
			c-0.5-0.6-1-1.1-1.4-1.7c-0.2-0.8-0.7-0.5-1.1-0.2c-1.4,0.8-2.8,1.6-4.3,2.4c-1.6,0.9-1.8,1.5-1.1,3c0.1,0.3,0.4,0.6,0.6,0.8
			c0.6,0.6,1.3,1.2,1.8,1.9c0.5,0.6,1,1.2-0.1,1.8c-1.4-1.6-2.9-3.3-4.3-4.9c-0.1-0.1-0.2-0.3-0.3-0.4c-0.1,0.1-0.3,0.3-0.4,0.4
			c-0.1,0.1-0.2,0.1-0.4,0.1c-0.3,0.2-0.6,0.4-0.9,0.6c-0.1,0-0.2,0.1-0.4,0.1c-1,0.5-2,1.2-3.1,1.5c-1.5,0.4-1.4,1.4-1,2.4
			c0.1,0.4,0.4,0.7,0.6,1c0.7,0.8,1.5,1.4,2.2,2.2c0.4,0.5,0.8,1.2-0.4,1.3c-1.1-1.3-2.1-2.5-3.2-3.8c-0.2-0.2-0.5-0.5-0.7-0.8l0,0
			c-0.1-0.7-0.5-0.8-1-0.4c-1.1,0.6-2.2,1.3-3.2,1.9c-0.5,0.3-0.9,0.7-1.3,1.1c-0.4,0.3-0.7,0.5-1,0.8c-0.2,0.2-0.4,0.3-0.6,0.5
			c-0.3,0.1-0.7,0.3-1,0.4c-0.5,0.2-1.1,0.4-1.6,0.5c0-1-0.1-1.9,0-2.9c0.1-1.1-0.5-1.6-1.4-1.9c-0.2-0.1-0.5-0.1-0.6-0.3
			c-3.1-1.8-6.2-3.7-9.3-5.5c-3-1.8-6.1-3.4-9.1-5.1c-3.4-2-6.8-4.1-10.2-6.1c-3.5-2-7.1-4-10.6-6c-4.8-2.8-9.5-5.6-14.3-8.4
			c-4.4-2.6-8.8-5-13.2-7.6c-5-2.9-10-5.8-15-8.7c-4.4-2.6-8.9-5.1-13.3-7.7c-0.6-0.4-1.3-0.6-1.9-0.8c0.3-0.3,0.5-0.6,0.9-0.8
			c2.5-1.5,5-3,7.5-4.4c4.1-2.4,8.2-4.7,12.2-7.1c4.2-2.4,8.4-4.8,12.6-7.3c4.1-2.4,8.1-4.8,12.2-7.1c4.5-2.6,9.1-5.2,13.6-7.8
			c0.4-0.2,0.7-0.6,1.1-0.8c0.3-0.2,0.6-0.5,1-0.7c0.2-0.1,0.4-0.2,0.6-0.3c0.2-0.1,0.4-0.2,0.5-0.3c0.2,0,0.3-0.1,0.5-0.1
			C447,94.9,447.2,94.8,447.4,94.6z M559.5,133.1c0.3,0,0.6-0.1,0.9-0.1c-1.5-2.3-3-3.2-5.5-3.2c-0.6,0-1.3,0.1-1.9,0
			c-1.7-0.2-3,0.6-4.3,1.4c-0.5,0.3-0.8,0.6,0,0.8c-0.2,0.2-0.3,0.5-0.5,0.8c-1.1,1.4-1.4,2.3-0.3,3.2c0.9,0.8,2.2,1.3,3.4,1.8
			c1.6,0.6,3.4,0.4,5,0c1.2-0.4,2.4-1.3,3.4-2.1C560.7,134.7,559.8,133.9,559.5,133.1z"/>
		<path class="st1" d="M476.2,203.6c0,1,0,2,0,3c-0.7,0.4-1.4,0.9-2.1,1.3c-1.5,0.8-3,1.5-4.4,2.3c0-1.4-1.3-1.4-2.1-2
			c-1.2-0.9-2.5-1.6-3.8-2.4c0.6-0.4,1.2-0.8,1.8-1.2c0.8-0.6,2-0.7,2.4-2.2c-0.7,0.2-1.2,0.4-1.8,0.6c-0.2-0.3-0.4-0.6-0.6-0.9
			c-0.2-0.3-0.4-0.5-0.6-0.8c0.4,0.1,0.8,0.3,1.4,0.5c0-3.2,0-6.2,0-9.2c0-0.2-0.3-0.5-0.5-0.7c-1.5-0.9-3.1-1.8-4.7-2.8
			c-0.4-0.2-0.5-0.7-0.8-1.1c0.2-0.4,0.4-0.8,0.7-1.1c0.8-1,1.7-1.9,2.5-2.9h0.1l0.1,0c0.1-0.2,0.3-0.3,0.5-0.5l0,0
			c0.3-0.1,0.5-0.1,0.8-0.1c0.2,0.1,0.4,0.1,0.6,0.2c0.6,0.4,1.1,0.8,1.7,1.1c0.2,0,0.4,0.1,0.6,0.1c0.6,0.4,1.1,0.9,1.7,1.3
			c1.3,0.9,1.5,2,0.5,3.1c-0.7,0.9-1.4,1.7-2.2,2.6c-0.1,0.3-0.4,0.7-0.4,1c0.2,3.3,0.4,6.5,0.7,9.8c0,0.3,0.3,0.6,0.5,0.7
			c1.5,1,3.1,2,4.7,2.9c0.9,0.5,1.2,0.3,1.3-0.7c0-2.5,0.1-5,0-7.5c0-0.5-0.5-1.1-0.9-1.4c-1.5-1-3.2-1.8-4.7-2.7
			c-0.4-0.2-0.5-0.8-0.8-1.2c1-1.1,1.9-2.2,2.9-3.3c0-0.1,0-0.2,0-0.3v0c0.4-0.3,0.8-0.7,1.2-1c0.3,0,0.7,0,0.9,0.1
			c1.7,1,3.4,2.1,5.1,3.1c1,0.6,0.9,1.3,0.3,2.1c-0.6,0.8-1.3,1.5-2,2.2c-0.3,0.3-0.5,0.8-0.7,1.1
			C476.2,198.9,476.2,201.3,476.2,203.6z"/>
		<path class="st2" d="M476.2,203.6c0-2.3,0-4.6,0-6.9c0.7-0.6,1.4-1.2,2-1.8c1-0.9,1.8-2,1.5-3.5c2.4,0.4,3.4,1.6,3.4,3.9
			c0,2.8,0,5.7,0,8.5c0,0.4,0.1,0.8,0.2,1.2c0,0.1,0,0.2,0,0.2c0.3,0.5,0.5,1,0.8,1.4c0,0.1,0,0.1,0.1,0.2c-0.1,0-0.3,0.1-0.4,0.1
			c-0.2,0-0.4-0.1-0.5-0.1c-0.2,0-0.3,0-0.5,0c-0.6-0.2-1.2-0.4-1.7-0.6c-0.2-0.1-0.4-0.3-0.6-0.4c-0.4-0.3-0.9-0.5-1.3-0.8
			c-0.1-0.1-0.3-0.1-0.4-0.1c-0.7-0.4-1.4-0.8-2-1.2C476.6,203.7,476.4,203.6,476.2,203.6z"/>
		<path class="st3" d="M579.2,146.3c0,3,0.1,6,0.1,9c0,0.1-0.1,0.2-0.1,0.3c-1.7,1-3.5,2-5.2,3c-0.2,0.1-0.2,0.5-0.3,0.8
			c-0.3-0.3-0.8-0.6-0.8-1c0-3,0-6.1,0.1-9.1c0.2-0.2,0.3-0.3,0.5-0.5c1-0.6,2-1.3,3-1.9c0.6-0.3,1.3-0.6,1.9-0.8
			C578.7,146.2,578.9,146.3,579.2,146.3z"/>
		<path class="st4" d="M379,150.3c0-0.5,0-0.9,0.1-1.4c0.1-0.4,0.4-0.9,0.4-1.3c0-2-0.2-4-0.3-6.1c2,1.1,4,2.1,5.9,3.2
			c0.2,0.1,0.4,0.6,0.4,0.9c0,2.6,0,5.3,0,7.9c0,0.9-0.4,0.8-1,0.5c-0.1,0-0.3,0-0.4,0c-1.4-0.9-2.8-1.7-4.1-2.6c-0.1,0-0.3,0-0.4,0
			c-0.2-0.2-0.3-0.3-0.5-0.5C379,150.8,379,150.6,379,150.3z"/>
		<path class="st5" d="M578.4,146.2c-0.7,0.3-1.3,0.5-1.9,0.8c-1,0.6-2,1.2-3,1.9c-0.3,0-0.5,0-0.8,0.1c-0.4-0.3-0.8-0.6-1.1-1
			c-1-1-2-2-3-3c0.1-0.5,0.2-0.9,0.4-1.4c0.7-0.4,1.4-0.9,2-1.3c0.1,0,0.2-0.1,0.4-0.1c1-0.5,2.1-1.1,3.2-1.6
			c0.3,0.1,0.6,0.3,0.9,0.5c0.3,0.3,0.5,0.6,0.8,0.9c0.2,0.6,0.7,0.8,0.8,0.1c0.1-0.9-0.1-2-0.2-2.9c0-0.2,0-0.3,0-0.5
			c0.2,0.4,0.6,0.8,0.6,1.2c0.1,1-0.2,2.1,0,3.1c0.1,0.6,0.6,1.1,0.9,1.7c0.3,0.4,0.6,0.8,0.9,1.2
			C578.9,145.9,578.7,146.1,578.4,146.2z"/>
		<path class="st6" d="M559.7,172.9c0,0.1,0,0.3,0,0.4c-0.7,0.6-1.4,1.1-2.1,1.7c-0.1,0-0.3,0.1-0.4,0.1c-0.6,0.4-1.2,0.8-1.7,1.1
			c-0.1,0-0.3,0.1-0.4,0.1c-0.3,0.2-0.5,0.4-0.8,0.6c-0.1,0-0.3,0.1-0.4,0.1c-0.4-0.1-0.8-0.1-1.3-0.2c0.2-0.1,0.5-0.2,1-0.4
			c-1.8-1.1-3.3-2.1-4.8-3.1c0.2-0.2,0.3-0.4,0.5-0.5c1.8-1,3.5-2.1,5.3-3.1C556.2,170.8,558,171.8,559.7,172.9z"/>
		<path class="st7" d="M497,192.5c1.2-0.1,0.8-0.8,0.4-1.3c-0.7-0.8-1.5-1.5-2.2-2.2c-0.3-0.3-0.5-0.6-0.6-1c-0.4-1.1-0.5-2,1-2.4
			c1.1-0.3,2.1-1,3.1-1.5c-1,0.7-2,1.4-3.1,2c-0.9,0.5-1,1.1-0.4,1.7c1.3,1.4,2.6,2.7,3.9,4.1c0.1,0.6,0.2,1.2,0.2,1.8
			c0,2.4-0.1,4.8-0.2,7.1c0,0.9,0.3,1.4,1.2,1.6c0.9,0.4,1.7,0.8,2.6,1.2c0.2,0.2,0.5,0.5,0.7,0.7c0.1,0,0.3,0,0.5,0
			c0,0.3,0,0.6,0,1c-0.2,0.1-0.5,0.1-0.8,0.2c-0.1,0-0.1,0-0.2-0.1c-1.8-1.1-3.7-2.2-5.5-3.2c0-0.7,0-1.5-0.1-2.2
			c0-0.3-0.5-0.5-0.7-0.8c0-1.9,0-3.9,0-5.8C496.9,193.1,497,192.8,497,192.5z"/>
		<path class="st7" d="M505.4,188.1c1.1-0.5,0.6-1.2,0.1-1.8c-0.5-0.7-1.2-1.2-1.8-1.9c-0.2-0.2-0.5-0.5-0.6-0.8
			c-0.7-1.6-0.5-2.2,1.1-3c1.4-0.8,2.8-1.6,4.3-2.4c0.4-0.2,0.9-0.6,1.1,0.2c-0.3,0.1-0.6,0.1-0.8,0.2c-1.6,0.9-3.2,2-4.8,2.8
			c-1.1,0.5-0.9,0.9-0.3,1.6c1.2,1.3,2.3,2.7,3.5,4.1c0.2,0.6,0.5,1.2,0.5,1.9c0,2.5-0.1,5-0.1,7.5c0,0.2,0.4,0.4,0.6,0.7
			c1.6,1,3.2,1.9,4.8,2.9c0.1,0.1,0.2,0.2,0.2,0.2c-0.1,0.1-0.2,0.1-0.3,0.2c-0.2,0-0.5,0.1-0.8,0.1c-0.1,0-0.3,0.1-0.5,0.1
			c-0.2-0.1-0.4-0.1-0.7-0.2c-1-0.7-2-1.4-3-2.1c-0.6-0.4-1.2-0.9-1.9-1.3c-0.2-1.1-0.3-2.1-0.5-3.1c0.2-0.1,0.7-0.2,0.7-0.3
			c0.1-0.9,0.1-1.8,0-2.7c0-0.1-0.5-0.2-0.7-0.3c-0.1-0.7-0.2-1.4-0.3-2l0,0C505.3,188.4,505.3,188.3,505.4,188.1z"/>
		<path class="st6" d="M573.7,159.5c0.1-0.3,0.1-0.7,0.3-0.8c1.7-1,3.4-2,5.2-3c1,0.5,2,1.1,3,1.6c0.1,0,0.3,0.1,0.4,0.1
			c0.4,0.4,0.8,0.8,1.2,1.2c-2.2,0.6-4,1.8-5.8,3.2C576.5,160.9,575.1,160.2,573.7,159.5z"/>
		<path class="st7" d="M573.7,159.5c1.4,0.7,2.9,1.5,4.3,2.2c0,0.1,0,0.1,0,0.2c0,0.1,0,0.3,0,0.5c-0.3,0.1-0.6,0.2-0.8,0.4
			c-0.2,0-0.4-0.1-0.6-0.1c-0.8-0.8-1.7-1.2-2.9-1.2c-0.1-0.2-0.2-0.6-0.4-0.7c-0.6-0.5-1.2-0.9-1.9-1.4c0-0.9-0.1-1.8-0.1-2.7
			c-0.2-0.5-0.5-0.9-0.5-1.4c0-1.7,0.1-3.4,0.2-5c0.9-0.4,0.5-1,0.1-1.5c-0.7-0.7-1.4-1.4-2-2.1c-0.3-0.4-0.4-1-0.6-1.5c1,1,2,2,3,3
			c0.4,0.4,0.8,0.7,1.1,1c0.1,0.1,0.2,0.3,0.3,0.4c0,3-0.1,6.1-0.1,9.1C572.9,158.8,573.4,159.1,573.7,159.5z"/>
		<path class="st8" d="M529.8,173.6c1.2-0.1,0.7-0.7,0.3-1.2c-0.7-0.8-1.5-1.5-2.1-2.3c-0.3-0.4-0.4-1-0.6-1.5c0.1,0,0.2,0,0.3,0
			c1.3,1.4,2.7,2.9,4,4.4c0,2.9,0,5.7,0.1,8.6c0,0.6,0.3,1.4,0.8,1.8c1.2,0.8,2.5,1.4,3.8,2.1c0.2,0,0.3,0,0.5,0c0,0.4,0,0.8,0,1.2
			c-0.2,0-0.3,0.1-0.5,0.1c-0.4-0.2-0.8-0.4-1.2-0.6c-1.5-0.9-3.1-1.8-4.7-2.7c0-1-0.1-2-0.1-3c-0.2-0.7-0.4-1.4-0.5-2
			C529.8,176.7,529.8,175.1,529.8,173.6z"/>
		<path class="st9" d="M568.8,167.7c-0.3-0.2-0.6-0.4-0.9-0.6c-1.6-0.9-3.2-1.9-4.8-2.8c0-0.7-0.2-1.4-0.1-2.1
			c0-0.6,0.2-1.1-0.7-1.1c0-0.7-0.8-1.6,0.5-1.9c0,0.8,0.1,1.6,1.2,1.9c0-2.3,0-4.5,0-6.7c0.2,0.4,0.6,0.7,0.7,1.1
			c0.1,1.3,0.1,2.6,0,3.9c0,0.9,0,1.9-0.3,2.8c-0.3,1.1-0.1,1.8,1,2.1c1.3,0.7,2.6,1.4,3.8,2.1c0.2,0.4,0.3,0.8,0.5,1.2
			C569.5,167.6,569.2,167.6,568.8,167.7z"/>
		<path class="st4" d="M490.6,207.4c-0.3-0.2-0.6-0.4-1-0.6c0-0.1,0-0.2,0-0.4c0-0.7,0.1-1.4,0.2-2.2c-0.1-0.1-0.2-0.3-0.3-0.4
			c-0.1,0-0.1-0.1-0.2-0.1c0-0.5,0-0.9,0-1.4c0-1.5,0-3,0-4.6c0.1-1.1-0.2-2-1.2-2.7c-0.6-0.4-1-1.1-1.5-1.6c0-0.3,0-0.6,0-1
			c0.2,0,0.3,0,0.5,0c0.4,0.5,0.8,0.9,1.2,1.4c0.2,0.2,0.5,0.5,0.7,0.7c0.2,0.3,0.5,0.6,0.7,0.9c0.2,0.3,0.5,0.5,0.7,0.8
			c0.1,0.1,0.2,0.2,0.2,0.2c-0.1,0.1-0.2,0.2-0.2,0.3c0,3,0,6,0,8.9c0,0.2,0.4,0.4,0.7,0.6c0,0.1,0,0.3,0,0.5
			C491,207.1,490.8,207.2,490.6,207.4z"/>
		<path class="st10" d="M396.3,167.9c-1.7-0.9-3.3-1.8-5-2.8c-0.4-0.4-0.8-0.9-1.2-1.3c0.2-0.2,0.4-0.5,0.6-0.7c1.7,1,3.3,2.1,5,3
			c0.7,0.4,1,0.7,0.9,1.5C396.6,167.7,396.4,167.8,396.3,167.9z"/>
		<path class="st11" d="M382.2,158.6c0-0.1,0-0.1,0.1-0.2c2.1,1.2,4.2,2.3,6.2,3.5c0.2,0.1,0.2,0.4,0.3,0.6c0,0.2-0.1,0.4-0.1,0.5
			l0,0.1c-1-0.5-2-0.9-3-1.4c-0.1-0.1-0.2-0.2-0.4-0.3c0,0,0,0,0,0c-0.4-0.2-0.8-0.5-1.2-0.7c-0.2-0.1-0.4-0.1-0.5-0.2
			c-0.5-0.4-0.9-0.8-1.3-1.3C382.2,159.1,382.2,158.9,382.2,158.6z"/>
		<path class="st1" d="M502.1,205.5c0,0.5-0.1,0.9-0.1,1.4c-0.7,0.4-1.5,0.7-2.2,1.2c-0.7,0.4-1.3,0.9-2,1.4c-0.1,0-0.3,0.1-0.4,0.1
			c-0.4,0.1-0.8,0.3-1.2,0.4c-0.2-0.4-0.3-0.8-0.5-1.2c1.5-0.9,3.1-1.7,4.7-2.6c0.4-0.2,0.7-0.5,1.1-0.8
			C501.7,205.5,501.9,205.5,502.1,205.5z"/>
		<path class="st10" d="M404.1,172.5c-1.9-1.1-3.8-2.3-5.7-3.5c0.1-0.3,0.3-0.6,0.4-1c1.9,1.1,3.8,2.1,5.7,3.2
			c0.3,0.2,0.4,0.6,0.6,0.9C404.8,172.3,404.5,172.4,404.1,172.5z"/>
		<path class="st11" d="M428.6,186.6c-1.8-1-3.5-2.1-5.3-3.1c-0.7-0.4-0.9-0.8-0.6-1.5c0.3-0.1,0.5-0.2,0.8-0.2
			c0.2,0.3,0.3,0.7,0.6,0.9c0.5,0.4,1,0.7,1.5,0.9c1.1,0.6,2.3,1.2,3.4,1.7c0,0.4,0,0.8,0,1.2C428.9,186.6,428.8,186.6,428.6,186.6z
			"/>
		<path class="st12" d="M524.7,193.9c-0.1,0-0.3,0.1-0.4,0.1c-0.2,0.1-0.4,0.1-0.5,0.2c-1.1,0.5-2.1,1-3.2,1.5
			c-0.2-0.4-0.4-0.8-0.6-1.2c0.5-0.1,1,0,1.4-0.2c1.7-0.9,3.3-1.9,4.9-2.8c0.1,0,0.2,0,0.2,0.1c0.1,0.3,0.1,0.6,0.2,0.9
			c-0.2,0.2-0.4,0.4-0.7,0.6C525.6,193.3,525.1,193.6,524.7,193.9z"/>
		<path class="st1" d="M531.4,190c-0.1,0-0.3,0.1-0.4,0.1c-0.2,0.1-0.5,0.1-0.8,0.2c-0.6-0.1-1.1-0.1-1.7-0.2c0-0.1,0-0.1,0-0.2
			c0.7-0.4,1.4-0.9,2.1-1.2c1.3-0.7,2.6-1.3,4-1.9c0.1,0.4,0.1,0.8,0.2,1.2c-0.1,0-0.1,0.1-0.2,0.1c-0.7,0.4-1.3,0.9-2,1.3
			c-0.1,0-0.3,0.1-0.4,0.1C531.9,189.6,531.7,189.8,531.4,190z"/>
		<path class="st1" d="M564.3,171c-0.2,0-0.4,0.1-0.7,0.1c-0.2-0.2-0.3-0.4-0.5-0.5c-0.2,0.4-0.3,0.7-0.5,1.1
			c-0.2,0.1-0.3,0.2-0.5,0.3c-0.2-0.3-0.5-0.6-0.7-0.9c1.6-0.9,3.2-1.8,4.7-2.7c-0.1-0.4-0.1-0.8-0.2-1.1c0.6,0.6,2,0.6,1.4,1.9
			c-0.8,0.5-1.6,1-2.4,1.4C564.8,170.6,564.6,170.8,564.3,171z"/>
		<path class="st11" d="M448,198.1c-0.2-0.1-0.3-0.1-0.5-0.2c-0.2-0.2-0.4-0.4-0.6-0.6c0-0.3,0-0.6-0.1-0.9c0.2,0,0.4,0,0.6-0.1
			c1.8,1.1,3.5,2.1,5.2,3.1c0.6,0.4,0.8,0.8,0.5,1.4c-0.1,0-0.3,0-0.5,0.1c-0.2-0.2-0.5-0.3-0.7-0.5c-0.2-0.1-0.5-0.3-0.7-0.5
			c-1-0.6-1.9-1.1-2.9-1.7C448.4,198.2,448.2,198.1,448,198.1z"/>
		<path class="st13" d="M489.3,202.4c0,0.5,0,0.9,0,1.4c-0.1,0-0.1,0-0.2,0.1c-0.2,0.1-0.3,0.3-0.5,0.4c0,0.1-0.1,0.1-0.2,0.1
			c-0.7,0.4-1.4,0.8-2,1.3c-0.1,0.1-0.3,0.1-0.4,0.2c-0.6,0.3-1.2,0.6-1.9,0.9c-0.3-0.5-0.5-1-0.8-1.4c0.3,0,0.6,0.1,0.8,0
			c1.5-0.9,2.9-1.8,4.4-2.6C488.7,202.5,489,202.4,489.3,202.4z"/>
		<path class="st12" d="M569.8,167.6c-0.2-0.4-0.3-0.8-0.5-1.2c0.6-0.4,1.3-0.7,1.9-1.1c1.3-0.7,2.6-1.4,3.9-2.1
			c1.1,0.2,0.3,0.8,0.3,1.2c-0.4,0.2-0.7,0.4-1.1,0.6C572.9,165.9,571.4,166.7,569.8,167.6z"/>
		<path class="st11" d="M463.9,205.8c1.3,0.8,2.5,1.5,3.8,2.4c0.8,0.6,2,0.6,2.1,2c-0.2,0.1-0.4,0.1-0.5,0.2c-0.1,0-0.2-0.1-0.4-0.1
			c-0.2-0.2-0.4-0.3-0.6-0.5c-0.2-0.1-0.3-0.1-0.5-0.2c-0.3-0.2-0.6-0.4-1-0.6c-0.4-0.2-0.9-0.4-1.3-0.7c-0.6-0.4-1.1-0.7-1.7-1.1
			c-0.5-0.4-0.9-0.8-0.4-1.4C463.5,205.7,463.7,205.7,463.9,205.8z"/>
		<path class="st11" d="M413.1,176.7c-0.3,0.2-0.5,0.3-0.8,0.5c-1-0.6-1.9-1.1-2.9-1.7c-0.6-0.3-1.1-0.6-1.7-0.9
			c-0.2-0.1-0.3-0.1-0.5-0.2c-0.2-0.5-0.5-1-0.7-1.5c1,0.5,2.1,0.9,3,1.5C410.8,175.1,411.9,175.9,413.1,176.7z"/>
		<path class="st11" d="M457.1,203.3c-0.2-0.1-0.5-0.2-0.7-0.3c-0.3-0.2-0.6-0.4-0.8-0.7c-0.2-0.4-0.2-0.9-0.3-1.3
			c0.6,0.3,1.2,0.7,1.9,1c1.3,0.7,2.6,1.4,4,2.2c0.1,0.4,0.2,0.9,0.3,1.3c-0.4-0.1-0.8-0.2-1.2-0.4c-0.9-0.6-1.8-1.1-2.6-1.6
			C457.5,203.5,457.3,203.4,457.1,203.3z"/>
		<path class="st1" d="M578,161.9c0-0.1,0-0.1,0-0.2c1.8-1.4,3.6-2.6,5.8-3.2c0.1,0.2,0.2,0.5,0.2,0.7c-1.2,0.8-2.4,1.6-3.6,2.4
			c-0.2,0-0.3,0-0.5,0C579.3,161.7,578.6,161.8,578,161.9z"/>
		<path class="st11" d="M437.5,191.1c-0.2,0.1-0.5,0.2-0.8,0.3c-0.3-0.2-0.6-0.4-0.9-0.6c-0.7-0.4-1.5-0.9-2.2-1.3
			c-0.1-0.1-0.3-0.1-0.4-0.1c-0.3-0.2-0.6-0.4-0.8-0.5c-0.2-0.1-0.4-0.1-0.6-0.1c-0.3-0.2-0.5-0.4-0.8-0.6c0,0-0.1-0.1-0.2-0.1
			c0.2-0.3,0.4-0.6,0.6-0.9c1.8,1,3.7,1.9,5.5,2.9C437.2,190.3,437.4,190.7,437.5,191.1z"/>
		<path class="st11" d="M439.6,193.3c-0.2-0.5-0.4-0.9-0.6-1.4c0.9,0.4,1.9,0.6,2.7,1.1c1.3,0.8,2.5,1.8,3.8,2.7
			c0,0.1-0.1,0.3-0.1,0.4c-0.1,0.1-0.1,0.1-0.2,0.2c-1.4-0.8-2.9-1.5-4.3-2.3c-0.2-0.1-0.5-0.3-0.7-0.5
			C440,193.4,439.8,193.4,439.6,193.3z"/>
		<path class="st11" d="M414.7,178.6c-0.1-0.5-0.4-1.1,0.5-1.3c0.9,0.5,1.9,1,2.8,1.6c1,0.6,2,1.4,3,2.1c-0.1,0.2-0.2,0.5-0.2,0.7
			c-0.2,0-0.3,0-0.5,0c-0.5-0.3-0.9-0.6-1.4-0.9c-1.2-0.6-2.3-1.3-3.5-1.9C415.1,178.8,414.9,178.7,414.7,178.6z"/>
		<path class="st11" d="M380.1,158.2c-0.2,0-0.4,0-0.6,0c0,0-0.1,0-0.1,0c-0.3-0.2-0.6-0.4-0.9-0.6c-0.2-0.1-0.3-0.2-0.5-0.2
			c-0.2-0.1-0.3-0.3-0.5-0.4c-0.8-0.4-1.6-0.9-2.4-1.3c-0.1-0.6-1.3-0.8-0.5-1.6c1.7,1,3.3,1.9,5,2.9
			C380.1,157.1,380.9,157.4,380.1,158.2z"/>
		<path class="st12" d="M551.1,177.4c0.3,1.4-1.1,1.3-1.7,1.9c-0.3,0.3-0.7,0.6-1,0.9c-0.2,0.1-0.4,0.2-0.7,0.3
			c-0.5,0.1-0.9,0.2-1.4,0.3c0-0.3,0-0.5,0-0.8C547.9,179.2,549.5,178.3,551.1,177.4z"/>
		<path class="st14" d="M374.7,153.9c-0.8,0.9,0.4,1.1,0.5,1.6c-0.5-0.4-1.4-0.7-1.3-1.1c0-0.6,0.4-1.5,1-1.8
			c1.3-0.9,2.8-1.6,4.1-2.4c0,0.2,0.1,0.5,0.1,0.7c0,0.1,0,0.2-0.1,0.3C377.5,152.2,376.1,153.1,374.7,153.9z"/>
		<path class="st11" d="M495.8,208.8c0.2,0.4,0.3,0.8,0.5,1.2c-0.2,0.1-0.3,0.2-0.5,0.3c-1.5-0.9-3-1.8-4.6-2.7c0,0,0.1-0.1,0.1-0.1
			c0.4-0.1,0.8-0.1,1.1-0.2C493.5,207.9,494.6,208.3,495.8,208.8z"/>
		<path class="st3" d="M504.2,205.3c0-0.3,0-0.6,0-1c0.9-0.4,1.8-0.8,2.7-1.2c0.4,0,0.9-0.1,1.3-0.1c-0.1,0.2-0.3,0.5-0.4,0.7
			c-0.1,0-0.2,0.1-0.4,0.1c-0.3,0.2-0.5,0.4-0.8,0.6c-0.2,0.1-0.4,0.3-0.6,0.4C505.3,204.9,504.7,205.1,504.2,205.3z"/>
		<path class="st1" d="M508.1,202.9c-0.4,0-0.9,0.1-1.3,0.1c1-0.7,2.1-1.4,3.2-2.2c0.1,0.4,0.2,0.8,0.2,1.2
			c-0.4,0.3-0.8,0.5-1.2,0.8C508.7,202.9,508.4,202.9,508.1,202.9z"/>
		<path class="st14" d="M415.4,178.9c1.2,0.6,2.3,1.3,3.5,1.9C417.7,180.2,416.5,179.6,415.4,178.9z"/>
		<path class="st5" d="M579.2,155.6c0-0.1,0.1-0.2,0.1-0.3c1,0.6,1.9,1.3,2.8,1.9"/>
		<path class="st3" d="M578,161.9c0.7-0.1,1.3-0.2,2-0.2c-0.1,0.1-0.2,0.3-0.3,0.4c-0.5,0.2-0.9,0.4-1.4,0.6
			c-0.1-0.1-0.2-0.2-0.2-0.3C578,162.2,578,162,578,161.9z"/>
		<path class="st1" d="M489.1,203.8c0.1,0,0.1-0.1,0.2-0.1c0.1,0,0.1,0.1,0.2,0.1c0.1,0.1,0.2,0.3,0.3,0.4c0,0.7-0.1,1.4-0.2,2.2
			c-0.1,0-0.2,0-0.3,0c-0.1-0.7-0.1-1.4-0.2-2.2C489,204.1,489,204,489.1,203.8z"/>
		<path class="st15" d="M503.4,205.5c0.2-0.1,0.5-0.1,0.8-0.2c0.5-0.2,1.1-0.3,1.7-0.5"/>
		<path class="st3" d="M561.5,171c0.2,0.3,0.5,0.6,0.7,0.9c0,0.1-0.1,0.3-0.1,0.4c-0.1,0-0.2,0.1-0.4,0.1c-0.2-0.1-0.3-0.1-0.5-0.2
			c-0.1-0.4-0.2-0.8-0.3-1.2C561.1,171,561.3,171,561.5,171z"/>
		<path class="st16" d="M557.5,174.9c0.7-0.6,1.4-1.1,2.1-1.7"/>
		<path class="st11" d="M486.4,205.6c0.7-0.4,1.4-0.8,2-1.3C487.7,204.8,487,205.2,486.4,205.6z"/>
		<path class="st14" d="M433.6,189.4c0.7,0.4,1.5,0.9,2.2,1.3C435.1,190.3,434.4,189.9,433.6,189.4z"/>
		<path class="st1" d="M476.7,203.8c0.7,0.4,1.4,0.8,2,1.2C478.1,204.6,477.4,204.1,476.7,203.8z"/>
		<path class="st15" d="M532.6,189.3c0.7-0.4,1.3-0.9,2-1.3C534,188.5,533.3,188.9,532.6,189.3z"/>
		<path class="st3" d="M562.7,171.6c0.2-0.4,0.3-0.7,0.5-1.1c0.2,0.2,0.3,0.4,0.5,0.5c-0.2,0.2-0.5,0.4-0.8,0.6
			C562.8,171.7,562.7,171.6,562.7,171.6z"/>
		<path class="st1" d="M484.1,206.7c0.6-0.3,1.2-0.6,1.9-0.9c-0.6,0.4-1.2,0.7-1.8,1.1C484.2,206.8,484.1,206.7,484.1,206.7z"/>
		<path class="st16" d="M555.4,176.2c0.6-0.4,1.2-0.8,1.7-1.1C556.6,175.4,556,175.8,555.4,176.2z"/>
		<path class="st15" d="M508.1,202.9c0.3,0,0.6,0,0.9,0c-0.5,0.2-0.9,0.5-1.4,0.7C507.8,203.4,507.9,203.2,508.1,202.9z"/>
		<path class="st17" d="M422.6,181c0,0.1,0,0.2,0,0.4c-0.2,0.1-0.5,0.1-0.7,0.2c0,0,0-0.1,0-0.1c0.1-0.3,0.2-0.7,0.5-1.3
			C422.5,180.6,422.6,180.8,422.6,181z"/>
		<path class="st1" d="M479.1,205.1c0.4,0.3,0.9,0.5,1.3,0.8C480,205.6,479.6,205.4,479.1,205.1z"/>
		<path class="st17" d="M420.7,181.7c0.1-0.2,0.2-0.5,0.2-0.7c0.2,0.2,0.5,0.3,0.7,0.5c-0.2,0.2-0.3,0.4-0.5,0.6c-0.2,0-0.3,0-0.5,0
			C420.7,181.9,420.7,181.8,420.7,181.7z"/>
		<path class="st15" d="M524.7,193.9c0.4-0.3,0.9-0.6,1.3-0.8C525.6,193.3,525.1,193.6,524.7,193.9z"/>
		<path class="st18" d="M384.1,160.8c0.4,0.2,0.8,0.5,1.2,0.7"/>
		<path class="st19" d="M575.5,137c-0.3-0.3-0.6-0.6-0.9-0.9C574.9,136.4,575.2,136.7,575.5,137z"/>
		<path class="st18" d="M466.7,208.9c0.3,0.2,0.6,0.4,1,0.6C467.4,209.3,467.1,209.1,466.7,208.9z"/>
		<path class="st3" d="M545.2,181.4c-0.3,0.1-0.7,0.3-1,0.4c-0.2-0.1-0.3-0.2-0.5-0.2c0-0.1,0-0.2,0-0.2
			C544.2,181.3,544.7,181.4,545.2,181.4z"/>
		<path class="st16" d="M561,172.4c0-0.1,0-0.2,0-0.2c0.1,0,0.2,0,0.2,0c0.2,0.1,0.3,0.1,0.5,0.2"/>
		<path class="st1" d="M578,162.3c0.1,0.1,0.2,0.2,0.2,0.3c-0.3,0.5-0.7,0.8-1.1,0.1C577.4,162.6,577.7,162.4,578,162.3z"/>
		<path class="st11" d="M490.6,207.4c0.2-0.1,0.4-0.3,0.6-0.5l0,0c0,0.2,0,0.4,0.1,0.6c0,0-0.1,0.1-0.1,0.1c-0.2,0-0.4-0.1-0.6-0.1
			c0,0,0-0.1,0-0.1C490.5,207.4,490.6,207.4,490.6,207.4z"/>
		<path class="st7" d="M576.5,138.4c-0.5,0-0.9-0.1-0.5-0.7C576.2,137.9,576.3,138.1,576.5,138.4z"/>
		<path class="st14" d="M432.4,188.8c0.3,0.2,0.6,0.4,0.8,0.5C433,189.1,432.7,188.9,432.4,188.8z"/>
		<path class="st16" d="M554.2,176.9c0.3-0.2,0.5-0.4,0.8-0.6C554.7,176.5,554.5,176.7,554.2,176.9z"/>
		<path class="st15" d="M531.4,190c0.3-0.2,0.5-0.4,0.8-0.6C531.9,189.6,531.7,189.8,531.4,190z"/>
		<path class="st16" d="M562.9,171.7c-0.3,0.2-0.6,0.4-0.8,0.6c0-0.1,0.1-0.3,0.1-0.4"/>
		<path class="st16" d="M564.3,171c0.2-0.2,0.5-0.3,0.7-0.5C564.8,170.6,564.6,170.8,564.3,171z"/>
		<path class="st18" d="M378.5,157.6c0.3,0.2,0.6,0.4,0.9,0.6C379.1,157.9,378.8,157.8,378.5,157.6z"/>
		<path class="st19" d="M421.2,182.1c0.2-0.2,0.3-0.4,0.5-0.6c0.1,0,0.2,0,0.3-0.1c0,0.1,0,0.1,0,0.1
			C421.7,181.7,421.4,181.9,421.2,182.1z"/>
		<path class="st15" d="M506.4,204.4c0.3-0.2,0.5-0.4,0.8-0.6C507,204,506.7,204.2,506.4,204.4z"/>
		<path class="st20" d="M431,188c0.3,0.2,0.5,0.4,0.8,0.6C431.5,188.4,431.3,188.2,431,188z"/>
		<path class="st20" d="M447,197.2c0.2,0.2,0.4,0.4,0.6,0.6C447.4,197.6,447.2,197.4,447,197.2z"/>
		<path class="st19" d="M446.8,95.1c-0.2,0-0.3,0.1-0.5,0.1c0.2-0.2,0.4-0.4,0.5-0.5C446.9,94.8,446.8,94.9,446.8,95.1z"/>
		<path class="st1" d="M527.8,191.4c0-0.1,0-0.2,0-0.3c0.2,0,0.5,0,0.7,0c0.1,0.1,0.2,0.1,0.3,0.2c-0.2,0.1-0.3,0.2-0.5,0.3
			C528.2,191.5,528,191.4,527.8,191.4z"/>
		<path class="st15" d="M511.5,200.6c0.1,0,0.3-0.1,0.5-0.1"/>
		<path class="st14" d="M446.8,95.1c0-0.2,0-0.3,0-0.4c0.2,0,0.4,0,0.5,0C447.2,94.8,447,94.9,446.8,95.1z"/>
		<path class="st6" d="M578.4,146.2c0.3-0.1,0.5-0.3,0.8-0.4c0,0.2,0,0.3,0,0.5C578.9,146.3,578.7,146.2,578.4,146.2z"/>
		<path class="st21" d="M451.4,200c0.2,0.1,0.5,0.3,0.7,0.5C451.9,200.3,451.6,200.1,451.4,200z"/>
		<path class="st16" d="M579.6,162c0.1-0.1,0.2-0.3,0.3-0.4c0.2,0,0.3,0,0.5,0C580.1,161.8,579.9,161.9,579.6,162z"/>
		<path class="st18" d="M440.1,193.5c0.2,0.1,0.5,0.3,0.7,0.5C440.6,193.8,440.4,193.7,440.1,193.5z"/>
		<path class="st18" d="M377.5,156.9c0.2,0.1,0.3,0.3,0.5,0.4C377.9,157.2,377.7,157,377.5,156.9z"/>
		<path class="st18" d="M468.2,209.7c0.2,0.2,0.4,0.3,0.6,0.5C468.6,210,468.4,209.9,468.2,209.7z"/>
		<path class="st19" d="M420.7,181.7c0,0.1,0,0.2,0,0.3c-0.2-0.1-0.3-0.2-0.5-0.3C420.4,181.7,420.6,181.7,420.7,181.7z"/>
		<path class="st20" d="M448,198.1c0.2,0.1,0.3,0.1,0.5,0.2C448.4,198.2,448.2,198.1,448,198.1z"/>
		<path class="st21" d="M457.1,203.3c0.2,0.1,0.3,0.1,0.5,0.2C457.5,203.5,457.3,203.4,457.1,203.3z"/>
		<path class="st11" d="M489.1,203.8c0,0.1,0,0.3,0,0.4c-0.2,0-0.3,0-0.5,0C488.7,204.1,488.9,204,489.1,203.8z"/>
		<path class="st14" d="M448.5,94c-0.2,0.1-0.4,0.2-0.5,0.3C448.1,94.2,448.3,94.1,448.5,94z"/>
		<path class="st15" d="M489.3,206.4c0.1,0,0.2,0,0.3,0c0,0.1,0,0.2,0,0.4C489.5,206.7,489.4,206.6,489.3,206.4z"/>
		<path class="st19" d="M445.8,95.4c-0.2,0.1-0.4,0.2-0.6,0.3C445.4,95.7,445.6,95.6,445.8,95.4z"/>
		<path class="st18" d="M385.4,161.5c0.1,0.1,0.2,0.2,0.4,0.3"/>
		<path class="st22" d="M445.4,196.1c0,0.1,0,0.2,0,0.3c-0.1-0.1-0.2-0.1-0.2-0.1C445.2,196.2,445.3,196.1,445.4,196.1z"/>
		<path class="st3" d="M561,172.2c0,0.1,0,0.2,0,0.2c-0.1,0-0.1-0.1-0.2-0.1c0-0.1,0-0.1,0-0.2C560.8,172.2,560.9,172.2,561,172.2z"
			/>
		<path class="st13" d="M381.6,137.2c-0.7-2.5,1-3.9,2.6-5.4c0.6,0.3,1.3,0.5,1.9,0.8c4.5,2.5,8.9,5.1,13.3,7.7c5,2.9,10,5.8,15,8.7
			c4.4,2.5,8.8,5,13.2,7.6c4.8,2.8,9.5,5.6,14.3,8.4c3.5,2,7.1,4,10.6,6c3.4,2,6.8,4.1,10.2,6.1c3,1.8,6.1,3.4,9.1,5.1
			c3.1,1.8,6.2,3.7,9.3,5.5c0.2,0.1,0.4,0.2,0.6,0.3c0.9,0.3,1.5,0.8,1.4,1.9c-0.1,0.9,0,1.9,0,2.9c0.1,1.1,0.2,2.1,0.2,3.2
			c0,2.6,0,5.2,0,7.8c0,0.4-0.1,0.8-0.2,1.2c-0.1-0.4-0.2-0.8-0.2-1.2c0-2.8,0-5.7,0-8.5c0-2.3-1-3.5-3.4-3.9
			c-1.9-1.2-3.9-2.4-5.8-3.5c-0.4-0.2-1-0.7-1.3,0.1c-0.4,0.3-0.8,0.7-1.2,1c0-0.4,0.1-0.9,0-1.3c-0.1-0.5-0.1-1.2-0.4-1.4
			c-0.9-0.6-1.9-1-2.9-1.5c-0.2,0-0.4-0.1-0.6-0.1c-0.6-0.4-1.1-0.8-1.7-1.1c-0.2-0.1-0.4-0.1-0.6-0.2c-0.1-0.2-0.3-0.3-0.4-0.5
			c-0.1,0.2-0.3,0.4-0.4,0.6l0,0c-0.1,0.2-0.3,0.3-0.5,0.5l-0.1,0h-0.1c-0.2,0-0.4-0.1-0.7-0.1c0.2-1,0.1-1.9-0.8-2.5
			c-1.2-0.7-2.4-1.4-3.6-2.1c-0.4-0.2-0.8-0.5-1.2-0.7c-0.1-0.1-0.2-0.2-0.2-0.3c-0.7-1-1.1,0.6-1.7,0.2c-0.5-0.5,0.4-1.8-1-1.8
			c-0.2-0.1-0.4-0.2-0.6-0.4c-0.2-0.1-0.4-0.2-0.6-0.4c-0.4-0.2-0.7-0.4-1.1-0.6c-1.1-0.7-2.2-1.5-3.4-2.1c-0.1-0.1-0.6,0.5-0.9,0.7
			c-0.2,0.3-0.5,0.5-0.7,0.8c-0.1-0.2-0.2-0.4-0.3-0.6c-0.1-0.7-0.1-1.3-0.2-2c-0.2-0.3-0.4-0.6-0.7-0.8c-1.3-0.7-2.6-1.3-3.8-2.1
			c-1.1-0.8-2-1.2-3.1,0.3c0-0.6,0-1-0.1-1.3c-0.2-0.5-0.5-1.1-0.9-1.4c-1.5-1-3.2-1.8-4.8-2.9c-0.7-0.5-1.2-0.4-1.8,0.2
			c-0.2,0.2-0.6,0.3-1,0.4c0-0.1,0-0.3,0-0.5c0.1-0.2,0.4-0.4,0.4-0.5c-0.3-0.5-0.5-1.2-1-1.4c-1.1-0.7-2.4-1.2-3.6-1.9
			c-0.5-0.2-0.9-0.5-1.4-0.7c-0.2-0.2-0.3-0.5-0.5-0.7c-0.2,0.1-0.3,0.3-0.5,0.4l0,0c-0.2,0.1-0.3,0.3-0.5,0.5c0,0-0.1,0.1-0.2,0.1
			c-0.2-0.3-0.5-0.6-0.5-0.9c0-0.7-0.1-1.1-0.9-1.5c-1.6-0.8-3.2-1.8-4.7-2.7c-1.4-0.9-2-0.7-2.5,1c-0.2,0.2-0.3,0.3-0.5,0.5
			c0-0.2,0-0.4-0.1-0.6c0.2-0.8,0.7-1.6-0.1-2.4l0,0c-1.1-0.7-2.1-1.3-3.2-2c-0.9-0.5-1.7-1-2.6-1.5c-0.1-0.1-0.1-0.3-0.2-0.4
			c-0.1,0.1-0.2,0.3-0.3,0.4c-0.3,0.3-0.6,0.6-0.9,1c-0.3-0.1-0.5-0.2-0.8-0.3c0.1-0.6,0.1-1.1,0.2-1.6c-0.6-1.3-2-1.7-3.2-2.1
			c-0.1,0-0.2-0.1-0.4-0.1c-0.9-0.6-1.8-1.3-2.7-1.8c-0.1,0-0.4,0.4-0.7,0.6l0,0c-0.3,0.1-0.5,0.1-0.8,0.2c0.2-1.6,0.1-1.7-0.9-2.1
			c-1.6-0.9-3.1-1.9-4.7-2.7c-0.5-0.2-1.1-0.1-1.7-0.2c-0.3,0.1-0.6,0.2-0.9,0.2c-0.1-0.4-0.3-0.7-0.4-1c0-0.2,0-0.5,0-0.7
			c-0.1-0.2-0.2-0.4-0.4-0.5c-1.5-0.9-3-1.8-4.6-2.7c-1.5-0.9-2.3-0.6-2.9,1.1l0,0C382,137.2,381.8,137.2,381.6,137.2z"/>
		<path class="st23" d="M559.5,133.1c0.3,0.8,1.2,1.6,0.2,2.4c-1.1,0.8-2.2,1.7-3.4,2.1c-1.6,0.5-3.4,0.6-5,0
			c-1.2-0.4-2.4-0.9-3.4-1.8c-1-0.9-0.8-1.8,0.3-3.2c0.2-0.2,0.3-0.5,0.5-0.8c0.6-0.2,1.3-0.5,1.9-0.7c0.5-0.2,1-0.3,1.4-0.5
			c1.7,0.2,3.4,0.1,5,0.6C558,131.5,558.7,132.5,559.5,133.1z"/>
		<path class="st3" d="M565.5,164.3c-1.1-0.3-1.3-1-1-2.1c0.3-0.9,0.3-1.9,0.3-2.8c0-1.3,0.1-2.6,0-3.9c0-0.4-0.4-0.7-0.7-1.1
			c0-0.1,0-0.3,0-0.4c0-0.1,0-0.2,0-0.3c0.6-0.2,1.3-0.3,1.9-0.6c1.3-0.7,2.5-1.6,3.8-2.1c0.9-0.4,0.9-0.8,0.5-1.5
			c0.2,0.2,0.5,0.5,0.7,0.7c-0.1,1.7-0.2,3.4-0.2,5c0,0.5,0.3,0.9,0.5,1.4c-0.8,0.8-0.8,1.7-0.5,2.7c0,0.2,0,0.5,0,0.7
			c-0.3,0.4-0.6,0.9-1.1,1.2c-1.3,0.8-2.6,1.5-3.9,2.3C565.6,163.6,565.6,164,565.5,164.3z"/>
		<path class="st3" d="M562.9,159.2c-1.3,0.4-0.5,1.2-0.5,1.9c-0.1,0.9-0.4,1.9-0.2,2.7c0.4,1.3-0.2,1.9-1.2,2.4
			c-0.7,0.4-1.4,0.7-2.1,1.1c-0.7,0.4-1.3,1-1.9,1.5c-0.2-0.4-0.7-0.8-0.7-1.2c-0.1-2.3,0-4.7,0-7c0-0.7-0.3-1.4-0.5-2.1
			c0.5-0.1,1-0.1,1.4-0.4c1.4-0.7,2.8-1.5,4.2-2.4c0.4-0.2,0.6-0.7,0.9-1.1c0.2,0,0.3,0,0.5,0.1
			C562.9,156.2,562.9,157.7,562.9,159.2z"/>
		<path class="st3" d="M546,164c0.1,0,0.1,0,0.2,0c-0.1,0.6-0.2,1.3-0.2,1.9c0,1.5,0.1,3.1,0.1,4.6c-0.1,1-0.4,2.1-0.2,3
			c0.3,1.2-0.2,1.6-1,2c-1.3,0.7-2.5,1.4-3.8,2.1c-0.2,0.1-0.2,0.4-0.3,0.6c-0.7,0-0.7-0.4-0.7-0.9c0-1.7,0-3.3,0-5
			c0-1.5,0.3-3.1-0.7-4.4c0.7-0.1,1.4-0.1,2-0.3c0.8-0.3,1.6-0.7,2.2-1.3C544.4,165.5,546,165.5,546,164z"/>
		<path class="st3" d="M529.8,173.6c0,1.6-0.1,3.1,0,4.7c0,0.7,0.3,1.4,0.5,2c-0.2,0.2-0.7,0.4-0.7,0.7c-0.1,0.8,0.1,1.6,0,2.4
			c0,0.4-0.2,1-0.5,1.1c-1.2,0.8-2.5,1.4-3.7,2.2c-0.4,0.3-0.6,0.8-0.9,1.2c-0.2-0.5-0.7-1-0.7-1.5c-0.1-2.5,0-4.9,0-7.4
			c0-0.5-0.2-1-0.3-1.5c0.3-0.1,0.7-0.1,1-0.3c1.5-0.8,3-1.6,4.4-2.5c0.3-0.2,0.5-0.8,0.7-1.1C529.7,173.5,529.8,173.5,529.8,173.6z
			"/>
		<path class="st24" d="M483.3,205c0.1-0.4,0.2-0.8,0.2-1.2c0-2.6,0-5.2,0-7.8c0-1.1-0.1-2.1-0.2-3.2c0.5-0.2,1.1-0.4,1.6-0.5
			c0.4-0.1,0.7-0.3,1-0.4l0,0c0.2,0.6,0.5,1.1,0.7,1.7c0.5,0.6,0.9,1.2,1.5,1.6c0.9,0.7,1.2,1.5,1.2,2.7c-0.1,1.5,0,3,0,4.6
			c-0.3,0.1-0.6,0.1-0.9,0.3c-1.5,0.9-2.9,1.8-4.4,2.6c-0.2,0.1-0.5,0-0.8,0C483.3,205.1,483.3,205.1,483.3,205z"/>
		<path class="st25" d="M505.4,188.1c0,0.2,0,0.4,0,0.5l0,0c-0.4,0.2-0.8,0.3-1.2,0.5c-1.7,0.9-3.4,1.9-5,2.8
			c-1.3-1.4-2.6-2.7-3.9-4.1c-0.6-0.6-0.5-1.2,0.4-1.7c1.1-0.6,2.1-1.4,3.1-2c0.1,0,0.2-0.1,0.4-0.1c0.3-0.2,0.6-0.4,0.9-0.6
			c0.1-0.1,0.2-0.1,0.4-0.1c0.2,0,0.5,0,0.7,0C502.5,184.8,503.9,186.4,505.4,188.1z"/>
		<path class="st25" d="M549.5,154.7c0.2,0,0.3,0,0.5,0c0.2,0.1,0.3,0.2,0.5,0.2c1.3,1.5,2.7,2.9,4,4.4c0,0.2,0,0.4,0.1,0.6
			c-1,0.6-2,1.2-3,1.7c-1.2,0.6-2.3,1.2-3.5,1.8c-1.2-1.4-2.5-2.7-3.7-4.2c-0.2-0.3-0.2-0.9-0.3-1.3c0.4-0.2,0.7-0.4,1.1-0.6
			c0.5-0.3,1-0.6,1.5-0.9l0,0C547.6,155.8,548.5,155.2,549.5,154.7z"/>
		<path class="st25" d="M488.3,193.9c-0.4-0.5-0.8-0.9-1.2-1.4c-0.2-0.2-0.3-0.3-0.5-0.5c0-0.1-0.1-0.1-0.1-0.2c0-0.2,0-0.4,0-0.6
			c0.4-0.3,0.7-0.5,1-0.8c0.6-0.3,1.2-0.6,1.9-0.9c1.2-0.6,2.5-1.1,3.7-1.6l0,0c0.2,0.2,0.5,0.5,0.7,0.8c1.1,1.3,2.1,2.5,3.2,3.8
			c0,0.3-0.1,0.6-0.1,0.9c-1.9,1.1-3.8,2.1-5.7,3.2c-0.2,0-0.3,0-0.5,0c-0.1-0.1-0.2-0.2-0.2-0.2c-0.2-0.3-0.5-0.5-0.7-0.8
			c-0.2-0.3-0.5-0.6-0.7-0.9C488.8,194.4,488.6,194.2,488.3,193.9z"/>
		<path class="st25" d="M529.7,173.6c-0.2,0.4-0.4,0.9-0.7,1.1c-1.4,0.9-2.9,1.7-4.4,2.5c-0.3,0.2-0.7,0.2-1,0.3
			c-1.4-1.6-2.9-3.1-4.3-4.7c0.1-0.2,0.2-0.5,0.3-0.7c1.3-0.7,2.5-1.4,3.8-2.1c0.8-0.4,1.6-0.7,2.4-1.1c0.2,0.2,0.5,0.5,0.7,0.8
			c0.2,0.2,0.5,0.5,0.7,0.8c0.4,0.5,0.8,0.9,1.2,1.4c0.2,0.2,0.3,0.3,0.4,0.5C529.1,172.8,529.4,173.2,529.7,173.6z"/>
		<path class="st25" d="M507,187.1c-1.2-1.4-2.3-2.7-3.5-4.1c-0.6-0.7-0.8-1.1,0.3-1.6c1.7-0.8,3.2-1.9,4.8-2.8
			c0.2-0.1,0.5-0.1,0.8-0.2c0.5,0.6,1,1.1,1.4,1.7c0.2,0.2,0.3,0.3,0.5,0.5c0.1,0.1,0.1,0.2,0.2,0.2c0.2,0.2,0.3,0.3,0.5,0.5
			c0.5,0.6,1,1.2,1.4,1.8c0,0.2-0.1,0.3-0.1,0.5c-0.4,0.3-0.8,0.6-1.3,0.8C510.4,185.4,508.7,186.2,507,187.1z"/>
		<path class="st25" d="M562.4,154.6c-0.3,0.4-0.5,0.9-0.9,1.1c-1.4,0.8-2.8,1.6-4.2,2.4c-0.4,0.2-1,0.2-1.4,0.4
			c-1.3-1.4-2.5-2.9-3.8-4.3c0-0.3,0-0.6,0-0.9l0,0c1.2-0.7,2.4-1.4,3.6-2.1h0c0.9-0.4,1.8-0.7,2.6-1.1c0,0.1,0.1,0.1,0.2,0.1
			c0.2,0.2,0.3,0.3,0.5,0.5C560.2,152,561.3,153.3,562.4,154.6z"/>
		<path class="st25" d="M531.7,172.9c-1.3-1.4-2.7-2.9-4-4.4c0.2-0.4,0.2-1.1,0.5-1.3c1.2-0.8,2.5-1.5,3.8-2.1
			c0.7-0.3,1.4-0.5,2.2-0.7l0,0c0.3,0.4,0.6,0.7,0.9,1.1c1,1.2,2.1,2.3,3.1,3.5c0,0.2-0.1,0.4-0.1,0.6c-0.5,0.2-0.9,0.4-1.4,0.6
			C535,171.1,533.3,172,531.7,172.9z"/>
		<path class="st25" d="M546,164c0,1.6-1.6,1.5-2.4,2.3c-0.6,0.6-1.4,1-2.2,1.3c-0.6,0.2-1.3,0.2-2,0.3c-1.2-1.4-2.4-2.7-3.6-4.1
			c0-0.4,0-0.8,0-1.1c0.1,0,0.1-0.1,0.2-0.1c0.3-0.1,0.7-0.2,1-0.3c1.7-0.9,3.4-1.8,5.1-2.8l0,0c0.2,0.2,0.3,0.3,0.5,0.5l0,0
			c0.1,0.2,0.3,0.4,0.4,0.5l0,0c0.2,0.2,0.3,0.3,0.5,0.5c0.2,0.2,0.4,0.4,0.6,0.6c0.4,0.4,0.7,0.9,1.1,1.3
			C545.4,163.2,545.7,163.6,546,164z"/>
		<path class="st25" d="M519.2,175.6c0,0.1,0.1,0.1,0.1,0.2c0.5,0.5,0.9,1,1.3,1.5c0.2,0.2,0.5,0.5,0.7,0.7c0.1,0.4,0.2,0.7,0.3,1.1
			c-0.5,0.2-1,0.5-1.5,0.7c-1.6,0.8-3.2,1.6-4.7,2.5c-1.5-1.6-3-3.3-4.5-5c0.8-0.5,1.4-0.8,1.9-1.1c0.3-0.2,0.5-0.4,0.8-0.6
			c0.1,0,0.1,0,0.2-0.1c0.8-0.4,1.7-0.7,2.4-1.2c0.9-0.6,1.4-0.6,2,0.4C518.3,175.1,518.8,175.3,519.2,175.6z"/>
		<path class="st25" d="M570.3,149.4c0.3,0.7,0.4,1.1-0.5,1.5c-1.3,0.6-2.5,1.5-3.8,2.1c-0.6,0.3-1.2,0.4-1.9,0.6
			c-0.2-0.1-0.3-0.2-0.5-0.3c-0.2-0.3-0.4-0.6-0.6-0.9c-0.1-0.2-0.3-0.3-0.4-0.5c-0.5-0.5-0.9-1-1.4-1.5c-0.3-0.3-0.5-0.6-0.8-0.9
			c0-0.1-0.1-0.1-0.1-0.2c0-0.4,0-0.7,0-1.1c0.2-0.1,0.5-0.2,0.8-0.3c0.6-0.3,1.2-0.7,1.9-0.9c1.5-0.5,2.5-2.6,4.5-1l0,0
			c0.2,0.2,0.5,0.5,0.7,0.8c0.2,0.2,0.3,0.3,0.5,0.5c0.3,0.4,0.6,0.8,1,1.2l0,0C569.8,148.9,570,149.2,570.3,149.4L570.3,149.4z"/>
		<path class="st7" d="M512.8,176.2c-0.5,0.3-1.1,0.6-1.9,1.1c1.5,1.7,3,3.3,4.5,5c0.1,1,0.2,2,0.2,2.9c0,2,0,4.1,0,6.1
			c0,0.4,0.3,0.8,0.5,1.2c0.2,0.1,0.5,0.2,0.7,0.3c0.5,0.3,1,0.6,1.5,0.9c0.2,0,0.3,0,0.4,0c0.2,0.2,0.5,0.4,0.8,0.7
			c0.2,0,0.3,0,0.5,0c0.2,0.4,0.4,0.8,0.6,1.2l0,0.1c-0.3,0-0.7-0.1-1-0.1c-1.8-1.1-3.7-2.1-5.5-3.2c0-0.8,0-1.6,0-2.4
			c-0.1-0.2-0.1-0.3-0.2-0.5l0,0c-0.1-1.2-0.2-2.4-0.2-3.7c0-0.8-0.1-1.6-0.2-2.3c0-0.2,0.1-0.3,0.1-0.5c1-0.3,1-0.7,0.3-1.5
			c-0.8-0.9-1.7-1.8-2.5-2.7c-0.2-0.2-0.3-0.4-0.4-0.6c-0.5-1.4,0-2.1,1.8-2.4C512.7,176,512.8,176.1,512.8,176.2z"/>
		<path class="st7" d="M544,157.9c0.1,0.4,0,1,0.3,1.3c1.2,1.4,2.5,2.8,3.7,4.2c0.1,0.4,0.4,0.7,0.4,1.1c0,2.7-0.1,5.3-0.1,8
			c0,0.3,0.3,0.6,0.5,0.9c1.5,1,3.1,1.9,4.8,3.1c-0.6,0.2-0.8,0.3-1,0.4c-1.7-1-3.5-1.9-5.2-2.9c-0.2-0.1-0.5-0.2-0.7-0.3
			c0-0.7,0.1-1.3,0-2c0-0.4-0.3-0.8-0.5-1.1c0-1.5-0.1-3.1-0.1-4.6c0-0.6,0.1-1.3,0.2-1.9c0.8-0.2,0.9-0.6,0.3-1.2
			c-0.7-0.8-1.5-1.5-2.1-2.4c-0.4-0.6-0.7-1.4-1-2.1C543.3,158.3,543.8,158,544,157.9z"/>
		<path class="st7" d="M521.6,179.1c-0.1-0.4-0.2-0.7-0.3-1.1c0.3,0.1,0.7,0.3,1,0.4c0.1-0.1,0.2-0.1,0.3-0.2
			c-0.5-0.7-1.1-1.4-1.6-2.1c-0.8-1-2.1-1.6-1.8-3.2c1.4,1.6,2.9,3.1,4.3,4.7c0.1,0.5,0.2,1,0.3,1.5c0,2.5,0,4.9,0,7.4
			c0,0.5,0.5,1,0.7,1.5c0.2,0.1,0.5,0.2,0.7,0.4c1.1,0.5,2.2,1.1,3.3,1.6c0,0.1,0,0.1,0,0.2c0,0.3,0,0.6,0,0.9c-0.2,0-0.5,0-0.7,0
			c-1.8-1.1-3.7-2.2-5.5-3.3c0-0.9,0.3-2.1-0.2-2.7c-0.7-0.9-0.5-1.8-0.6-2.8C521.6,181.3,521.6,180.2,521.6,179.1z"/>
		<path class="st8" d="M535.8,163.7c1.2,1.4,2.4,2.7,3.6,4.1c1,1.3,0.7,2.9,0.7,4.4c0,1.7,0,3.3,0,5c0,0.5,0,1,0.7,0.9
			c0.1,0.2,0.2,0.5,0.3,0.6c1.3,0.8,2.7,1.5,4,2.3c0,0.1,0.1,0.2,0.1,0.3l0,0c-0.5,0-1-0.1-1.5-0.1c-1.6-0.9-3.2-1.9-4.8-2.8
			c0-1.2,0.3-2.4-0.6-3.5c-0.2-0.2-0.2-0.7-0.2-1c0-1.5,0-2.9,0-4.4c0-0.2,0.1-0.4,0.1-0.6c1.1,0.1,0.9-0.5,0.5-1.1
			c-0.7-0.9-1.5-1.6-2.2-2.5c-0.4-0.5-0.6-1.1-0.9-1.6C535.6,163.8,535.7,163.8,535.8,163.7z"/>
		<path class="st8" d="M552.1,154.1c1.3,1.4,2.5,2.9,3.8,4.3c0.2,0.7,0.4,1.4,0.5,2.1c0.1,2.4,0,4.7,0,7c0,0.4,0.4,0.8,0.7,1.2h0
			c1.1,0.7,2.2,1.4,3.4,2.1c0.2,0,0.3,0,0.5,0c0.1,0.4,0.2,0.8,0.3,1.2c-0.1,0-0.2,0-0.2,0c-0.1,0-0.2,0-0.2,0
			c-1.5-0.8-2.9-1.6-4.4-2.4c-0.4-0.2-0.8-0.5-1.1-0.8c0-0.1,0-0.1,0-0.2c0-0.9,0.3-2-0.1-2.6c-0.8-1-0.5-2-0.6-3
			c-0.1-1.1,0-2.2,0-3.3c0-0.2,0-0.4-0.1-0.6c1-0.4,0.3-1,0.1-1.4c-0.6-0.8-1.3-1.4-1.9-2.2c-0.3-0.4-0.5-1-0.7-1.5
			C551.9,154.2,552,154.2,552.1,154.1z"/>
		<path class="st24" d="M550.7,131.2c-0.6,0.2-1.3,0.5-1.9,0.7c-0.8-0.3-0.5-0.6,0-0.8c1.4-0.7,2.7-1.5,4.3-1.4c0.6,0.1,1.3,0,1.9,0
			c2.5,0,4,0.9,5.5,3.2c-0.3,0-0.6,0.1-0.9,0.1c-0.8-0.6-1.5-1.6-2.4-1.8c-1.6-0.4-3.3-0.4-5-0.6C551.4,130.2,551,130.5,550.7,131.2
			z"/>
		<path class="st4" d="M561.2,150.6c0.5,0.5,0.9,1,1.4,1.5c0.1,0.2,0.3,0.3,0.4,0.5c0.2,0.3,0.4,0.6,0.6,0.9
			c0.2,0.2,0.3,0.4,0.4,0.5c0,0.1,0,0.3,0,0.4c0,2.2,0,4.4,0,6.7c-1.2-0.4-1.3-1.1-1.2-1.9c0-1.5,0-3,0-4.5c0-0.4,0.1-0.9-0.2-1.2
			c-0.5-0.8-1.3-1.4-1.8-2.1c-0.2-0.2-0.1-0.6-0.2-1C560.9,150.4,561.1,150.5,561.2,150.6z"/>
		<path class="st9" d="M534.1,164.4c-0.7,0.2-1.5,0.4-2.2,0.7c-1.3,0.6-2.6,1.3-3.8,2.1c-0.3,0.2-0.3,0.9-0.5,1.3
			c-0.1,0-0.2,0-0.3,0c-0.8-0.6-0.4-1.2,0.1-1.6c1.8-1.1,3.6-2.1,5.4-3.1C533.5,163.6,534,163.7,534.1,164.4z"/>
		<path class="st3" d="M567.5,146.3c-1.9-1.6-3,0.5-4.5,1c-0.7,0.2-1.2,0.6-1.9,0.9c0.4-0.3,0.8-0.7,1.2-1c0.9-0.6,1.8-1.1,2.7-1.7
			C566.6,144.6,566.6,144.6,567.5,146.3z"/>
		<path class="st9" d="M542,159.4c-1.7,0.9-3.4,1.9-5.1,2.8c-0.3,0.2-0.6,0.2-1,0.3c0.6-0.5,1.2-1,1.8-1.4c1-0.7,2.1-1.3,3.2-1.8
			C541.2,159.2,541.7,159.4,542,159.4z"/>
		<path class="st7" d="M525.8,169c-0.8,0.4-1.6,0.7-2.4,1.1c-1.3,0.7-2.6,1.4-3.8,2.1c0.2-0.3,0.4-0.6,0.6-0.8
			c1.6-0.9,3.3-1.8,4.9-2.8C525.6,168.3,525.7,168.5,525.8,169z"/>
		<path class="st3" d="M519.2,175.6c-0.4-0.3-0.8-0.5-1.1-0.9c-0.6-0.9-1.1-1-2-0.4c-0.7,0.5-1.6,0.8-2.4,1.2c1.1-0.7,2.1-1.8,3.3-2
			C518.2,173.2,518.7,174.6,519.2,175.6z"/>
		<path class="st4" d="M493.1,188c-1.2,0.5-2.5,1.1-3.7,1.6c-0.6,0.3-1.2,0.6-1.9,0.9c0.4-0.4,0.8-0.8,1.3-1.1
			c1.1-0.7,2.2-1.3,3.2-1.9C492.7,187.2,493,187.3,493.1,188z"/>
		<path class="st9" d="M555.7,151.1c-1.2,0.7-2.4,1.4-3.6,2.1C553,152.1,554.3,151.5,555.7,151.1z"/>
		<path class="st7" d="M575.3,141.1c-0.3-0.2-0.6-0.3-0.9-0.5c-1.1,0.6-2.1,1.1-3.2,1.6c1-0.7,1.9-1.4,3-2
			C574.4,140.1,575,140.8,575.3,141.1z"/>
		<path class="st7" d="M576.8,139.1c0.1,1,0.3,2,0.2,2.9c-0.1,0.7-0.6,0.6-0.8-0.1c0.2-0.3,0.4-0.6,0.5-0.9
			C576.7,140.4,576.7,139.8,576.8,139.1z"/>
		<path class="st9" d="M558.4,150c-0.9,0.4-1.8,0.7-2.6,1.1c0.8-0.5,1.5-1.1,2.3-1.6C558.2,149.7,558.3,149.9,558.4,150z"/>
		<path class="st7" d="M549.5,154.7c-0.9,0.6-1.9,1.2-2.8,1.7C547.6,155.8,548.5,155.2,549.5,154.7z"/>
		<path class="st7" d="M570.9,142.3c-0.7,0.4-1.4,0.9-2,1.3C569.5,143.1,570.2,142.7,570.9,142.3z"/>
		<path class="st3" d="M520.6,177.2c-0.5-0.5-0.9-1-1.3-1.5C519.7,176.2,520.2,176.7,520.6,177.2z"/>
		<path class="st9" d="M545.1,162.9c-0.4-0.4-0.7-0.9-1.1-1.3C544.4,162,544.7,162.4,545.1,162.9z"/>
		<path class="st7" d="M546.6,156.4c-0.5,0.3-1,0.6-1.5,0.9C545.6,157,546.1,156.7,546.6,156.4z"/>
		<path class="st3" d="M569.6,148.7c-0.3-0.4-0.6-0.8-1-1.2C568.9,147.9,569.2,148.3,569.6,148.7z"/>
		<path class="st9" d="M535,165.5c-0.3-0.4-0.6-0.7-0.9-1.1C534.5,164.8,534.7,165.2,535,165.5z"/>
		<path class="st3" d="M535.8,163.7c-0.1,0-0.2,0-0.3,0.1c-0.2-0.5-0.6-1,0.3-1.2C535.8,163,535.8,163.4,535.8,163.7z"/>
		<path class="st3" d="M552.1,154.1c-0.1,0-0.2,0-0.3,0.1c-0.3-0.4-0.5-0.9,0.3-0.9C552.1,153.6,552.1,153.9,552.1,154.1z"/>
		<path class="st3" d="M561.2,150.6c-0.2-0.1-0.3-0.1-0.5-0.2c-0.1-0.2-0.2-0.5-0.2-0.7C560.7,150,561,150.3,561.2,150.6z"/>
		<path class="st7" d="M500,183.3c-0.3,0.2-0.6,0.4-0.9,0.6C499.4,183.7,499.7,183.5,500,183.3z"/>
		<path class="st3" d="M560.4,148.4c0,0.4,0,0.7,0,1.1C559.7,149.1,560,148.8,560.4,148.4z"/>
		<path class="st3" d="M570.3,149.4c-0.2-0.2-0.5-0.5-0.7-0.7C569.8,148.9,570,149.2,570.3,149.4z"/>
		<path class="st3" d="M568.1,147c-0.2-0.2-0.5-0.5-0.7-0.8C567.7,146.5,567.9,146.8,568.1,147z"/>
		<path class="st7" d="M527.1,170.5c-0.2-0.2-0.5-0.5-0.7-0.8C526.7,170,526.9,170.3,527.1,170.5z"/>
		<path class="st4" d="M493.8,188.7c-0.2-0.2-0.5-0.5-0.7-0.8C493.4,188.2,493.6,188.5,493.8,188.7z"/>
		<path class="st3" d="M512.8,176.2c0-0.1,0-0.2,0-0.2c0.3-0.1,0.5-0.3,0.8-0.4C513.3,175.8,513,176,512.8,176.2z"/>
		<path class="st7" d="M501,183.1c-0.2,0-0.5,0-0.7,0c0.1-0.1,0.3-0.3,0.4-0.4C500.8,182.9,500.9,183,501,183.1z"/>
		<path class="st4" d="M486.5,191.3c0,0.2,0,0.4,0,0.6c-0.2,0-0.4,0-0.6,0l0,0C486.1,191.6,486.3,191.5,486.5,191.3z"/>
		<path class="st9" d="M543.4,161c-0.2-0.2-0.3-0.3-0.5-0.5C543.1,160.6,543.2,160.8,543.4,161z"/>
		<path class="st7" d="M511.3,180.6c-0.2-0.2-0.3-0.3-0.5-0.5C511,180.2,511.2,180.4,511.3,180.6z"/>
		<path class="st9" d="M542.9,160.5c-0.1-0.2-0.3-0.4-0.4-0.5C542.7,160.1,542.8,160.3,542.9,160.5z"/>
		<path class="st9" d="M542.5,159.9c-0.2-0.2-0.3-0.3-0.5-0.5C542.2,159.6,542.4,159.8,542.5,159.9z"/>
		<path class="st7" d="M528.8,172.4c-0.2-0.2-0.3-0.3-0.4-0.5C528.5,172.1,528.7,172.2,528.8,172.4z"/>
		<path class="st9" d="M559,150.6c-0.2-0.2-0.3-0.3-0.5-0.5C558.7,150.3,558.9,150.5,559,150.6z"/>
		<path class="st7" d="M512,181.3c-0.2-0.2-0.3-0.3-0.5-0.5C511.7,181,511.9,181.2,512,181.3z"/>
		<path class="st7" d="M550.4,154.9c-0.2-0.1-0.3-0.2-0.5-0.2C550.1,154.7,550.3,154.8,550.4,154.9z"/>
		<path class="st26" d="M468.5,192.6c0.3,0.4,0.4,0.9,0.8,1.2c1.5,0.9,3.2,1.8,4.7,2.7c0.4,0.3,0.9,0.9,0.9,1.4c0.1,2.5,0,5,0,7.5
			c0,1-0.4,1.2-1.3,0.7c-1.6-0.9-3.1-1.9-4.7-2.9c-0.2-0.1-0.5-0.5-0.5-0.7c-0.3-3.2-0.5-6.5-0.7-9.8c0-0.3,0.3-0.6,0.4-1
			C468.2,192,468.4,192.3,468.5,192.6z"/>
		<path class="st4" d="M460.5,188c0.2,0.4,0.4,0.9,0.8,1.1c1.5,1,3.1,1.9,4.7,2.8c0.2,0.1,0.5,0.4,0.5,0.7c0,3,0,6,0,9.2
			c-0.6-0.2-1-0.4-1.4-0.5c-0.1,0-0.3,0-0.4,0c-1-0.6-2-1.3-2.9-1.9c-0.1,0-0.3,0-0.4,0c-1.1-0.9-1.4-2-1.3-3.4c0.1-2.6,0-5.2,0-7.8
			C460.2,188,460.3,188,460.5,188z"/>
		<path class="st22" d="M461.3,199.2c0.1,0,0.3,0,0.4,0c1,0.6,2,1.3,2.9,1.9c0.1,0,0.3,0,0.4,0c0.2,0.3,0.4,0.5,0.6,0.8
			c0.2,0.3,0.4,0.6,0.6,0.9c-0.1,0-0.1,0-0.2,0c-0.3-0.1-0.5-0.3-0.9-0.5c0.1,0.5,0.1,0.8,0.2,1.1c-0.6,0.3-1.3,0.6-1.9,0.9
			c-0.7,0-1.5,0-2.2,0c-1.3-0.7-2.6-1.4-4-2.2c-0.6-0.3-1.2-0.7-1.9-1c0.9-0.6,1.8-1.3,2.8-1.8c0.5-0.3,0.9-0.4,0.4-1
			c0.3-0.9,0.6-0.9,1.2-0.1C460.2,198.6,460.8,198.9,461.3,199.2z"/>
		<path class="st27" d="M468.5,192.6c-0.1-0.3-0.2-0.5-0.3-0.8c0.7-0.9,1.4-1.7,2.2-2.6c1-1.2,0.8-2.3-0.5-3.1
			c-0.6-0.4-1.2-0.9-1.7-1.3c1,0.5,2,0.9,2.9,1.5c0.3,0.2,0.3,0.9,0.4,1.4c0.1,0.4,0,0.9,0,1.3v0c0,0.1,0,0.2,0,0.3
			C470.4,190.4,469.4,191.4,468.5,192.6z"/>
		<path class="st27" d="M472.5,188c0.4-0.8,0.9-0.4,1.3-0.1c2,1.1,3.9,2.3,5.8,3.5c0.3,1.5-0.5,2.6-1.5,3.5c-0.7,0.6-1.3,1.2-2,1.8
			c0.2-0.4,0.4-0.8,0.7-1.1c0.6-0.8,1.4-1.4,2-2.2c0.6-0.8,0.6-1.5-0.3-2.1c-1.7-1-3.4-2.1-5.1-3.1C473.2,188,472.8,188,472.5,188z"
			/>
		<path class="st24" d="M460.5,188c-0.2,0-0.3,0-0.5,0.1c0.1-2.1,1.8-3,3.1-4.1c0.2,0,0.4,0.1,0.7,0.1c-0.9,1-1.7,1.9-2.5,2.9
			C460.9,187.2,460.7,187.6,460.5,188z"/>
		<path class="st4" d="M465.8,183.5c0.6,0.4,1.1,0.8,1.7,1.1C466.9,184.2,466.3,183.8,465.8,183.5z"/>
		<path class="st4" d="M464.4,183.4c0.1-0.2,0.3-0.4,0.4-0.6c0.1,0.2,0.3,0.3,0.4,0.5C464.9,183.3,464.6,183.4,464.4,183.4z"/>
		<path class="st4" d="M463.9,183.9c0.1-0.2,0.3-0.3,0.5-0.5C464.2,183.6,464,183.8,463.9,183.9z"/>
		<path class="st13" d="M471.4,189.2c0-0.1,0-0.2,0-0.3C471.3,189,471.4,189.1,471.4,189.2z"/>
		<path class="st13" d="M483.3,206.9"/>
		<path class="st6" d="M572.9,149.4c-0.1-0.1-0.2-0.3-0.3-0.4c0.3,0,0.5,0,0.8-0.1C573.3,149.1,573.1,149.3,572.9,149.4z"/>
		<path class="st17" d="M390,139.4c0,0.2,0,0.5,0,0.7c-0.1,0-0.3,0.1-0.3,0.1c0.2,1-0.4,1.6-1,2.2c-0.6,0.6-1.1,1.1-1.6,1.8
			c-0.2,0.3-0.2,0.8-0.3,1.1c0.2,0.1,0.4,0.2,0.5,0.3c1.3-1.6,2.6-3.1,3.9-4.7c0.6,0.1,1.2,0,1.7,0.2c1.6,0.8,3.1,1.8,4.7,2.7
			c0.7,1.3,0.6,1.9-0.5,3c-0.8,0.8-1.4,1.8-2.1,2.6c-0.1,0.6-0.3,1.3-0.3,1.9c0.1,3,0.3,5.9,0.5,8.9c-0.3-0.1-0.6-0.2-0.9-0.2
			c-0.2,0-0.5,0-0.7,0c-0.3-0.3-0.6-0.5-1-0.8c0.9,0.1,1-0.4,1-1.1c-0.1-2.6-0.1-5.2-0.3-7.7c0-0.5-0.4-1.1-0.8-1.3
			c-1.4-0.9-2.9-1.8-4.4-2.6c-0.7-0.4-1.2-0.3-1.2,0.7c0.1,2.6,0.1,5.2,0.3,7.9c0,0.4,0.3,0.7,0.5,1.1c-0.9,0.3-0.7-0.5-1-0.9
			c-0.1-0.7-0.2-1.3-0.2-2c0-2.3,0-4.5,0-6.8c0-0.3-0.1-0.6-0.1-0.9c-0.1,0-0.2,0-0.4,0c0,3.2,0,6.4,0,9.6c-0.7,0-1.5,0.2-1.4-0.9
			c0.6,0.3,1,0.3,1-0.5c0-2.6,0-5.3,0-7.9c0-0.3-0.2-0.8-0.4-0.9c-2-1.1-3.9-2.1-5.9-3.2c0.1-0.4,0.2-0.8,0.5-1.1
			c0.8-0.8,1.7-1.5,2.6-2.3c0.1-0.1,0-0.4-0.1-0.5c0-0.2,0-0.3,0-0.5l0,0c0.5-0.4,1.1-0.8,1.6-1.2
			C385.8,137.1,387.9,138.3,390,139.4z"/>
		<path class="st22" d="M392.7,159.2c0.3,0.3,0.6,0.5,1,0.8c-1.6,0.9-3.2,1.8-4.8,2.6c-0.1-0.2-0.2-0.5-0.3-0.6
			c-2.1-1.2-4.1-2.4-6.2-3.5c0.6-0.5,1.3-1.1,1.9-1.6c0-0.1-0.1-0.2-0.2-0.3c-0.8,0.4-1.5,0.9-2.3,1.1c-0.5,0.2-0.9,1.2-1.7,0.5
			c0.8-0.8,0-1-0.5-1.3c-1.6-1-3.3-1.9-5-2.9c1.4-0.9,2.9-1.8,4.3-2.6c0.2,0.1,0.4,0.1,0.5,0.2c0.1,0,0.3,0,0.4,0
			c1.4,0.9,2.8,1.7,4.1,2.6c0.1,0,0.3,0,0.4,0c0,1.1,0.8,0.9,1.4,0.9c0.2,0,0.5,0,0.7,0c0.2,0.4,0,1.2,1,0.9c1,0.6,1.9,1.1,2.9,1.7
			c0.2,0.1,0.3,0.1,0.5,0.2c0.3,0.2,0.6,0.4,1,0.5c0.2,0.1,0.5,0.3,0.7,0.4C392.7,159.1,392.7,159.1,392.7,159.2z"/>
		<path class="st17" d="M384.1,154.2c-1.4-0.9-2.8-1.7-4.1-2.6C381.3,152.4,382.7,153.3,384.1,154.2z"/>
		<path class="st17" d="M379.5,151.5c-0.2-0.1-0.4-0.1-0.5-0.2c0-0.1,0-0.2,0-0.3C379.2,151.2,379.4,151.4,379.5,151.5z"/>
		<path class="st26" d="M382.1,137.2c0,0.2,0,0.3,0,0.5c-0.2-0.2-0.4-0.3-0.5-0.5C381.8,137.2,382,137.2,382.1,137.2z"/>
		<path class="st3" d="M554.5,159.9c0,1.1,0,2.2,0,3.3c0.1,1-0.2,2,0.6,3c0.4,0.5,0.1,1.7,0.1,2.6c-0.2,0.1-0.5,0.2-0.7,0.2
			c0,0.2,0,0.5,0,0.7c-1.8,1-3.5,2.1-5.3,3.1c-0.2,0.1-0.4,0.4-0.5,0.5c-0.2-0.3-0.5-0.6-0.5-0.9c0-2.7,0.1-5.3,0.1-8
			c0-0.4-0.2-0.7-0.4-1.1c1.2-0.6,2.4-1.1,3.5-1.8C552.5,161.1,553.5,160.5,554.5,159.9z"/>
		<path class="st3" d="M499.1,191.9c1.7-0.9,3.3-1.9,5-2.8c0.4-0.2,0.8-0.3,1.2-0.5l0,0c0.1,0.7,0.2,1.4,0.3,2c0,0.5,0,1,0,1.4
			c0,0.3,0,0.6,0,1s0,0.6,0,1c0.2,1.1,0.3,2.1,0.5,3.1c-0.1,0.5-0.3,0.9-0.4,1.4c-0.5,0.2-1,0.3-1.4,0.5c-1.1,0.7-2.2,1.5-3.4,2
			c-0.8,0.3-0.6,0.7-0.5,1.3c-0.9-0.2-1.2-0.8-1.2-1.6c0.1-2.4,0.2-4.8,0.2-7.1C499.3,193,499.2,192.4,499.1,191.9z"/>
		<path class="st3" d="M491.2,196.6c1.9-1.1,3.8-2.1,5.7-3.2c0,1.9,0,3.9,0,5.8c0,1.1,0,2.2,0,3.3c0,0.3-0.1,0.8-0.4,0.9
			c-1,0.6-2,1-2.9,1.7c-0.7,0.5-1.9,0.5-2,1.8c-0.2,0-0.3,0-0.5,0l0,0c0-0.1,0-0.3,0-0.5C491.2,203.2,491.2,199.9,491.2,196.6z"/>
		<path class="st6" d="M491.7,206.9c0-1.3,1.2-1.3,2-1.8c0.9-0.6,2-1.1,2.9-1.7c0.2-0.1,0.4-0.6,0.4-0.9c0-1.1,0-2.2,0-3.3
			c0.2,0.3,0.6,0.5,0.7,0.8c0.1,0.7,0.1,1.5,0.1,2.2c0.1,0.3,0,0.9,0.2,1c1.2,0.8,2.4,1.5,3.6,2.3c-0.4,0.3-0.7,0.6-1.1,0.8
			c-1.5,0.9-3.1,1.7-4.7,2.6c-1.1-0.5-2.2-1-3.3-1.4C492.2,207.2,491.9,207.1,491.7,206.9z"/>
		<path class="st6" d="M500.3,202.3c-0.2-0.5-0.3-0.9,0.5-1.3c1.2-0.5,2.3-1.4,3.4-2c0.4-0.2,0.9-0.4,1.4-0.5
			c1.4,0.8,2.9,1.6,4.3,2.4c-1,0.7-2.1,1.4-3.1,2.2c-0.9,0.4-1.8,0.8-2.7,1.2c-0.1,0-0.3,0-0.5,0c-0.2-0.2-0.5-0.5-0.7-0.7
			C502.1,203.2,501.2,202.8,500.3,202.3z"/>
		<path class="st3" d="M502.9,203.6c0.2,0.2,0.5,0.5,0.7,0.7C503.4,204,503.2,203.8,502.9,203.6z"/>
		<path class="st3" d="M513.3,183.6c0.1,0.8,0.1,1.6,0.2,2.3c0.1,1.2,0.2,2.4,0.2,3.7c-0.7,0.8-0.7,2.8,0,4.1
			c-1.2,0.6-2.5,1.2-3.6,1.9c-0.7,0.4-1.4,1-2.1,1.5c-0.2-0.2-0.6-0.4-0.6-0.7c0-2.5,0.1-5,0.1-7.5c0-0.6-0.3-1.2-0.5-1.9
			c1.7-0.9,3.4-1.7,5-2.6C512.5,184.2,512.9,183.9,513.3,183.6z"/>
		<path class="st6" d="M508,197.1c0.7-0.5,1.4-1.1,2.1-1.5c1.2-0.7,2.4-1.2,3.6-1.9c0.1,0,0.2,0,0.3,0c1.4,0.8,2.7,1.6,4.1,2.4
			c-0.1,0.2-0.2,0.4-0.4,0.5c-1.4,0.8-2.9,1.6-4.3,2.4c-0.3,0.2-0.4,0.7-0.6,1C511.2,199,509.6,198,508,197.1z"/>
		<path class="st12" d="M512.8,199.9c0.2-0.3,0.3-0.8,0.6-1c1.4-0.8,2.9-1.6,4.3-2.4c0.2-0.1,0.3-0.3,0.4-0.5c1,0.6,0.3,1.2-0.1,1.4
			c-1.6,1-3.3,1.8-4.9,2.7C512.9,200.1,512.9,200,512.8,199.9z"/>
		<path class="st23" d="M505.6,194c0-0.3,0-0.6,0-1c0-0.3,0-0.6,0-1c0-0.5,0-1,0-1.4c0.2,0.1,0.7,0.2,0.7,0.3c0.1,0.9,0.1,1.8,0,2.7
			C506.3,193.8,505.8,193.9,505.6,194z"/>
		<polygon class="st0" points="505.3,188.6 505.3,188.6 505.3,188.6 		"/>
		<path class="st6" d="M571.4,159.3c-0.2,0-0.4-0.1-0.6-0.1c-0.4-1-0.3-1.9,0.5-2.7C571.3,157.5,571.4,158.4,571.4,159.3z"/>
		<path class="st3" d="M538,169.5c0,1.5,0,2.9,0,4.4c0,0.4,0,0.8,0.2,1c0.9,1.1,0.7,2.3,0.6,3.5c-0.1,0-0.1,0-0.2-0.1
			c-0.1-0.1-0.1-0.2-0.2-0.4c-0.1,0.1-0.2,0.3-0.3,0.4c0,0.2,0,0.5,0,0.7c-1.2,0.8-2.5,1.6-3.8,2.4c-0.5,0.4-1,0.8-1.5,1.2
			c0.5,0.4,1,0.8,1.5,1.2c0.1,0.1,0.2,0,0.2,0.1c0.5,0.4,1.1,0.9,1.6,1.4c-1.3-0.7-2.6-1.3-3.8-2.1c-0.5-0.3-0.7-1.1-0.8-1.8
			c-0.1-2.9,0-5.7-0.1-8.6c1.6-0.9,3.3-1.8,4.9-2.7C537.1,169.9,537.5,169.8,538,169.5z"/>
		<path class="st22" d="M528.6,189.9c-1.1-0.5-2.2-1.1-3.3-1.6c-0.2-0.1-0.5-0.2-0.7-0.4c0.3-0.4,0.5-1,0.9-1.2
			c1.2-0.8,2.5-1.4,3.7-2.2c0.3-0.2,0.4-0.8,0.5-1.1c0-0.8-0.1-1.6,0-2.4c0-0.2,0.4-0.5,0.7-0.7c0,1,0.1,2,0.1,3
			c0.1,1.4,1.4,1.6,2.3,2.2c0.6,0.5,1.3,0.8,2,1.2c-1.3,0.6-2.7,1.2-4,1.9C530,189.1,529.3,189.5,528.6,189.9z"/>
		<path class="st6" d="M536.3,185.3c-0.5-0.5-1.1-0.9-1.6-1.4c-0.1-0.1-0.2,0-0.2-0.1c-0.5-0.4-1-0.8-1.5-1.2c0.5-0.4,1-0.8,1.5-1.2
			c1.2-0.8,2.5-1.6,3.8-2.4c1.3,0.8,2.7,1.6,4,2.5c0.2,0.1,0.4,0.4,0.6,0.6c-0.7,0.4-1.3,0.7-2,1.1c-1.3,0.7-2.7,1.4-4.1,2.1
			C536.6,185.3,536.4,185.3,536.3,185.3z"/>
		<path class="st3" d="M536.7,185.4c1.4-0.7,2.7-1.4,4.1-2.1c0.7-0.3,1.3-0.7,2-1.1c-0.2,0.4-0.4,1-0.8,1.2
			c-1.7,1.1-3.5,2.1-5.3,3.1C536.7,186.1,536.7,185.7,536.7,185.4z"/>
		<path class="st6" d="M560.9,171c-0.2,0-0.3,0-0.5,0c-1.1-0.7-2.2-1.4-3.4-2.1h0c0.6-0.5,1.2-1.1,1.9-1.5c0.7-0.4,1.4-0.7,2.1-1.1
			c0.9-0.5,1.5-1.1,1.2-2.4c-0.2-0.8,0.1-1.8,0.2-2.7c0.9,0,0.7,0.6,0.7,1.1c0,0.7,0.1,1.4,0.1,2.1c0.1,0.3,0,0.8,0.2,1
			c0.8,0.6,1.7,1.2,2.6,1.8c0,0.4,0.1,0.7,0.2,1.1c-1.5,0.9-3.1,1.8-4.7,2.7C561.3,171,561.1,171,560.9,171z"/>
		<path class="st6" d="M570.8,159.9c0.8,0.8,1.6,1.6,2.8,1.4c0.2,0.3,0.3,0.5,0.5,0.8c0.3,0.4,0.7,0.7,1,1.1
			c-1.3,0.7-2.6,1.4-3.9,2.1c-0.7,0.4-1.3,0.7-1.9,1.1c-1.3-0.7-2.6-1.4-3.8-2.1c0.1-0.3,0.1-0.7,0.3-0.8c1.3-0.8,2.6-1.5,3.9-2.3
			C570.2,160.8,570.5,160.3,570.8,159.9z"/>
		<path class="st11" d="M491.2,196.6c0,3.3,0,6.6,0,9.9c-0.2-0.2-0.7-0.4-0.7-0.6c0-3,0-6,0-8.9c0-0.1,0.1-0.2,0.2-0.3
			C490.9,196.6,491,196.6,491.2,196.6z"/>
		<path class="st0" d="M485.9,191.8c0.2,0,0.4,0,0.6,0c0,0.1,0.1,0.1,0.1,0.2c0,0.2,0,0.3,0,0.5c0,0.3,0,0.6,0,1
			C486.4,192.9,486.2,192.4,485.9,191.8z"/>
		<path class="st10" d="M489.8,195.6c0.2,0.3,0.5,0.5,0.7,0.8C490.2,196.1,490,195.9,489.8,195.6z"/>
		<path class="st10" d="M488.3,193.9c0.2,0.2,0.5,0.5,0.7,0.7C488.8,194.4,488.6,194.2,488.3,193.9z"/>
		<path class="st11" d="M489.8,204.3c-0.1-0.1-0.2-0.3-0.3-0.4C489.6,204,489.7,204.1,489.8,204.3z"/>
		<path class="st10" d="M486.6,192.5c0-0.2,0-0.3,0-0.5c0.2,0.2,0.3,0.3,0.5,0.5C487,192.5,486.8,192.5,486.6,192.5z"/>
		<path class="st6" d="M538.2,178.4c0.1-0.1,0.2-0.3,0.3-0.4c0.1,0.1,0.1,0.2,0.2,0.4C538.5,178.4,538.4,178.4,538.2,178.4z"/>
		<path class="st19" d="M514,193.7c-0.1,0-0.2,0-0.3,0c-0.7-1.3-0.7-3.3,0-4.1l0,0c0.1,0.2,0.1,0.3,0.2,0.5c0,0.8,0,1.6,0,2.4
			C514,192.9,514,193.3,514,193.7z"/>
		<path class="st12" d="M519.5,195.7c0.3,0,0.7,0.1,1,0.1c-0.2,0.1-0.3,0.2-0.5,0.3C519.8,195.9,519.6,195.8,519.5,195.7z"/>
		<path class="st22" d="M394.3,159.9c0.3,0.1,0.6,0.2,0.9,0.2c0.1,0.2,0.2,0.3,0.3,0.5c1,0.7,2,1.5,3,2.1c0.4,0.3,1,0.3,1.5,0.5
			c0.3,0.2,0.6,0.4,1,0.5c0.2,0.3,0.5,0.6,0.8,0.9c-0.2,0.1-0.5,0.1-0.7,0.2c-0.6-0.4-0.8-0.1-0.8,0.5c-1.2,0.7-2.4,1.4-3.6,2.1
			c0.1-0.8-0.2-1.1-0.9-1.5c-1.7-0.9-3.4-2-5-3c0.9-0.6,1.9-1.1,2.7-1.8C393.9,161,394,160.4,394.3,159.9z"/>
		<path class="st22" d="M382.2,158.6c0,0.2,0,0.5,0,0.7C382.2,159.1,382.2,158.9,382.2,158.6z"/>
		<path class="st6" d="M545.2,181c-1.3-0.8-2.7-1.5-4-2.3c-0.2-0.1-0.2-0.4-0.3-0.6c0.1-0.2,0.2-0.5,0.3-0.6
			c1.2-0.7,2.5-1.4,3.8-2.1c0.8-0.4,1.3-0.8,1-2c-0.2-0.9,0.1-2,0.2-3c0.2,0.4,0.4,0.8,0.5,1.1c0.1,0.6,0,1.3,0,2
			c-0.3,1.5,1,1.6,1.8,2.1c0.9,0.6,1.8,1.2,2.8,1.7c-1.6,0.9-3.2,1.8-4.8,2.6c-0.2,0-0.3,0-0.5,0c-0.2,0.2-0.3,0.5-0.5,0.7
			C545.3,180.9,545.2,180.9,545.2,181z"/>
		<path class="st22" d="M398.9,168.1c0.2-0.3,0.4-0.6,0.6-0.8c1.1-0.7,2.3-1.4,3.4-2.1c0.4,0.2,0.9,0.5,1.3,0.7c0.1,0,0.3,0,0.4,0
			c0.9,1.2,2.2,1.8,3.6,2.1c0.2,0.1,0.3,0.3,0.5,0.4c0,0.4,0,0.8,0,1.3c0.4-0.1,0.7-0.1,1-0.2c-0.5,0.4-1,0.8-1.5,1
			c-1,0.6-2.1,1.1-3.1,1.6c-0.2-0.3-0.3-0.8-0.6-0.9C402.7,170.2,400.8,169.1,398.9,168.1z"/>
		<path class="st22" d="M423.6,181.8c0.8-0.5,1.7-1,2.5-1.6c0.4-0.3,0.6-0.9,0.9-1.4c0.2,0.1,0.5,0.2,0.7,0.2
			c0.2,0.2,0.3,0.3,0.5,0.5c0.3,0.2,0.5,0.4,0.8,0.7c0.6,0.3,1.2,0.7,1.9,1c0.2,0.1,0.3,0.2,0.5,0.2c0.3,0.2,0.6,0.4,1,0.5
			c0.2,0.1,0.5,0.3,0.7,0.4c0.2,0.1,0.5,0.2,0.7,0.3c0.1,0.3,0.1,0.6,0.2,0.9l-0.1,0l-0.1,0c-0.5,0-1.1-0.1-0.5,0.7
			c-0.7,0.3-1.4,0.7-2.2,1c-0.1-0.1-0.2-0.3-0.3-0.4c-0.1,0.2-0.1,0.4-0.2,0.6l0,0c-0.5-0.1-1-0.2-1.5-0.2c-1.1-0.6-2.3-1.1-3.4-1.7
			c-0.5-0.3-1-0.6-1.5-0.9C423.9,182.5,423.8,182.1,423.6,181.8z"/>
		<path class="st17" d="M429.1,185.4c0.5,0.1,1,0.2,1.5,0.2c-0.5,0.3-1,0.6-1.5,0.9C429.1,186.1,429.1,185.8,429.1,185.4z"/>
		<path class="st17" d="M409.8,169.6c-0.3,0.1-0.6,0.1-1,0.2c0-0.4,0-0.9,0-1.3c0.8,0.1,1-0.3,1-1c0-2.6,0-5.2,0-7.8
			c0-0.3-0.1-0.8-0.4-0.9c-1.8-1-3.6-2-5.4-3c-0.1,0-0.1,0-0.2-0.1c0-0.3,0-0.6-0.1-0.9c1.1-1.3,2.1-2.7,3.2-4
			c0.3-0.3,0.6-0.6,0.9-1c0.1,0,0.3,0,0.4,0c0.9,0.5,1.7,1,2.6,1.5c1.1,0.7,2.1,1.3,3.2,2l0,0c0,0.8-0.1,1.5-0.1,2.3
			c-0.9,1-1.7,2-2.6,2.9c-0.1,0.3-0.4,0.6-0.4,0.9c0.2,3.3,0.4,6.6,0.6,10c-0.5,0-1-1-1.4,0.1C410,169.6,409.9,169.6,409.8,169.6z"
			/>
		<path class="st22" d="M410.1,169.6c0.4-1.1,0.9,0,1.4-0.1c0.3,0.3,0.5,0.6,0.8,0.9c0.2,0.2,0.5,0.3,0.7,0.5
			c0.6,0.4,1.3,0.8,1.9,1.2c0.2,0.1,0.5,0.2,0.7,0.3c0.3,0.2,0.6,0.4,1,0.5c0.3,0.5,0.7,0.9,1,1.4c-0.3,0.2-0.6,0.3-1,0.5
			c-0.6-0.3-0.8-0.1-0.8,0.5c-0.8,0.8-1.6,1.4-2.9,1.4c-1.2-0.8-2.3-1.7-3.5-2.4c-1-0.6-2-1-3-1.5c0.9-0.6,1.9-1.2,2.7-2
			C409.6,170.6,410.7,170.6,410.1,169.6z"/>
		<path class="st22" d="M450.5,193c-0.5,0.4-1,0.8-1.5,1.1c-1.1,0.6-2.3,1.1-3.4,1.6c-1.3-0.9-2.5-1.9-3.8-2.7
			c-0.8-0.5-1.8-0.8-2.7-1.1c0.5-0.4,1-0.9,1.5-1.3c0.7-0.5,1.5-1,2.1-1.7c-0.6,0.2-1.3,0.4-2,0.6c-0.1-0.1-0.2-0.3-0.3-0.4
			c0,0.1-0.1,0.1-0.1,0.2c0.1,0.1,0.3,0.2,0.5,0.2c-0.3,0.2-0.6,0.3-0.9,0.5c-0.3-0.2-0.7-0.5-0.7-0.4c-0.5,0.8-1.4,0.2-2,0.4
			c-1.8-1-3.7-1.9-5.5-2.9c0.9-0.7,1.7-1.4,2.6-2.1c0.2-0.2,0.4-0.3,0.6-0.5c0.4-0.1,0.8-0.2,1.2-0.2l0,0c0.7,1,1.7,1.5,2.9,1.7
			c1,0.6,1.9,1.1,2.9,1.7c0.1,0.3,0.3,0.6,0.4,0.9c0.3-0.1,0.5-0.3,0.8-0.4c-0.2-0.3-0.3-0.5-0.5-0.8c0-3,0-6.1,0-9.1
			c0.3-0.2,0.6-0.5,0.9-0.7c0.1,0,0.2,0,0.2,0c0,0.3,0,0.6,0,0.9c0,2.1,0,4.2-0.1,6.3c0,1.4,0.1,2.7,0.2,4.1c0,0.2,0.4,0.3,0.6,0.4
			c0.2,0.1,0.5,0.2,0.7,0.3c1.4,0.9,2.8,1.7,4.1,2.6c0.1,0,0.3,0,0.4,0.1C449.4,192.9,449.8,193.1,450.5,193z"/>
		<path class="st1" d="M437,189.9c0.7-0.2,1.5,0.4,2-0.4c0,0,0.5,0.3,0.7,0.4c-0.7,0.4-1.5,0.8-2.2,1.2
			C437.4,190.7,437.2,190.3,437,189.9z"/>
		<path class="st6" d="M516.8,192.8c-0.2-0.1-0.5-0.2-0.7-0.3c0.2-0.2,0.2-0.6,0.5-0.7c1.7-1.1,3.5-2.1,5.3-3.1
			c1.5,0.9,2.9,1.9,4.4,2.8c-1.6,0.9-3.2,1.9-4.9,2.8c-0.4,0.2-0.9,0.1-1.4,0.2c-0.2,0-0.3,0-0.5,0c-0.2-0.2-0.5-0.4-0.8-0.7
			c-0.2,0-0.3,0-0.4,0C517.8,193.4,517.3,193.1,516.8,192.8z"/>
		<path class="st10" d="M528.6,191.1c0-0.3,0-0.6,0-0.9c0.6,0.1,1.1,0.1,1.7,0.2c-0.4,0.3-0.8,0.6-1.2,0.9c-0.1,0-0.1,0-0.2,0
			C528.8,191.2,528.7,191.1,528.6,191.1z"/>
		<path class="st22" d="M447.5,196.3c1.3-0.9,2.5-1.8,3.9-2.7c-0.2-0.2-0.3-0.4-0.5-0.5c0-0.4,0-0.8,0-1.2c0-0.7,0.3-1,1-1
			c0,0.3,0,0.6,0,0.9c0,0.2,0,0.3,0,0.5c0,0.4,0,0.8,0,1.1c0.2,0.2,0.3,0.3,0.5,0.5h0.1l0.1,0c0.3,0.6,1.4,1.2,2.1,1.2
			c0.3,0.2,0.6,0.3,1,0.5c0.8,0.6,1.6,1.1,2.4,1.6c0,0.3,0,0.6,0,0.9c-1.6,0.9-3.2,1.7-4.8,2.6c0.3-0.6,0.1-1.1-0.5-1.4
			C451,198.4,449.3,197.4,447.5,196.3z"/>
		<path class="st17" d="M417.6,174.3c-0.3-0.5-0.7-0.9-1-1.4c0.4,0.1,0.9,0.2,1.4,0.4c0-2.8,0-5.5,0-8.2c0-0.9-0.4-1.4-1.1-1.8
			c-1.6-0.9-3.2-1.8-4.7-2.8c-0.3-0.2-0.4-0.8-0.6-1.2c0.9-1,1.7-1.9,2.6-2.9c0.2-0.2,0.3-0.3,0.5-0.5c0.3-0.2,0.5-0.5,0.8-0.6
			c0.3-0.1,0.8-0.3,1.1-0.2c1.6,0.9,3.2,1.8,4.8,2.8c1.1,0.7,1.2,1.5,0.3,2.5c-0.7,0.8-1.4,1.6-2.1,2.3c-0.5,0.6-0.6,1.1,0,1.8
			c0.7-0.8,1.3-1.5,2-2.3c0.6-0.7,1.1-1.5,1.7-2.2c0.1,0,0.1,0,0.2-0.1c0.2-0.1,0.3-0.3,0.5-0.5l0,0c0.3,0.1,0.6,0.2,1,0.3
			c0.5,0.2,0.9,0.5,1.4,0.7c0.8,0.5,1.5,1,2.3,1.5c0.9,0.6,2,0.9,1.9,2.3c0,0.1,0,0.3,0,0.5c-0.6,0.5-1.3,1-1.7,1.6
			c-0.6,0.8-1.8,1.4-1.5,2.7c-0.1,0.4-0.2,0.9-0.2,1.3c0.1,2.9,0.3,5.9,0.4,8.8c-0.2-0.1-0.5-0.2-0.7-0.2c-0.2,0-0.5,0-0.7,0
			c-0.9-0.6-1.8-1.3-2.6-1.9c0.7,0.3,1.5,0.6,2.2,1c0.1-0.2,0.2-0.2,0.2-0.3c0-1.8-0.1-3.6,0.1-5.4c0.2-2.5-0.1-4.6-3-5.3
			c-0.1,0-0.2-0.2-0.3-0.2c-1-0.6-2-1.1-3.3-1.8c0,2.3,0,4.2,0,6.1c0,0.9-0.1,1.7-0.2,2.6c-0.1-0.4-0.3-0.8-0.3-1.2
			c0-1.9,0-3.9,0-5.9c0-0.3-0.1-0.6-0.1-0.9c-0.1,0-0.2,0-0.4,0c0,2.8,0,5.7,0,8.5C418.2,174.2,417.9,174.3,417.6,174.3z"/>
		<path class="st22" d="M423.6,177c0.9,0.6,1.8,1.3,2.6,1.9c-0.4,0.2-0.8,0.3-1.2,0.5c-0.6-0.3-0.8-0.1-0.7,0.5
			c-0.2,0.1-0.3,0.3-0.5,0.4c-0.2-0.1-0.4-0.2-0.5-0.4c-0.1,0.2-0.1,0.4-0.2,0.6c-0.2,0.1-0.3,0.3-0.5,0.4c0-0.2-0.1-0.4-0.2-0.9
			c-0.2,0.6-0.4,1-0.5,1.3c-0.1,0-0.2,0-0.3,0.1c-0.2-0.2-0.5-0.3-0.7-0.5c-1-0.7-2-1.4-3-2.1c-0.9-0.6-1.9-1.1-2.8-1.6
			c1.4-0.9,2.7-1.8,4-2.6c0.3,0.1,0.5,0.2,0.8,0.2c0.1,0,0.1,0,0.2,0c1,0.6,1.9,1.3,2.9,1.9C423.3,176.9,423.4,177,423.6,177z"/>
		<path class="st22" d="M418.6,174.1c0-2.8,0-5.7,0-8.5c0.1,0,0.2,0,0.4,0c0,0.3,0.1,0.6,0.1,0.9c0,1.9,0,3.9,0,5.9
			c0,0.4,0.2,0.8,0.3,1.2c0,0.2,0,0.4,0,0.7c0,0-0.1,0.1-0.1,0.1C419,174.3,418.8,174.2,418.6,174.1z"/>
		<path class="st17" d="M415.9,175.3c-0.1-0.6,0.1-0.9,0.8-0.5C416.4,175,416.2,175.1,415.9,175.3z"/>
		<path class="st17" d="M420,175c-0.3-0.1-0.5-0.2-0.8-0.2c0-0.1,0-0.3,0-0.4c0,0,0.1-0.1,0.1-0.1C419.6,174.5,419.8,174.8,420,175z
			"/>
		<path class="st17" d="M463.4,204.3c0,0.2,0,0.4,0,0.7c-0.6,0.2-1.2,0.4-1.8,0.6c-0.1-0.4-0.2-0.9-0.3-1.3
			C462,204.3,462.7,204.3,463.4,204.3z"/>
		<path class="st1" d="M458.1,198.3c0-0.3,0-0.6,0-0.9c0-0.1,0-0.1,0-0.2c0.2-0.4,0.4-0.7,0.5-1.1c0.1-1.3,0-2.5,0-3.8
			c0.1-1.2,0.1-2.5,0.2-3.7c0.1-1.2-0.4-1.8-1.5-2c-0.6-0.3-1.2-0.6-1.9-1c-0.2-0.1-0.4-0.3-0.5-0.4c-0.2-0.1-0.4-0.2-0.6-0.3
			c-0.3-0.2-0.6-0.3-1-0.5c-0.1-0.1-0.2-0.2-0.2-0.2c-0.1-0.4-0.2-0.7-0.3-1.1c1.2-1.4,2.4-2.8,3.6-4.2c0.5,0.1,1,0.2,1.5,0.3
			c0.1,0.1,0.2,0.1,0.2,0.2c0.2,0.1,0.3,0.2,0.5,0.2c1.2,0.6,2.4,1.2,3.6,1.8c1,0.6,1,1.5,0.8,2.5c-1.3,1.2-3,2.1-3.1,4.1
			c0,2.6,0.1,5.2,0,7.8c0,1.4,0.2,2.5,1.3,3.4c-0.5-0.4-1.1-0.6-1.5-1.1c-0.6-0.8-0.9-0.8-1.2,0.1
			C458.4,198.3,458.3,198.3,458.1,198.3z"/>
		<path class="st17" d="M401.8,164.8c-0.2-0.3-0.5-0.6-0.8-0.9c0.2-0.3,0.7-0.6,0.7-0.9c0-2.6,0-5.3,0-7.9c0-0.4-0.3-0.9-0.6-1
			c-1.7-1.1-3.5-2.1-5.3-3.2c-0.2-0.1-0.4-0.5-0.5-0.8c0.5-0.4,1-0.9,1.4-1.3c0.9-1.1,1.8-2.2,2.7-3.2l0,0c1.1,0.4,2.2,0.8,3.4,1.2
			c0.1,0,0.2,0.1,0.4,0.1c1.1,0.7,2.1,1.4,3.2,2.1c-0.1,0.6-0.1,1.1-0.2,1.6c-1,1.1-2.1,2.2-3.1,3.3c-0.8-0.1-0.7,0.5-0.7,1.1
			c0,2.8,0,5.5,0,8.2c0,0.5-0.1,1-0.2,1.5C402,164.8,401.9,164.8,401.8,164.8z"/>
		<path class="st22" d="M402,164.7c0.1-0.5,0.2-1,0.2-1.5c0-2.8,0-5.5,0-8.2c0-0.5-0.1-1.1,0.7-1.1c0,0.3,0,0.6,0,0.9
			c0,0.2,0,0.3,0,0.5c0.1,0.2,0.1,0.3,0.2,0.5c-0.1,1.8-0.1,3.5-0.2,5.2c-0.3,1.1-0.6,2.1,0.2,3.1c0,0.2,0,0.5,0.1,0.7
			c-0.1,0-0.2,0-0.3,0C402.6,164.9,402.3,164.8,402,164.7z"/>
		<path class="st17" d="M403,165c0.1,0,0.2,0,0.3,0c0.3,0.3,0.7,0.6,1,0.9c-0.4-0.2-0.9-0.5-1.3-0.7C403,165.1,403,165,403,165z"/>
		<path class="st17" d="M400.4,165.5c-0.1-0.6,0.1-0.9,0.8-0.5C400.9,165.2,400.6,165.3,400.4,165.5z"/>
		<path class="st17" d="M433.9,183.7c-0.1-0.3-0.1-0.6-0.2-0.9c0.2-0.4,0.5-0.8,0.5-1.2c0-1.8-0.1-3.7,0.1-5.5
			c0.2-2.1-0.5-3.4-2.4-4.2c-1-0.4-2-1-2.9-1.6c-0.4-0.3-0.7-0.8-1-1.2c1.2-1.4,2.5-2.8,3.8-4.1c0.3-0.3,1.1-0.4,1.5-0.2
			c1.2,0.6,2.3,1.3,3.5,2c2,1.2,2,1.2,1.4,3.5c-0.8,1-1.6,1.9-2.5,2.9c-0.1,0.1-0.3,0.1-0.3,0.2c0,2.1,0,4.1,0,6.2
			c0,1.3,0.2,2.6,0.3,4c-0.1-0.1-0.2-0.2-0.4-0.2c-0.2,0.1-0.3,0.1-0.5,0.2c-0.2,0.1-0.3,0.2-0.5,0.3
			C434.2,183.7,434,183.7,433.9,183.7z"/>
		<path class="st14" d="M434.4,183.7c0.2-0.1,0.3-0.2,0.5-0.3c0.2-0.1,0.3-0.1,0.5-0.2c0.1,0.1,0.2,0.2,0.4,0.2
			c0,0.2,0.1,0.5,0.1,0.7c-0.4,0.1-0.8,0.2-1.2,0.2C434.5,184.2,434.5,183.9,434.4,183.7z"/>
		<path class="st17" d="M433.2,184.4c-0.5-0.8,0.1-0.7,0.5-0.7C433.5,183.9,433.4,184.1,433.2,184.4z"/>
		<path class="st17" d="M430.6,185.6c0.1-0.2,0.1-0.4,0.2-0.6c0.1,0.1,0.2,0.3,0.3,0.4C430.9,185.5,430.7,185.5,430.6,185.6z"/>
		<path class="st3" d="M521.9,188.7c-1.8,1-3.5,2.1-5.3,3.1c-0.2,0.1-0.3,0.4-0.5,0.7c-0.2-0.4-0.5-0.8-0.5-1.2c0-2,0-4.1,0-6.1
			c0-1-0.2-2-0.2-2.9c1.6-0.8,3.2-1.7,4.7-2.5c0.5-0.2,1-0.5,1.5-0.7c0,1.1,0,2.2,0,3.3c0,0.9-0.2,1.8,0.6,2.8
			c0.5,0.6,0.1,1.8,0.2,2.7C522.2,188.1,522,188.4,521.9,188.7z"/>
		<path class="st6" d="M554.5,169.1c0.2-0.1,0.5-0.2,0.7-0.2c0,0.1,0,0.1,0,0.2C555,169,554.8,169,554.5,169.1z"/>
		<path class="st12" d="M452.8,183.1c0.1,0.4,0.2,0.7,0.3,1.1c-0.9-0.1-1.3,0.2-1.2,1.1c0.2,1.5-0.4,3,0.2,4.5
			c0.1,0.3-0.1,0.7-0.2,1.1c-0.7-0.1-1,0.3-1,1c0,0.4,0,0.8,0,1.2c-0.1,0-0.3,0-0.5,0c-0.7,0.1-1.1-0.2-1-1c0.8,0,1-0.4,1-1.1
			c0-2.4,0-4.7,0-7c0-0.6-0.5-1.3-0.9-1.6c-1.4-1-3-1.7-4.5-2.7c-0.4-0.2-0.5-0.8-0.8-1.2c1-1.2,1.9-2.3,2.9-3.5
			c0.2-0.3,0.5-0.5,0.7-0.8c0.6-0.4,1-0.5,1.7,0c0.8,0.6,1.7,0.9,2.6,1.4c0.4,0.2,0.7,0.4,1.1,0.6c0.2,0.1,0.4,0.2,0.6,0.4
			c0.2,0.1,0.4,0.2,0.6,0.4c0.6,1.1,0.5,2.1-0.5,3c-0.7,0.6-1.3,1.3-1.8,2C451.5,182.6,451.8,183.1,452.8,183.1z"/>
		<path class="st3" d="M545.2,181c0.1-0.1,0.2-0.1,0.2-0.2c0.2-0.2,0.3-0.5,0.5-0.7c0.2,0,0.3,0,0.5,0c0,0.3,0,0.5,0,0.8
			c-0.4,0.2-0.7,0.3-1.1,0.5C545.2,181.2,545.2,181.1,545.2,181z"/>
		<path class="st4" d="M491.7,206.9c0.2,0.2,0.5,0.3,0.7,0.5c-0.4,0.1-0.8,0.1-1.1,0.2c0-0.2,0-0.4-0.1-0.6
			C491.4,206.9,491.5,206.9,491.7,206.9z"/>
		<path class="st17" d="M424.3,179.9c-0.1-0.6,0.1-0.8,0.7-0.5C424.8,179.5,424.6,179.7,424.3,179.9z"/>
		<path class="st17" d="M423.1,180.6c0.1-0.2,0.1-0.4,0.2-0.6c0.2,0.1,0.4,0.2,0.5,0.4C423.6,180.4,423.4,180.5,423.1,180.6z"/>
		<path class="st28" d="M438.2,170.2c0.6-2.3,0.6-2.3-1.4-3.5c-1.2-0.7-2.3-1.4-3.5-2c-0.4-0.2-1.2-0.1-1.5,0.2
			c-1.3,1.3-2.5,2.7-3.8,4.1c-0.2,0-0.4,0-0.5,0c-0.3-1.3,0.9-1.8,1.5-2.7c0.5-0.6,1.1-1.1,1.7-1.6c0.3-0.1,0.8-0.2,1-0.4
			c0.6-0.6,1-0.7,1.8-0.2c1.6,1,3.2,1.8,4.8,2.9c0.4,0.3,0.6,0.9,0.9,1.4c0.1,0.3,0.1,0.7,0.1,1.3c1.1-1.5,2-1.1,3.1-0.3
			c1.2,0.8,2.5,1.4,3.8,2.1c0.3,0.2,0.5,0.5,0.7,0.8l0,0.1c-1.4-0.8-2.8-1.5-4.2-2.4c-1.7-1.1-1.7-1.1-3.2,0.2
			c-0.1,0.1-0.3,0.2-0.5,0.3C438.5,170.4,438.4,170.3,438.2,170.2z"/>
		<path class="st27" d="M423.4,160c-0.6,0.8-1.1,1.5-1.7,2.2c-0.6,0.8-1.3,1.5-2,2.3c-0.6-0.7-0.6-1.2,0-1.8
			c0.7-0.8,1.4-1.5,2.1-2.3c0.9-1,0.8-1.8-0.3-2.5c-1.6-1-3.2-1.9-4.8-2.8c-0.3-0.1-0.8,0.1-1.1,0.2c-0.3,0.1-0.6,0.4-0.8,0.6
			c0.5-1.6,1.1-1.9,2.5-1c1.5,0.9,3.1,1.9,4.7,2.7c0.7,0.4,0.9,0.8,0.9,1.5C422.9,159.4,423.2,159.7,423.4,160z"/>
		<path class="st27" d="M452.8,183.1c-0.9,0-1.2-0.5-0.6-1.3c0.5-0.7,1.2-1.4,1.8-2c0.9-0.9,1-1.9,0.5-3c1.4,0,0.5,1.3,1,1.8
			c0.6,0.4,1-1.1,1.7-0.2c-0.2,0.2-0.5,0.3-0.8,0.5C455.2,180.2,454,181.7,452.8,183.1z"/>
		<path class="st27" d="M399.4,145.6c-0.9,1.1-1.8,2.2-2.7,3.2c-0.4,0.5-0.9,0.9-1.4,1.3c-0.1-0.3-0.2-0.5-0.3-0.8
			c0.7-0.9,1.4-1.8,2.1-2.6c1-1.2,1.2-1.7,0.5-3c1.1,0.4,1.1,0.4,0.9,2.1C398.8,145.7,399.1,145.6,399.4,145.6z"/>
		<path class="st0" d="M391.3,140.8c-1.3,1.6-2.6,3.1-3.9,4.7c-0.2-0.1-0.4-0.2-0.5-0.3c0.1-0.4,0.1-0.8,0.3-1.1
			c0.5-0.6,1-1.2,1.6-1.8c0.6-0.6,1.3-1.2,1-2.2c0,0,0.2-0.1,0.3-0.1c0.1,0.3,0.2,0.6,0.4,1C390.6,141,391,140.9,391.3,140.8z"/>
		<path class="st0" d="M403,154.9c0-0.3,0-0.6,0-0.9c1-1.1,2.1-2.2,3.1-3.3c0.3,0.1,0.5,0.2,0.8,0.3c-1.1,1.3-2.1,2.7-3.2,4
			c-0.1,0-0.3,0-0.5,0C403.1,154.9,403.1,154.9,403,154.9z"/>
		<path class="st27" d="M447.1,174.9c-1,1.2-1.9,2.3-2.9,3.5c-0.2,0-0.4,0-0.6,0c0-0.3,0-0.6,0-0.9c0.1-0.2,0.3-0.3,0.4-0.5
			c0.9-0.9,1.8-1.8,2.6-2.6c0.1,0,0.2,0,0.3,0C446.9,174.5,447,174.7,447.1,174.9z"/>
		<path class="st26" d="M390,139.4c-2.1-1.1-4.2-2.2-6.2-3.3c-0.5,0.4-1,0.8-1.6,1.2c0.6-1.7,1.4-2,2.9-1.1c1.5,0.9,3,1.8,4.6,2.7
			C389.8,139,389.9,139.2,390,139.4z"/>
		<path class="st0" d="M414.3,156.4c-0.9,1-1.7,1.9-2.6,2.9c-0.1-0.2-0.2-0.4-0.4-0.6c0.9-1,1.7-2,2.6-2.9c0.1,0,0.2,0.1,0.3,0.1
			C414.2,156,414.2,156.2,414.3,156.4z"/>
		<path class="st28" d="M430.6,164.3c0.1-1.3-1-1.7-1.9-2.3c-0.8-0.5-1.5-1-2.3-1.5c1.2,0.6,2.5,1.1,3.6,1.9c0.5,0.3,0.7,0.9,1,1.4
			C431,163.9,430.7,164.1,430.6,164.3z"/>
		<path class="st27" d="M452.1,175.5c-0.9-0.4-1.8-0.8-2.6-1.4c-0.6-0.5-1.1-0.4-1.7,0c0.3-0.3,0.8-0.8,0.9-0.7
			C449.9,174.1,451,174.8,452.1,175.5z"/>
		<path class="st27" d="M462.2,181.4c-1.2-0.6-2.4-1.2-3.6-1.8c0-0.1,0-0.1,0-0.2l0.1-0.1C459.8,180,461,180.7,462.2,181.4z"/>
		<path class="st27" d="M402.7,146.7c-1.1-0.4-2.2-0.8-3.4-1.2c0.2-0.2,0.6-0.7,0.7-0.6C401,145.5,401.8,146.1,402.7,146.7z"/>
		<path class="st26" d="M414,153.4c-1.1-0.7-2.1-1.3-3.2-2C411.9,152.1,413,152.8,414,153.4z"/>
		<path class="st27" d="M406.3,149c-1.1-0.7-2.1-1.4-3.2-2.1C404.3,147.3,405.7,147.6,406.3,149z"/>
		<path class="st26" d="M414.2,155.8c-0.1,0-0.2-0.1-0.3-0.1c0-0.8,0.1-1.5,0.1-2.3C414.9,154.2,414.4,155,414.2,155.8z"/>
		<path class="st28" d="M446.9,174.3c-0.1,0-0.2,0-0.3,0c0-0.6,0-1.3,0-1.9l0-0.1C446.7,173,446.8,173.7,446.9,174.3z"/>
		<path class="st12" d="M456.4,178.8c0.2-0.2,0.5-0.3,0.8-0.5c0.1,0.1,0.2,0.2,0.2,0.2c0.2,0.2,0.3,0.3,0.5,0.5
			C457.4,179,456.9,178.9,456.4,178.8z"/>
		<path class="st27" d="M457.9,179.1c-0.2-0.2-0.3-0.3-0.5-0.5c0.4,0.2,0.8,0.5,1.2,0.7l-0.1,0.1c-0.1,0-0.3,0-0.5,0
			C458,179.2,458,179.2,457.9,179.1z"/>
		<path class="st27" d="M425,159.7c-0.3-0.1-0.6-0.2-1-0.3c0.2-0.1,0.3-0.3,0.5-0.4C424.7,159.3,424.9,159.5,425,159.7z"/>
		<path class="st27" d="M424,159.4c-0.2,0.1-0.3,0.3-0.5,0.5C423.7,159.8,423.9,159.6,424,159.4z"/>
		<path class="st0" d="M408.2,149.9c-0.1,0-0.3,0-0.4,0c0.1-0.1,0.2-0.3,0.3-0.4C408.1,149.6,408.2,149.8,408.2,149.9z"/>
		<path class="st27" d="M453.8,176.4c-0.2-0.1-0.4-0.2-0.6-0.4C453.4,176.2,453.6,176.3,453.8,176.4z"/>
		<path class="st0" d="M550.7,131.2c0.3-0.7,0.8-0.9,1.4-0.5C551.6,130.9,551.1,131,550.7,131.2z"/>
		<path class="st9" d="M564.1,154c-0.2-0.2-0.3-0.4-0.4-0.5c0.2,0.1,0.3,0.2,0.5,0.3C564.1,153.8,564.1,153.9,564.1,154z"/>
		<path class="st3" d="M563.1,152.5c-0.1-0.2-0.3-0.3-0.4-0.5C562.8,152.2,562.9,152.4,563.1,152.5z"/>
		<path class="st12" d="M516.8,192.8c0.5,0.3,1,0.6,1.5,0.9C517.8,193.4,517.3,193.1,516.8,192.8z"/>
		<path class="st12" d="M518.7,193.8c0.2,0.2,0.5,0.4,0.8,0.7C519.2,194.2,519,194,518.7,193.8z"/>
		<path class="st3" d="M514,190.1c-0.1-0.2-0.1-0.3-0.2-0.5C513.8,189.8,513.9,190,514,190.1z"/>
		<path class="st3" d="M557.1,168.8c1.1,0.7,2.2,1.4,3.4,2.1C559.4,170.2,558.2,169.5,557.1,168.8z"/>
		<path class="st1" d="M464.6,201.1c-1-0.6-2-1.3-2.9-1.9C462.7,199.9,463.7,200.5,464.6,201.1z"/>
		<path class="st1" d="M466.1,202.9c-0.2,0.2-0.5,0.3-0.7,0.5c-0.1-0.3-0.1-0.6-0.2-1.1C465.5,202.6,465.8,202.7,466.1,202.9z"/>
		<path class="st26" d="M395,149.3c0.1,0.3,0.2,0.5,0.3,0.8c0.2,0.3,0.3,0.6,0.5,0.8c1.8,1.1,3.5,2.1,5.3,3.2c0.3,0.2,0.6,0.7,0.6,1
			c0,2.6,0,5.3,0,7.9c0,0.3-0.5,0.6-0.7,0.9c-0.3-0.2-0.6-0.4-1-0.5c-1.5-0.9-3-1.8-4.6-2.6c-0.1-0.2-0.2-0.3-0.3-0.5
			c-0.2-3-0.4-5.9-0.5-8.9C394.7,150.6,394.9,150,395,149.3z"/>
		<path class="st4" d="M391.9,158.6c-0.3-0.2-0.6-0.4-1-0.5c-0.2-0.1-0.3-0.1-0.5-0.2c-1-0.6-1.9-1.1-2.9-1.7
			c-0.2-0.4-0.5-0.7-0.5-1.1c-0.1-2.6-0.2-5.2-0.3-7.9c0-1,0.5-1.1,1.2-0.7c1.5,0.8,3,1.6,4.4,2.6c0.4,0.3,0.8,0.9,0.8,1.3
			c0.1,2.6,0.2,5.2,0.3,7.7c0,0.7-0.1,1.2-1,1.1c0-0.1,0-0.1,0-0.2C392.4,158.8,392.2,158.7,391.9,158.6z"/>
		<path class="st6" d="M386.7,155.1c-0.2,0-0.5,0-0.7,0c0-3.2,0-6.4,0-9.6c0.1,0,0.2,0,0.4,0c0,0.3,0.1,0.6,0.1,0.9
			c0,2.3,0,4.5,0,6.8C386.5,153.8,386.6,154.5,386.7,155.1z"/>
		<path class="st17" d="M391.9,158.6c0.2,0.1,0.5,0.3,0.7,0.4C392.4,158.8,392.2,158.7,391.9,158.6z"/>
		<path class="st17" d="M390.5,157.8c0.2,0.1,0.3,0.1,0.5,0.2C390.8,157.9,390.7,157.9,390.5,157.8z"/>
		<path class="st7" d="M505.6,192.1c0,0.3,0,0.6,0,1C505.6,192.7,505.6,192.4,505.6,192.1z"/>
		<path class="st17" d="M395.5,160.7c1.5,0.9,3,1.8,4.6,2.6c-0.5-0.2-1.1-0.2-1.5-0.5C397.5,162.1,396.5,161.4,395.5,160.7z"/>
		<path class="st18" d="M389.8,163.1c0,0,0.1-0.1,0.1-0.1C389.9,163,389.8,163,389.8,163.1C389.8,163.1,389.8,163.1,389.8,163.1z"/>
		<path class="st12" d="M545.9,180.1c-0.2,0.2-0.3,0.5-0.5,0.7C545.5,180.6,545.7,180.3,545.9,180.1z"/>
		<path class="st4" d="M404.2,165.9c-0.3-0.3-0.7-0.6-1-0.9c0-0.2,0-0.5-0.1-0.7c0-1,0-2.1,0.1-3.1c0.7,0.1,0.7-0.4,0.7-0.9
			c0-1.4,0-2.9,0-4.4c1.8,1,3.6,1.9,5.4,3c0.2,0.1,0.4,0.6,0.4,0.9c0,2.6,0,5.2,0,7.8c0,0.7-0.2,1.1-1,1c-0.2-0.1-0.3-0.3-0.5-0.4
			c-1.2-0.7-2.4-1.4-3.6-2.1C404.5,165.9,404.4,165.9,404.2,165.9z"/>
		<path class="st17" d="M404.6,165.9c1.2,0.7,2.4,1.4,3.6,2.1C406.8,167.7,405.6,167.1,404.6,165.9z"/>
		<path class="st26" d="M427.4,169.1c0.2,0,0.4,0,0.5,0c0.3,0.4,0.6,0.9,1,1.2c0.9,0.6,1.9,1.2,2.9,1.6c1.9,0.8,2.6,2.1,2.4,4.2
			c-0.2,1.8,0,3.7-0.1,5.5c0,0.4-0.3,0.8-0.5,1.2c-0.2-0.1-0.5-0.2-0.7-0.3c-0.2-0.1-0.5-0.3-0.7-0.4c-0.3-0.2-0.6-0.4-1-0.5
			c-0.2-0.1-0.3-0.2-0.5-0.2c-0.6-0.3-1.2-0.7-1.9-1c-0.3-0.2-0.5-0.4-0.8-0.7c-0.2-0.2-0.3-0.3-0.5-0.5c-0.1-2.9-0.3-5.9-0.4-8.8
			C427.2,169.9,427.3,169.5,427.4,169.1z"/>
		<path class="st17" d="M428.1,179.6c0.3,0.2,0.5,0.4,0.8,0.7C428.7,180.1,428.4,179.8,428.1,179.6z"/>
		<path class="st17" d="M432.2,182c0.2,0.1,0.5,0.3,0.7,0.4C432.7,182.3,432.5,182.2,432.2,182z"/>
		<path class="st17" d="M430.8,181.3c0.2,0.1,0.3,0.2,0.5,0.2C431.1,181.4,430.9,181.4,430.8,181.3z"/>
		<path class="st26" d="M411.3,158.7c0.1,0.2,0.2,0.4,0.4,0.6c0.2,0.4,0.3,1,0.6,1.2c1.5,1,3.1,1.9,4.7,2.8c0.7,0.4,1.1,0.9,1.1,1.8
			c0,2.7,0,5.4,0,8.2c-0.6-0.1-1-0.2-1.4-0.4c-0.3-0.2-0.6-0.4-1-0.5c-0.2-0.1-0.5-0.2-0.7-0.3c-0.6-0.4-1.3-0.8-1.9-1.2
			c-0.2-0.2-0.5-0.3-0.7-0.5c-0.3-0.3-0.5-0.6-0.8-0.9c-0.2-3.3-0.4-6.6-0.6-10C410.9,159.3,411.2,159,411.3,158.7z"/>
		<path class="st23" d="M403.9,155.9c0,1.4,0,2.9,0,4.4c0,0.5,0,1-0.7,0.9c-0.1,0-0.1,0-0.2,0c0.1-1.8,0.1-3.5,0.2-5.2
			c0.2,0,0.4,0,0.6,0C403.8,155.8,403.9,155.9,403.9,155.9z"/>
		<path class="st4" d="M403.8,155.8c-0.2,0-0.4,0-0.6,0c-0.1-0.2-0.1-0.3-0.2-0.5c0.1-0.2,0.2-0.3,0.2-0.5c0.1,0,0.3,0,0.5,0
			C403.7,155.2,403.7,155.5,403.8,155.8z"/>
		<path class="st17" d="M412.3,170.5c0.2,0.2,0.5,0.3,0.7,0.5C412.8,170.8,412.6,170.6,412.3,170.5z"/>
		<path class="st17" d="M415,172.1c0.2,0.1,0.5,0.2,0.7,0.3C415.4,172.3,415.2,172.2,415,172.1z"/>
		<path class="st4" d="M435.8,184.1c0-0.2-0.1-0.5-0.1-0.7c-0.1-1.3-0.2-2.6-0.3-4c0-2.1,0-4.1,0-6.2c0-0.1,0.2-0.1,0.3-0.2
			c0,0.2,0.1,0.4,0.1,0.6c0.4,0.4,0.7,0.9,1.1,1.2c1.8,1.1,3.6,2.2,5.4,3.3c0,3,0,6.1,0,9.1c-0.2,0.1-0.5,0.2-0.7,0.2
			c-1-0.6-1.9-1.1-2.9-1.7C437.7,185.3,436.8,184.7,435.8,184.1L435.8,184.1z"/>
		<path class="st4" d="M443.6,178.4c0.2,0,0.4,0,0.6,0c0.3,0.4,0.4,1,0.8,1.2c1.5,0.9,3,1.7,4.5,2.7c0.5,0.3,0.9,1,0.9,1.6
			c0.1,2.3,0,4.7,0,7c0,0.7-0.1,1.2-1,1.1c-0.1,0-0.3,0-0.4-0.1c-1.4-0.9-2.8-1.7-4.1-2.6c-0.2-0.1-0.5-0.2-0.7-0.3
			c-0.1-1.1-0.1-2.2-0.3-3.3c0-0.4-0.3-0.8-0.5-1.2C443.5,182.5,443.5,180.4,443.6,178.4z"/>
		<path class="st17" d="M442.3,178.1c-1.8-1.1-3.6-2.2-5.4-3.3c-0.4-0.3-0.7-0.8-1.1-1.2c1-1,2-2.1,2.9-3.1c0.2-0.1,0.4-0.2,0.5-0.3
			c1.5-1.4,1.5-1.3,3.2-0.2c1.4,0.9,2.8,1.6,4.2,2.4c0,0.6,0,1.3,0,1.9c-0.9,0.9-1.8,1.8-2.6,2.6c-0.2,0.2-0.5,0.3-0.7,0.5
			C442.9,177.7,442.6,177.9,442.3,178.1z"/>
		<path class="st12" d="M443.5,184.6c0.2,0.4,0.4,0.8,0.5,1.2c0.1,1.1,0.2,2.2,0.3,3.3c-0.2-0.1-0.6-0.3-0.6-0.4
			C443.6,187.4,443.5,186,443.5,184.6z"/>
		<path class="st12" d="M444.9,189.4c1.4,0.9,2.8,1.7,4.1,2.6C447.7,191.1,446.3,190.3,444.9,189.4z"/>
		<path class="st17" d="M435.8,184.1c1,0.6,1.9,1.1,2.9,1.7C437.5,185.7,436.5,185.2,435.8,184.1z"/>
		<path class="st17" d="M441.6,187.5c0.2-0.1,0.5-0.2,0.7-0.2c0.2,0.3,0.3,0.5,0.5,0.8c-0.3,0.1-0.5,0.3-0.8,0.4
			C441.9,188.1,441.7,187.8,441.6,187.5z"/>
		<path class="st12" d="M443.2,177.4c0.2-0.2,0.5-0.3,0.7-0.5c-0.1,0.2-0.3,0.3-0.4,0.5C443.4,177.4,443.3,177.4,443.2,177.4z"/>
		<path class="st17" d="M440.6,189.4c-0.1-0.1-0.3-0.2-0.5-0.2c0-0.1,0.1-0.1,0.1-0.2C440.5,189.2,440.5,189.3,440.6,189.4
			C440.7,189.4,440.6,189.4,440.6,189.4z"/>
		<path class="st4" d="M451.9,190.9c0.1-0.4,0.3-0.8,0.2-1.1c-0.6-1.5,0-3-0.2-4.5c-0.1-0.9,0.3-1.2,1.2-1.1
			c0.1,0.1,0.2,0.2,0.2,0.2c0.3,0.2,0.6,0.3,1,0.5c0.2,0.1,0.4,0.2,0.6,0.3c0.2,0.1,0.4,0.3,0.5,0.4c0.6,0.3,1.2,0.6,1.9,1
			c1.1,0.9,1.1,2.1,1,3.3c0,0.8,0.1,1.6,0.2,2.4c0,1.3,0,2.5,0,3.8c0,0.4-0.3,0.7-0.5,1.1c-0.8-0.5-1.6-0.9-2.4-1.4
			c-0.3-0.2-0.6-0.3-1-0.5c-0.7-0.4-1.4-0.8-2.1-1.2l-0.1,0h-0.1c-0.2-0.2-0.3-0.3-0.5-0.5c0-0.4,0-0.8,0-1.1c0-0.2,0-0.3,0-0.5
			C451.9,191.5,451.9,191.2,451.9,190.9z"/>
		<path class="st12" d="M455.7,195.7c0.8,0.5,1.6,0.9,2.4,1.4c0,0.1,0,0.1,0,0.2C457.3,196.8,456.5,196.2,455.7,195.7z"/>
		<path class="st12" d="M452.6,193.9c0.7,0.4,1.4,0.8,2.1,1.2C454,195.1,452.9,194.5,452.6,193.9z"/>
		<path class="st12" d="M451.9,193.4c0.2,0.2,0.3,0.3,0.5,0.5C452.2,193.8,452.1,193.6,451.9,193.4z"/>
		<path class="st12" d="M451.9,191.8c0,0.2,0,0.3,0,0.5C451.9,192.1,451.9,192,451.9,191.8z"/>
		<path class="st4" d="M420,175c-0.2-0.2-0.5-0.5-0.7-0.8c0-0.2,0-0.4,0-0.7c0.1-0.9,0.2-1.7,0.2-2.6c0-1.9,0-3.8,0-6.1
			c1.3,0.7,2.3,1.2,3.3,1.8c0.1,0.1,0.2,0.2,0.3,0.2c2.8,0.8,3.2,2.8,3,5.3c-0.2,1.8,0,3.6-0.1,5.4c0,0.1-0.1,0.1-0.2,0.3
			c-0.7-0.3-1.4-0.6-2.2-1c-0.1,0-0.3,0-0.4,0c-1-0.6-1.9-1.3-2.9-1.9C420.2,175,420.1,175,420,175z"/>
		<path class="st17" d="M420.2,175c1,0.6,1.9,1.3,2.9,1.9C422.2,176.3,421.2,175.7,420.2,175z"/>
		<path class="st12" d="M458.6,192.3c-0.1-0.8-0.2-1.6-0.2-2.4c0-1.2,0-2.4-1-3.3c1.1,0.2,1.6,0.8,1.5,2
			C458.7,189.8,458.7,191,458.6,192.3z"/>
		<path class="st12" d="M454.3,184.9c-0.3-0.2-0.6-0.3-1-0.5C453.6,184.5,454,184.7,454.3,184.9z"/>
		<path class="st12" d="M455.5,185.6c-0.2-0.1-0.4-0.3-0.5-0.4C455.1,185.3,455.3,185.4,455.5,185.6z"/>
		<path class="st12" d="M458.1,179.3c0.1,0,0.3,0,0.5,0c0,0.1,0,0.1,0,0.2C458.4,179.5,458.3,179.4,458.1,179.3z"/>
		<path class="st17" d="M403,161.1c0.1,0,0.1,0,0.2,0c0,1,0,2.1-0.1,3.1C402.4,163.2,402.7,162.2,403,161.1z"/>
		<path class="st17" d="M403.2,154.9c-0.1,0.2-0.2,0.3-0.2,0.5c0-0.2,0-0.3,0-0.5C403.1,154.9,403.1,154.9,403.2,154.9z"/>
		<path class="st24" d="M438.7,170.5c-1,1-2,2.1-2.9,3.1c0-0.2-0.1-0.4-0.1-0.6c0.8-1,1.6-1.9,2.5-2.9
			C438.4,170.3,438.5,170.4,438.7,170.5z"/>
		<path class="st22" d="M435.3,183.2c-0.2,0.1-0.3,0.1-0.5,0.2C435,183.3,435.2,183.3,435.3,183.2z"/>
	</g>
</g>
<g>
	<path d="M54.6,177.6c-2,0-3.7-0.6-5-1.8c-1.3-1.2-2-3.4-2-6.7v-52.7H24.2v10.5h10.7v41.2c0,6.7,1.3,11.8,4,15.2
		c2.7,3.5,7,5.2,12.8,5.2c2.1,0,4-0.1,5.7-0.4c1.7-0.3,3.1-0.6,4.3-1c1-0.3,1.9-0.6,2.6-1l0-11.1c-0.5,0.2-1.7,0.7-3.4,1.3
		C59.3,177.2,57.1,177.6,54.6,177.6z"/>
	<path d="M163.5,144.4c-2-2.2-4.4-4-7.2-5.2s-5.9-1.8-9.2-1.8c-3.3,0-6.4,0.6-9.2,1.8c-2.8,1.2-5.2,2.9-7.3,5.2
		c-2,2.2-3.6,4.9-4.8,8.1s-1.7,6.6-1.7,10.4c0,3.9,0.6,7.4,1.7,10.5c1.1,3.1,2.7,5.8,4.7,8.1s4.4,4,7.2,5.3s5.9,1.9,9.4,1.9
		c3.4,0,6.6-0.6,9.4-1.9s5.2-3,7.2-5.3s3.6-5,4.6-8.1c1.1-3.1,1.6-6.6,1.6-10.5c0-3.8-0.6-7.2-1.6-10.4
		C167.1,149.4,165.5,146.7,163.5,144.4z M154.3,173.5c-1.7,2.7-4.2,4-7.5,4c-3.4,0-5.9-1.3-7.5-4s-2.3-6.2-2.3-10.5
		s0.8-7.8,2.5-10.5s4.2-4,7.5-4c3.4,0,5.9,1.3,7.5,4s2.3,6.1,2.3,10.5S156,170.8,154.3,173.5z"/>
	<path d="M212.9,163.2c-1.6-1.1-3.4-2.1-5.4-2.8c-2-0.8-3.9-1.4-5.8-2.1c-1.3-0.4-2.5-0.8-3.7-1.3s-2.1-0.9-3-1.4s-1.6-1-2.1-1.6
		s-0.8-1.2-0.8-2c0-0.9,0.6-1.7,1.7-2.5c1.1-0.8,3.3-1.2,6.6-1.2c3.1,0,5.9,0.4,8.4,1.2c2.5,0.8,4.3,1.4,5.5,1.7l2-10.7
		c-2-0.9-4.4-1.6-7.1-2.1c-2.7-0.5-5.7-0.7-8.8-0.7c-3.6,0-6.8,0.4-9.4,1.2c-2.6,0.8-4.8,1.9-6.5,3.3c-1.7,1.4-2.9,3-3.7,4.9
		c-0.8,1.8-1.2,3.8-1.2,5.8c0,2.6,0.5,4.7,1.6,6.4c1,1.7,2.3,3.1,3.9,4.2c1.6,1.1,3.3,2,5.3,2.7c1.9,0.7,3.8,1.4,5.7,1.9
		c1.3,0.4,2.6,0.8,3.8,1.2c1.2,0.4,2.3,0.8,3.2,1.3s1.6,1,2.2,1.6c0.5,0.6,0.8,1.4,0.8,2.3c0,1.4-0.8,2.3-2.5,2.7
		c-1.6,0.4-4,0.7-7.1,0.7c-2.8,0-5.6-0.4-8.3-1.2c-2.7-0.8-5.3-1.7-7.7-2.7l-2,10.6c1.8,0.8,4.2,1.6,7.1,2.6s6.5,1.4,10.7,1.4
		c4.1,0,7.6-0.4,10.4-1.1s5.1-1.8,6.9-3.1c1.8-1.3,3-2.9,3.8-4.6c0.8-1.8,1.1-3.7,1.1-5.7c0-2.6-0.5-4.7-1.6-6.5
		C215.8,165.8,214.5,164.4,212.9,163.2z"/>
	<path d="M89.5,174.3c-1.1-2.2-1.6-5.5-1.6-10v-25.4H75.2V166c0,3.3,0.3,6.3,0.8,9.1c0.6,2.8,1.6,5.1,3.1,7.2s3.5,3.6,6,4.7
		c2.6,1.1,5.8,1.6,9.8,1.6c2.3,0,4.5-0.1,6.6-0.3v-10.1c0,0-3.9,0-5.8,0C92.7,178.2,90.6,176.5,89.5,174.3z"/>
	<polygon points="101.6,178.2 114.3,178.2 114.4,138.9 101.6,138.9 	"/>
	<rect x="229.2" y="188.6" class="st29" width="40.2" height="10.5"/>
</g>
<g>
	<g>
		<path d="M322.9,91.6c0.6-5.9,2.5-8.2,6.8-8.1c9.8,0.3,19.5,0.6,29.3,1c1.5,0.1,2.9,0.2,4.4-0.2c-40.3-24.8-82.4-35.7-128.1-15.5
			c-10,4.4-18.7,10.6-24.3,20.4c-0.7,1.3-2.2,2.1-3.3,3.1c-0.5-0.3-1.1-0.6-1.6-0.9c0.9-2.2,1.6-4.6,2.8-6.5
			c8.2-12.5,20.1-20.5,33.8-25.8c33.9-13.1,67.3-10,100,4.4c10.1,4.4,19.6,10.2,30.5,15.9c-3.4-5.3-6.3-10.1-9.5-14.7
			c-2-2.8-4.2-5.6-6.7-8c-2.5-2.5-2-4.8,0-6.9c2.8-2.9,4.4,0,5.9,1.7c9.1,10.4,16.4,22.1,20.7,35.3c0.8,2.3,0.4,5.6-0.8,7.7
			c-0.5,1-4.2,0.4-6.4,0.2c-15.8-1.3-31.6-2.8-47.5-4C327.2,90.5,325.4,91.2,322.9,91.6z"/>
	</g>
</g>
</svg>
