<svg version="1.1" xmlns="http://www.w3.org/2000/svg" viewBox="0 0 995.6242916273768 251.43586867863633" width="1991.2485832547536" height="502.87173735727265" filter="invert(93%) hue-rotate(180deg)">
  <!-- svg-source:excalidraw -->
  
  <defs>
    <style class="style-fonts">
      @font-face {
        font-family: "Virgil";
        src: url("https://excalidraw.com/Virgil.woff2");
      }
      @font-face {
        font-family: "Cascadia";
        src: url("https://excalidraw.com/Cascadia.woff2");
      }
    </style>
    
  </defs>
  <g stroke-linecap="round" transform="translate(10 25.2343713774535) rotate(0 118.80207746074029 108.10074865059141)"><path d="M32 0 M32 0 C77.64 1.15, 122.94 -0.11, 205.6 0 M32 0 C72.61 -0.97, 115.15 0.29, 205.6 0 M205.6 0 C227.2 0.55, 238.16 10.16, 237.6 32 M205.6 0 C228.27 -1, 236.02 10.14, 237.6 32 M237.6 32 C237.64 89.22, 237.97 144.13, 237.6 184.2 M237.6 32 C238.45 63.6, 237.77 94.31, 237.6 184.2 M237.6 184.2 C237.16 207.05, 227.94 215.32, 205.6 216.2 M237.6 184.2 C237.85 203.31, 226.87 215.8, 205.6 216.2 M205.6 216.2 C159.92 216.45, 109.36 215.48, 32 216.2 M205.6 216.2 C157.36 217.71, 108.67 216.47, 32 216.2 M32 216.2 C11.5 215.41, -1.11 204.22, 0 184.2 M32 216.2 C12.55 215.95, -1.99 205.4, 0 184.2 M0 184.2 C-2.79 132.14, 0.35 77.33, 0 32 M0 184.2 C-0.68 126.4, 0.21 68.41, 0 32 M0 32 C-0.78 8.93, 8.76 -0.24, 32 0 M0 32 C-2.12 10.42, 12.04 0.65, 32 0" stroke="#1e1e1e" stroke-width="1" fill="none"></path></g><g transform="translate(61.23811261699029 115.83512002804491) rotate(0 67.56396484375 17.5)"><text x="67.56396484375" y="0" font-family="Virgil, Segoe UI Emoji" font-size="28px" fill="#1e1e1e" text-anchor="middle" style="white-space: pre;" direction="ltr" dominant-baseline="text-before-edge">Child node</text></g><g stroke-linecap="round" transform="translate(748.0201367058962 10) rotate(0 118.80207746074029 108.10074865059141)"><path d="M32 0 M32 0 C80.1 1.67, 131.83 1.93, 205.6 0 M32 0 C89.44 0.01, 145.04 0.21, 205.6 0 M205.6 0 C228.35 -0.74, 237.27 11.26, 237.6 32 M205.6 0 C227.86 1.06, 236.79 8.42, 237.6 32 M237.6 32 C240.36 79.66, 240.21 127.03, 237.6 184.2 M237.6 32 C238.48 88.2, 238.34 146.16, 237.6 184.2 M237.6 184.2 C237.07 205.63, 225.22 218.01, 205.6 216.2 M237.6 184.2 C239.6 204.07, 227.82 215.78, 205.6 216.2 M205.6 216.2 C140.45 218.97, 72.29 218.14, 32 216.2 M205.6 216.2 C161.18 214.95, 114.26 215, 32 216.2 M32 216.2 C11.71 217.86, -1.02 204.01, 0 184.2 M32 216.2 C12.45 218.06, 0.41 207.44, 0 184.2 M0 184.2 C1.15 133.93, 1.72 79.51, 0 32 M0 184.2 C0.53 151.65, 2.05 119.59, 0 32 M0 32 C0.65 8.76, 11.94 1.44, 32 0 M0 32 C0.94 8.47, 12.69 1.4, 32 0" stroke="#1e1e1e" stroke-width="1" fill="none"></path></g><g transform="translate(783.1862507266951 100.60074865059141) rotate(0 83.6359634399414 17.5)"><text x="83.6359634399414" y="0" font-family="Virgil, Segoe UI Emoji" font-size="28px" fill="#1e1e1e" text-anchor="middle" style="white-space: pre;" direction="ltr" dominant-baseline="text-before-edge">Parent node</text></g><g stroke-linecap="round"><g transform="translate(264.43749257195304 143.75299703381643) rotate(0 233.6641491945643 -2.418451773804918)"><path d="M0.33 0.33 C78.24 -0.26, 390.33 -2.53, 468.28 -3.41 M-0.96 -0.54 C76.7 -1.49, 389.18 -4.58, 467.18 -5.17" stroke="#1e1e1e" stroke-width="1" fill="none"></path></g><g transform="translate(264.43749257195304 143.75299703381643) rotate(0 233.6641491945643 -2.418451773804918)"><path d="M29 -10.65 C19.25 -7.07, 6.35 -2.79, 1.74 -0.4 M28.9 -10.5 C19.54 -6.93, 13.28 -3.46, 1.16 0.29" stroke="#1e1e1e" stroke-width="1" fill="none"></path></g><g transform="translate(264.43749257195304 143.75299703381643) rotate(0 233.6641491945643 -2.418451773804918)"><path d="M29.15 9.87 C19.33 5.89, 6.36 2.59, 1.74 -0.4 M29.06 10.02 C19.59 7.78, 13.29 5.45, 1.16 0.29" stroke="#1e1e1e" stroke-width="1" fill="none"></path></g><g transform="translate(264.43749257195304 143.75299703381643) rotate(0 233.6641491945643 -2.418451773804918)"><path d="M439.63 4.84 C450.59 0.52, 458.4 -2.94, 468.59 -5.91 M439.54 4.99 C446.02 2.39, 455.68 -0.08, 468 -5.21" stroke="#1e1e1e" stroke-width="1" fill="none"></path></g><g transform="translate(264.43749257195304 143.75299703381643) rotate(0 233.6641491945643 -2.418451773804918)"><path d="M439.45 -15.68 C450.5 -12.43, 458.38 -8.33, 468.59 -5.91 M439.36 -15.53 C445.95 -12.32, 455.66 -8.99, 468 -5.21" stroke="#1e1e1e" stroke-width="1" fill="none"></path></g></g><mask></mask><g transform="translate(373.5585963578769 80.34058771496984) rotate(0 123.95989990234375 25)"><text x="123.95989990234375" y="0" font-family="Virgil, Segoe UI Emoji" font-size="20px" fill="#1e1e1e" text-anchor="middle" style="white-space: pre;" direction="ltr" dominant-baseline="text-before-edge">connection_t:</text><text x="123.95989990234375" y="25" font-family="Virgil, Segoe UI Emoji" font-size="20px" fill="#1e1e1e" text-anchor="middle" style="white-space: pre;" direction="ltr" dominant-baseline="text-before-edge">[{phy, port}, {phy, port}]</text></g><g transform="translate(248.4731103573613 106.94417376183264) rotate(0 37.429969787597656 37.5)"><text x="0" y="0" font-family="Virgil, Segoe UI Emoji" font-size="20px" fill="#1e1e1e" text-anchor="start" style="white-space: pre;" direction="ltr" dominant-baseline="text-before-edge">phy: 2</text><text x="0" y="25" font-family="Virgil, Segoe UI Emoji" font-size="20px" fill="#1e1e1e" text-anchor="start" style="white-space: pre;" direction="ltr" dominant-baseline="text-before-edge"></text><text x="0" y="50" font-family="Virgil, Segoe UI Emoji" font-size="20px" fill="#1e1e1e" text-anchor="start" style="white-space: pre;" direction="ltr" dominant-baseline="text-before-edge">port: 10</text></g><g transform="translate(667.7576753214626 100.78957409071973) rotate(0 34.239967346191406 37.5)"><text x="68.47993469238281" y="0" font-family="Virgil, Segoe UI Emoji" font-size="20px" fill="#1e1e1e" text-anchor="end" style="white-space: pre;" direction="ltr" dominant-baseline="text-before-edge">phy: 3</text><text x="68.47993469238281" y="25" font-family="Virgil, Segoe UI Emoji" font-size="20px" fill="#1e1e1e" text-anchor="end" style="white-space: pre;" direction="ltr" dominant-baseline="text-before-edge"></text><text x="68.47993469238281" y="50" font-family="Virgil, Segoe UI Emoji" font-size="20px" fill="#1e1e1e" text-anchor="end" style="white-space: pre;" direction="ltr" dominant-baseline="text-before-edge">port: 4</text></g></svg>