<svg version="1.1" xmlns="http://www.w3.org/2000/svg" viewBox="0 0 928 295" width="1856" height="590">
  <!-- svg-source:excalidraw -->
  
  <defs>
    <style class="style-fonts">
      @font-face {
        font-family: "Virgil";
        src: url("https://excalidraw.com/Virgil.woff2");
      }
      @font-face {
        font-family: "Cascadia";
        src: url("https://excalidraw.com/Cascadia.woff2");
      }
    </style>
    
  </defs>
  <g stroke-linecap="round" transform="translate(10 10) rotate(0 454 137.5)"><path d="M30.08 -0.56 L875.09 -0.7 L888.06 0.1 L894.64 6.28 L902.48 11.67 L904.44 19.31 L908.24 30.76 L908.7 243.93 L905.39 258.35 L902.32 263.53 L893.63 272.25 L890.81 274.36 L876.34 274.12 L31.88 273.99 L16.02 271.96 L12.88 268.85 L5.86 261.63 L0.31 251.71 L0.7 31.8 L0.83 18.68 L8.52 9.52 L17.27 1.2 L33.47 -0.85" stroke="none" stroke-width="0" fill="#e9ecef"></path><path d="M32 0 M32 0 C204.3 3.36, 377.45 2.04, 876 0 M32 0 C345.09 0.5, 657.4 0.22, 876 0 M876 0 C896.26 0.47, 907.15 12.47, 908 32 M876 0 C898.1 -1.26, 906.82 12.43, 908 32 M908 32 C906.99 80.52, 906.22 132.3, 908 243 M908 32 C907.24 93.51, 906.25 154.55, 908 243 M908 243 C907.83 266.32, 896.16 274.93, 876 275 M908 243 C908.52 262.72, 899.06 273.75, 876 275 M876 275 C686.62 277.42, 498.61 276.61, 32 275 M876 275 C622.05 277.39, 368.84 277.24, 32 275 M32 275 C11.12 273.64, -0.95 264.75, 0 243 M32 275 C9.3 273.66, 0.01 262.98, 0 243 M0 243 C-1.95 187.49, -1.68 134.8, 0 32 M0 243 C-2.58 193.55, -1.93 142.82, 0 32 M0 32 C-0.01 10.14, 9.01 -0.3, 32 0 M0 32 C-0.43 8.84, 10.43 -0.77, 32 0" stroke="#1e1e1e" stroke-width="1" fill="none"></path></g><g transform="translate(431.60401153564453 15) rotate(0 32.39598846435547 17.5)"><text x="32.39598846435547" y="0" font-family="Virgil, Segoe UI Emoji" font-size="28px" fill="#1e1e1e" text-anchor="middle" style="white-space: pre;" direction="ltr" dominant-baseline="text-before-edge">Node</text></g><g stroke-linecap="round" transform="translate(38.64966474748712 209.447023264579) rotate(0 430.5 27.5)"><path d="M14.7 -0.13 L846.35 1.18 L854.54 0.72 L858.17 9.36 L859.07 42.38 L858.42 47.73 L856.79 53.46 L853.76 54.23 L847.58 56.42 L15.17 56.27 L6.21 53.51 L3.43 52.65 L0.77 48.02 L-0.71 40.24 L-1.09 9.69 L5.94 0.69 L13.21 0.67" stroke="none" stroke-width="0" fill="#ff8787"></path><path d="M13.75 0 M13.75 0 C315.03 -2.82, 615.04 -3.06, 847.25 0 M13.75 0 C271.37 3.12, 529.17 2.94, 847.25 0 M847.25 0 C858.1 -0.2, 859.83 2.69, 861 13.75 M847.25 0 C854.64 -1.51, 859.52 4.33, 861 13.75 M861 13.75 C860.65 19.06, 860.69 23.31, 861 41.25 M861 13.75 C860.08 22.04, 861.55 30.04, 861 41.25 M861 41.25 C861.16 51.75, 857.74 54.02, 847.25 55 M861 41.25 C860.56 50.04, 857.47 56.44, 847.25 55 M847.25 55 C591.71 56.69, 337.89 56.53, 13.75 55 M847.25 55 C627.73 55.68, 408.11 55.96, 13.75 55 M13.75 55 C6.42 53.57, -1.79 51.27, 0 41.25 M13.75 55 C5 57.24, -2.22 48.53, 0 41.25 M0 41.25 C0.7 32.31, -1.03 21.78, 0 13.75 M0 41.25 C-0.61 30.82, 0.25 18.43, 0 13.75 M0 13.75 C-1.57 3.39, 4.05 -1.64, 13.75 0 M0 13.75 C1.1 5.36, 3.23 1.85, 13.75 0" stroke="#1e1e1e" stroke-width="1" fill="none"></path></g><g transform="translate(391.98170362688165 219.447023264579) rotate(0 77.16796112060547 17.5)"><text x="77.16796112060547" y="0" font-family="Virgil, Segoe UI Emoji" font-size="28px" fill="#1e1e1e" text-anchor="middle" style="white-space: pre;" direction="ltr" dominant-baseline="text-before-edge">Luos engine</text></g><g stroke-linecap="round" transform="translate(39.435394030986345 143.41269292984362) rotate(0 80.21976210981688 22.5)"><path d="M13.2 -1.93 L152.47 1.43 L159.16 5.27 L160.36 38.97 L156.52 41.2 L151.14 44.63 L5.92 42.97 L1.72 39.07 L-1.89 9.68 L1.62 2.28 L9.61 0.96" stroke="none" stroke-width="0" fill="#ffec99"></path><path d="M11.25 0 M11.25 0 C58.38 -2.8, 102.95 -0.63, 149.19 0 M11.25 0 C52.01 -1.01, 91.52 -1.12, 149.19 0 M149.19 0 C156.92 -0.14, 160.31 3.59, 160.44 11.25 M149.19 0 C157.9 -0.11, 158.54 2.88, 160.44 11.25 M160.44 11.25 C159.71 20.09, 158.56 29.03, 160.44 33.75 M160.44 11.25 C161.26 19.57, 160.27 29.1, 160.44 33.75 M160.44 33.75 C159.67 41, 155.15 46.68, 149.19 45 M160.44 33.75 C162.2 42.13, 155.68 42.85, 149.19 45 M149.19 45 C99.78 46.31, 45.71 44.73, 11.25 45 M149.19 45 C100.68 43.49, 51.75 44.04, 11.25 45 M11.25 45 C2.57 43.73, 1.22 40.11, 0 33.75 M11.25 45 C4.95 46.47, -0.12 40.36, 0 33.75 M0 33.75 C0.88 27.26, -1.53 16.74, 0 11.25 M0 33.75 C0.68 25.52, -0.08 18.33, 0 11.25 M0 11.25 C-0.76 3.36, 4.99 1.13, 11.25 0 M0 11.25 C-1.75 3.98, 4.07 -1.92, 11.25 0" stroke="#1e1e1e" stroke-width="1" fill="none"></path></g><g transform="translate(63.20717335271729 148.41269292984362) rotate(0 56.44798278808594 17.5)"><text x="56.44798278808594" y="0" font-family="Virgil, Segoe UI Emoji" font-size="28px" fill="#1e1e1e" text-anchor="middle" style="white-space: pre;" direction="ltr" dominant-baseline="text-before-edge">Package</text></g><g stroke-linecap="round" transform="translate(212.8554401056383 141.46042733205195) rotate(0 165 22.5)"><path d="M10.01 1.02 L316.86 -1.48 L323.53 -0.26 L328.2 6.45 L328.82 32.48 L328.4 41.04 L319.8 46.28 L11.15 44.22 L4.13 42.22 L0.14 34.64 L2.45 4.8 L2.28 3.48 L13.04 0.24" stroke="none" stroke-width="0" fill="#ffec99"></path><path d="M11.25 0 M11.25 0 C129.92 -0.81, 249.56 0.63, 318.75 0 M11.25 0 C121.02 -0.82, 229.99 0.4, 318.75 0 M318.75 0 C324.44 -0.99, 330.19 4.57, 330 11.25 M318.75 0 C325.27 1.83, 331.74 2.84, 330 11.25 M330 11.25 C331.88 18.36, 331.04 25.05, 330 33.75 M330 11.25 C330.63 16.06, 330.76 21.29, 330 33.75 M330 33.75 C331.87 42.6, 328.01 43.98, 318.75 45 M330 33.75 C330.82 40.15, 326.13 45.82, 318.75 45 M318.75 45 C229.7 44.43, 137.18 45.46, 11.25 45 M318.75 45 C200.27 46.68, 82.35 46.98, 11.25 45 M11.25 45 C5.04 44.92, 0.77 42.84, 0 33.75 M11.25 45 C5.54 43.1, -1.87 42.22, 0 33.75 M0 33.75 C-1.35 28.83, 1.31 18.84, 0 11.25 M0 33.75 C0.33 24.09, 0.63 17.01, 0 11.25 M0 11.25 C-0.09 2.79, 2.87 0.27, 11.25 0 M0 11.25 C-1.16 4.32, 4.44 -2.28, 11.25 0" stroke="#1e1e1e" stroke-width="1" fill="none"></path></g><g transform="translate(321.40745731755237 146.46042733205195) rotate(0 56.44798278808594 17.5)"><text x="56.44798278808594" y="0" font-family="Virgil, Segoe UI Emoji" font-size="28px" fill="#1e1e1e" text-anchor="middle" style="white-space: pre;" direction="ltr" dominant-baseline="text-before-edge">Package</text></g><g stroke-linecap="round" transform="translate(558.987462261091 138.94335270874672) rotate(0 80.21976210981688 22.5)"><path d="M11.37 -1.18 L152.84 1.92 L158.59 7.38 L161.02 38.57 L156.85 43.51 L149.22 45.14 L7.21 46.05 L-0.83 38.14 L0.66 13.04 L3.05 4.57 L9.78 0.24" stroke="none" stroke-width="0" fill="#ffec99"></path><path d="M11.25 0 M11.25 0 C47.93 1.4, 80.62 0.47, 149.19 0 M11.25 0 C55.45 0.22, 97.41 1.21, 149.19 0 M149.19 0 C157.51 -0.85, 162.03 5.26, 160.44 11.25 M149.19 0 C155.78 0.77, 161.21 1.78, 160.44 11.25 M160.44 11.25 C159.19 18.72, 158.58 28.2, 160.44 33.75 M160.44 11.25 C159.83 20.8, 161.01 29.37, 160.44 33.75 M160.44 33.75 C159.42 41.97, 155.73 44.9, 149.19 45 M160.44 33.75 C161.26 41.1, 155.37 44.91, 149.19 45 M149.19 45 C96.7 45.73, 42.15 45.44, 11.25 45 M149.19 45 C117.55 44.9, 84.62 44.64, 11.25 45 M11.25 45 C5.34 46.56, -1.66 39.62, 0 33.75 M11.25 45 C4.72 44.73, -0.01 42.92, 0 33.75 M0 33.75 C-2.11 30.32, -0.22 24.22, 0 11.25 M0 33.75 C1 26.24, -0.28 18.37, 0 11.25 M0 11.25 C0.27 2.74, 4.24 0.6, 11.25 0 M0 11.25 C-2.28 2.95, 6.04 0.05, 11.25 0" stroke="#1e1e1e" stroke-width="1" fill="none"></path></g><g transform="translate(582.7592415828219 143.94335270874672) rotate(0 56.44798278808594 17.5)"><text x="56.44798278808594" y="0" font-family="Virgil, Segoe UI Emoji" font-size="28px" fill="#1e1e1e" text-anchor="middle" style="white-space: pre;" direction="ltr" dominant-baseline="text-before-edge">Package</text></g><g stroke-linecap="round" transform="translate(54.87725186119269 74.89425661178939) rotate(0 63.11644561318212 22.5)"><path d="M9.9 -0.81 L118.94 1.52 L125.94 6.82 L124.47 38.72 L121.86 41.3 L113 43.4 L8.17 45.28 L-0.57 38.37 L-0.11 9.6 L1.46 1.93 L11.28 -0.2" stroke="none" stroke-width="0" fill="#b2f2bb"></path><path d="M11.25 0 M11.25 0 C45.44 -2.62, 80.81 -1.93, 114.98 0 M11.25 0 C38.3 1.93, 64.34 0.3, 114.98 0 M114.98 0 C123.82 -1.55, 125.67 4.97, 126.23 11.25 M114.98 0 C121.02 1.51, 127.38 2.93, 126.23 11.25 M126.23 11.25 C125.45 17.85, 124.84 24.19, 126.23 33.75 M126.23 11.25 C125.57 16.31, 126.84 22.74, 126.23 33.75 M126.23 33.75 C125.64 40.44, 121.77 45.13, 114.98 45 M126.23 33.75 C127.34 43.29, 121.5 42.95, 114.98 45 M114.98 45 C86.81 42.66, 60.6 42.68, 11.25 45 M114.98 45 C85.34 46.55, 57.24 45.61, 11.25 45 M11.25 45 C3.63 46.49, 1.63 42.38, 0 33.75 M11.25 45 C2.43 47.24, 1.55 41.71, 0 33.75 M0 33.75 C-1.2 30.94, -1.83 26.11, 0 11.25 M0 33.75 C0.3 27.7, -0.63 23.77, 0 11.25 M0 11.25 C-1.13 5.41, 4.27 -0.7, 11.25 0 M0 11.25 C-1.81 2.18, 5.69 1.48, 11.25 0" stroke="#1e1e1e" stroke-width="1" fill="none"></path></g><g transform="translate(70.72972042359356 79.89425661178939) rotate(0 47.26397705078125 17.5)"><text x="47.26397705078125" y="0" font-family="Virgil, Segoe UI Emoji" font-size="28px" fill="#1e1e1e" text-anchor="middle" style="white-space: pre;" direction="ltr" dominant-baseline="text-before-edge">Service</text></g><g stroke-linecap="round" transform="translate(572.1118822116332 74.56183966734989) rotate(0 63.11644561318212 22.5)"><path d="M10.33 1.42 L121.14 0.24 L125.41 7.82 L127.16 39.8 L122.27 44.13 L116.33 45.4 L4.39 43.51 L1.48 37.38 L1.76 9.34 L4.31 1.58 L9.6 1.69" stroke="none" stroke-width="0" fill="#99e9f2"></path><path d="M11.25 0 M11.25 0 C45.08 -0.28, 77.61 1.37, 114.98 0 M11.25 0 C39.59 1.35, 66.8 1.51, 114.98 0 M114.98 0 C121.37 -0.04, 126.5 1.77, 126.23 11.25 M114.98 0 C121.66 0.16, 124.4 4.47, 126.23 11.25 M126.23 11.25 C127.9 17.21, 124.54 20.18, 126.23 33.75 M126.23 11.25 C125.98 15.75, 126.42 21.3, 126.23 33.75 M126.23 33.75 C125.54 40.69, 122.01 46.59, 114.98 45 M126.23 33.75 C124.37 40.79, 120.91 44.92, 114.98 45 M114.98 45 C84.51 42.78, 54.52 43.52, 11.25 45 M114.98 45 C87.23 44.19, 58.41 45.61, 11.25 45 M11.25 45 C4.09 46.68, 1.46 42.67, 0 33.75 M11.25 45 C4.2 43.6, -1.85 42.66, 0 33.75 M0 33.75 C1.44 23.06, -0.07 17.32, 0 11.25 M0 33.75 C-0.13 25.18, 0.26 16.76, 0 11.25 M0 11.25 C1.59 5.57, 3.72 1.04, 11.25 0 M0 11.25 C-0.46 4.4, 4.21 -0.38, 11.25 0" stroke="#1e1e1e" stroke-width="1" fill="none"></path></g><g transform="translate(612.4923430225692 79.56183966734989) rotate(0 22.735984802246094 17.5)"><text x="22.735984802246094" y="0" font-family="Virgil, Segoe UI Emoji" font-size="28px" fill="#1e1e1e" text-anchor="middle" style="white-space: pre;" direction="ltr" dominant-baseline="text-before-edge">Phy</text></g><g stroke-linecap="round" transform="translate(731.2174939267215 139.46412676874115) rotate(0 80.21976210981688 22.5)"><path d="M11.26 0.54 L155.67 -1.25 L161.32 7.76 L159.47 37.47 L157.42 41.73 L150.58 46.64 L7.96 45.23 L-0.44 37.19 L-1.75 13.22 L2.42 3.55 L10.2 -0.62" stroke="none" stroke-width="0" fill="#ffec99"></path><path d="M11.25 0 M11.25 0 C54.71 -0.18, 96.85 -0.25, 149.19 0 M11.25 0 C52.33 -0.31, 92.22 -1.39, 149.19 0 M149.19 0 C156.73 -0.87, 159.58 5.2, 160.44 11.25 M149.19 0 C156.85 1.4, 161.93 4.03, 160.44 11.25 M160.44 11.25 C161.45 19.82, 160.63 26.18, 160.44 33.75 M160.44 11.25 C160.19 15.06, 160.85 20.23, 160.44 33.75 M160.44 33.75 C161.16 42.46, 155.17 43.1, 149.19 45 M160.44 33.75 C159.94 39.21, 157.47 44.38, 149.19 45 M149.19 45 C97.63 45.4, 43.02 44.24, 11.25 45 M149.19 45 C100.78 43.57, 54.93 42.81, 11.25 45 M11.25 45 C2.28 43.88, -1.35 40.25, 0 33.75 M11.25 45 C5.01 45.87, -0.96 39.96, 0 33.75 M0 33.75 C-0.95 23.7, -1.13 16.48, 0 11.25 M0 33.75 C-0.37 28.25, 0.47 22.17, 0 11.25 M0 11.25 C0.78 2.24, 2.16 -0.21, 11.25 0 M0 11.25 C1.12 4.5, 2.09 -0.58, 11.25 0" stroke="#1e1e1e" stroke-width="1" fill="none"></path></g><g transform="translate(754.9892732484525 144.46412676874115) rotate(0 56.44798278808594 17.5)"><text x="56.44798278808594" y="0" font-family="Virgil, Segoe UI Emoji" font-size="28px" fill="#1e1e1e" text-anchor="middle" style="white-space: pre;" direction="ltr" dominant-baseline="text-before-edge">Package</text></g><g stroke-linecap="round" transform="translate(744.3419138772642 75.08261372734432) rotate(0 63.11644561318212 22.5)"><path d="M12.83 1.43 L119.63 -0.5 L125.32 5.88 L126.92 40.31 L125.06 43.12 L113.84 43.52 L4.58 46.27 L0.31 39.41 L-1.05 10.63 L3.08 3.75 L12.44 0.21" stroke="none" stroke-width="0" fill="#99e9f2"></path><path d="M11.25 0 M11.25 0 C45.56 1.35, 80.66 0.59, 114.98 0 M11.25 0 C43.25 0.59, 74.77 1.75, 114.98 0 M114.98 0 C122.62 1.22, 127.53 3.99, 126.23 11.25 M114.98 0 C124.1 -0.89, 125.58 5.01, 126.23 11.25 M126.23 11.25 C124.32 17.47, 126.1 24.98, 126.23 33.75 M126.23 11.25 C126.7 16.93, 125.58 20.45, 126.23 33.75 M126.23 33.75 C125.8 39.48, 123.16 44.46, 114.98 45 M126.23 33.75 C128.04 42.39, 121.07 45.76, 114.98 45 M114.98 45 C78.3 45.29, 38.01 43.18, 11.25 45 M114.98 45 C84.86 43.48, 55.54 43.54, 11.25 45 M11.25 45 C4.84 45.76, -0.84 40.13, 0 33.75 M11.25 45 C5.8 47.13, 1.39 40.4, 0 33.75 M0 33.75 C-0.91 26.6, -0.21 22, 0 11.25 M0 33.75 C0.33 25.99, -0.85 19.64, 0 11.25 M0 11.25 C0.97 4.41, 2.31 -0.5, 11.25 0 M0 11.25 C-0.61 2.51, 3.6 -1.1, 11.25 0" stroke="#1e1e1e" stroke-width="1" fill="none"></path></g><g transform="translate(784.7223746882003 80.08261372734432) rotate(0 22.735984802246094 17.5)"><text x="22.735984802246094" y="0" font-family="Virgil, Segoe UI Emoji" font-size="28px" fill="#1e1e1e" text-anchor="middle" style="white-space: pre;" direction="ltr" dominant-baseline="text-before-edge">Phy</text></g><g stroke-linecap="round" transform="translate(243.05298070187496 75.652183015638) rotate(0 63.11644561318212 22.5)"><path d="M12.81 1.71 L121.77 0.16 L124.2 7.84 L126.22 40.34 L122.08 43.01 L115.63 45.63 L7.7 43.46 L2.21 39.34 L0.99 10.45 L1.19 3.11 L11.32 0.73" stroke="none" stroke-width="0" fill="#b2f2bb"></path><path d="M11.25 0 M11.25 0 C39.64 1.6, 69.57 0.7, 114.98 0 M11.25 0 C48.67 0.01, 88.24 -0.02, 114.98 0 M114.98 0 C124.05 -1.27, 128.16 1.87, 126.23 11.25 M114.98 0 C122.4 1.75, 125.64 4.02, 126.23 11.25 M126.23 11.25 C126.07 17.37, 127.44 23.82, 126.23 33.75 M126.23 11.25 C126.78 19.36, 126.63 24.77, 126.23 33.75 M126.23 33.75 C125.5 39.9, 122.2 46.45, 114.98 45 M126.23 33.75 C126.22 41.97, 122.8 45.23, 114.98 45 M114.98 45 C90.15 46.29, 62.4 46.15, 11.25 45 M114.98 45 C87.84 44.34, 62.97 44.76, 11.25 45 M11.25 45 C2.63 43.53, 1.89 43.08, 0 33.75 M11.25 45 C1.71 43.7, 1.39 39.62, 0 33.75 M0 33.75 C0.39 27.46, -1.95 25.12, 0 11.25 M0 33.75 C-0.06 28.01, -0.18 23.5, 0 11.25 M0 11.25 C1.7 3.81, 5 0.21, 11.25 0 M0 11.25 C2.22 4.33, 4.88 1.16, 11.25 0" stroke="#1e1e1e" stroke-width="1" fill="none"></path></g><g transform="translate(258.90544926427583 80.652183015638) rotate(0 47.26397705078125 17.5)"><text x="47.26397705078125" y="0" font-family="Virgil, Segoe UI Emoji" font-size="28px" fill="#1e1e1e" text-anchor="middle" style="white-space: pre;" direction="ltr" dominant-baseline="text-before-edge">Service</text></g><g stroke-linecap="round" transform="translate(395.4931283565991 75.67955534424527) rotate(0 63.11644561318212 22.5)"><path d="M12.92 -1.34 L120.73 1.35 L126.16 7.7 L124.7 40.17 L124.09 43.18 L114.18 43.38 L6.62 44.37 L1.43 38.39 L-1.86 10.72 L1.55 4.14 L10.26 0.42" stroke="none" stroke-width="0" fill="#b2f2bb"></path><path d="M11.25 0 M11.25 0 C47.91 -0.05, 88.88 -0.12, 114.98 0 M11.25 0 C49.57 -1.04, 90.53 -1.26, 114.98 0 M114.98 0 C122.72 0.16, 127.24 4.21, 126.23 11.25 M114.98 0 C122.17 -0.93, 127.49 2.28, 126.23 11.25 M126.23 11.25 C127.52 20.34, 127.22 24.02, 126.23 33.75 M126.23 11.25 C126.81 17.17, 126.39 23.23, 126.23 33.75 M126.23 33.75 C126.43 40.13, 122.71 46.49, 114.98 45 M126.23 33.75 C126.76 41.84, 120.18 45.43, 114.98 45 M114.98 45 C86.98 43.35, 63.51 44.21, 11.25 45 M114.98 45 C90.59 45.09, 63.79 46.58, 11.25 45 M11.25 45 C2.33 43.68, 0.52 41.58, 0 33.75 M11.25 45 C4.26 43.82, -2.17 43.44, 0 33.75 M0 33.75 C-0.1 27.75, -0.34 24.22, 0 11.25 M0 33.75 C0.1 26.05, 0.25 16.91, 0 11.25 M0 11.25 C1.01 4.36, 4.67 1.31, 11.25 0 M0 11.25 C-2.01 5.04, 3.22 1.17, 11.25 0" stroke="#1e1e1e" stroke-width="1" fill="none"></path></g><g transform="translate(411.34559691899995 80.67955534424527) rotate(0 47.26397705078125 17.5)"><text x="47.26397705078125" y="0" font-family="Virgil, Segoe UI Emoji" font-size="28px" fill="#1e1e1e" text-anchor="middle" style="white-space: pre;" direction="ltr" dominant-baseline="text-before-edge">Service</text></g><g stroke-linecap="round"><g transform="translate(115.5096667473947 124.50030553559009) rotate(0 -1.715737685671911 7.410799820632292)"><path d="M-0.02 0.58 C-0.45 2.94, -3.01 12.66, -3.41 14.98 M-1.49 -0.16 C-1.49 1.81, -0.96 11.28, -1.26 13.37" stroke="#1e1e1e" stroke-width="1" fill="none"></path></g></g><mask></mask><g stroke-linecap="round"><g transform="translate(306.31742894400486 125.1651643437508) rotate(0 -0.20761329514812132 6.969431605202317)"><path d="M0.17 0.4 C0.23 2.47, 0.9 10.89, 0.79 13.14 M-1.2 -0.43 C-1.31 1.73, -0.55 11.75, -0.05 14.37" stroke="#1e1e1e" stroke-width="1" fill="none"></path></g></g><mask></mask><g stroke-linecap="round"><g transform="translate(456.881086010276 122.94561044377951) rotate(0 0.07602169306210271 7.355526313389873)"><path d="M0.67 -0.21 C0.54 2.17, 0.44 12.08, 0.22 14.82 M-0.44 -1.36 C-0.73 1.12, -0.08 13.46, -0.23 16.07" stroke="#1e1e1e" stroke-width="1" fill="none"></path></g></g><mask></mask><g stroke-linecap="round"><g transform="translate(643.7769264315968 123.17058791926866) rotate(0 0.35421184495226044 9.346898234413402)"><path d="M-0.59 0.04 C-0.44 3.52, 1.02 16.44, 0.92 19.67 M1.29 -0.98 C1.39 2.29, 0.59 15.07, 0.57 18.17" stroke="#1e1e1e" stroke-width="1" fill="none"></path></g></g><mask></mask><g stroke-linecap="round"><g transform="translate(808.2992605964764 120.85701358177994) rotate(0 0.35536888849208026 8.87125294353973)"><path d="M-0.6 1.14 C-0.38 4.12, 0.92 14.66, 0.76 17.06 M1.28 0.69 C1.5 3.39, 0.52 12.61, 0.43 15.21" stroke="#1e1e1e" stroke-width="1" fill="none"></path></g></g><mask></mask><g stroke-linecap="round"><g transform="translate(120.59348611888686 193.71613691245057) rotate(0 -0.40301221343929683 8.139792362839216)"><path d="M-0.78 0.82 C-1.08 3.31, -1.12 12.4, -1.03 14.93 M1.01 0.2 C0.51 2.84, -1.57 13.81, -1.82 16.08" stroke="#1e1e1e" stroke-width="1" fill="none"></path></g></g><mask></mask><g stroke-linecap="round"><g transform="translate(387.0306166801713 189.32739720403606) rotate(0 -0.2127106984069087 7.768009751289355)"><path d="M0.43 -1.09 C0.29 1.49, -1.31 13.65, -1.35 16.63 M-0.8 0.95 C-0.52 3.69, 0.83 12.55, 0.93 14.87" stroke="#1e1e1e" stroke-width="1" fill="none"></path></g></g><mask></mask><g stroke-linecap="round"><g transform="translate(641.909949172317 189.63967937150483) rotate(0 -0.42898024464932405 8.200826355729987)"><path d="M-0.01 0.96 C-0.05 3.54, 0.77 12.25, 0.63 14.71 M-1.48 0.42 C-1.71 3.23, -0.59 13.77, -0.1 15.98" stroke="#1e1e1e" stroke-width="1" fill="none"></path></g></g><mask></mask><g stroke-linecap="round"><g transform="translate(815.7940326157434 190.71755653019045) rotate(0 0.5692466954182009 7.3547740327749125)"><path d="M0.64 -1.02 C0.59 1.47, -0.6 11.72, -0.58 14.42 M-0.49 1.06 C-0.13 3.76, 1.59 13.13, 1.72 15.73" stroke="#1e1e1e" stroke-width="1" fill="none"></path></g></g><mask></mask></svg>