<svg version="1.1" xmlns="http://www.w3.org/2000/svg" viewBox="0 0 1561.566382816166 911.6459495705558" width="3123.132765632332" height="1823.2918991411116">
  <!-- svg-source:excalidraw -->
  
  <defs>
    <style class="style-fonts">
      @font-face {
        font-family: "Virgil";
        src: url("https://excalidraw.com/Virgil.woff2");
      }
      @font-face {
        font-family: "Cascadia";
        src: url("https://excalidraw.com/Cascadia.woff2");
      }
    </style>
    
  </defs>
  <g stroke-linecap="round" transform="translate(363.1333292093768 10) rotate(0 384.1693392031898 441.8286485376034)"><path d="M32 0 M32 0 C282.68 1.74, 534.29 1.9, 736.34 0 M32 0 C177.33 -0.75, 321.87 -1, 736.34 0 M736.34 0 C758.1 -0.39, 769.07 12.46, 768.34 32 M736.34 0 C757.96 -1.87, 768.08 12.66, 768.34 32 M768.34 32 C769.14 275.03, 769.31 518.63, 768.34 851.66 M768.34 32 C767.17 305.47, 767.06 578.8, 768.34 851.66 M768.34 851.66 C768.61 874.91, 756.7 884.74, 736.34 883.66 M768.34 851.66 C766.47 872.47, 757.6 881.71, 736.34 883.66 M736.34 883.66 C463.19 886.58, 188.95 885.77, 32 883.66 M736.34 883.66 C540.4 884.09, 344.21 884.08, 32 883.66 M32 883.66 C11.75 881.76, 1.23 871.01, 0 851.66 M32 883.66 C12.61 882.44, 1.33 874.46, 0 851.66 M0 851.66 C-2.09 554.56, -1.99 256.6, 0 32 M0 851.66 C2.31 614.36, 2.32 376.69, 0 32 M0 32 C0.32 11.79, 9.83 -1.07, 32 0 M0 32 C0.55 12, 8.59 0.53, 32 0" stroke="#1e1e1e" stroke-width="1" fill="none"></path></g><g transform="translate(723.1106746991873 15) rotate(0 24.191993713378906 17.5)"><text x="24.191993713378906" y="0" font-family="Virgil, Segoe UI Emoji" font-size="28px" fill="#1e1e1e" text-anchor="middle" style="white-space: pre;" direction="ltr" dominant-baseline="text-before-edge">PHY</text></g><g stroke-linecap="round" transform="translate(428.50021283882234 74.32959323792329) rotate(0 133.5 42.5)"><path d="M21.25 0 M21.25 0 C94.44 1.95, 169.73 -0.32, 245.75 0 M21.25 0 C83.37 0.78, 145 -0.57, 245.75 0 M245.75 0 C259.57 1.17, 267.54 7.71, 267 21.25 M245.75 0 C261.43 -1.77, 267.12 4.9, 267 21.25 M267 21.25 C265.06 31.68, 267.44 44.49, 267 63.75 M267 21.25 C266.26 37.92, 266.62 53.56, 267 63.75 M267 63.75 C268.51 79.86, 259.46 85.42, 245.75 85 M267 63.75 C265.6 77.08, 260.61 83.51, 245.75 85 M245.75 85 C187.33 85.03, 127.21 86.32, 21.25 85 M245.75 85 C167.62 86.11, 88.64 85.6, 21.25 85 M21.25 85 C6.27 83.05, -0.88 77.85, 0 63.75 M21.25 85 C6.21 84.85, -1.17 79.11, 0 63.75 M0 63.75 C1.07 46.69, 1.18 34.4, 0 21.25 M0 63.75 C-0.44 55.81, 0.72 47.03, 0 21.25 M0 21.25 C0.47 8.26, 5.12 1.68, 21.25 0 M0 21.25 C1.58 6.66, 7.98 1.62, 21.25 0" stroke="#1e1e1e" stroke-width="1" fill="none"></path></g><g transform="translate(450.52025525825593 114.32959323792329) rotate(0 111.4799575805664 20)"><text x="111.4799575805664" y="0" font-family="Virgil, Segoe UI Emoji" font-size="16px" fill="#1e1e1e" text-anchor="middle" style="white-space: pre;" direction="ltr" dominant-baseline="text-before-edge">You have the token, try to </text><text x="111.4799575805664" y="20" font-family="Virgil, Segoe UI Emoji" font-size="16px" fill="#1e1e1e" text-anchor="middle" style="white-space: pre;" direction="ltr" dominant-baseline="text-before-edge">pass it to the next node.</text></g><g stroke-linecap="round"><g transform="translate(215.3776547635116 139.65631579563205) rotate(0 104.55923801241443 -2.9460920178871675)"><path d="M-0.88 0.93 C34.26 -0.04, 174.89 -4.1, 210 -5.14 M0.86 0.37 C35.95 -0.99, 174.61 -5.55, 209.32 -6.82" stroke="#1e1e1e" stroke-width="1" fill="none"></path></g><g transform="translate(215.3776547635116 139.65631579563205) rotate(0 104.55923801241443 -2.9460920178871675)"><path d="M183.05 5.27 C189.28 2.49, 195.5 -2.55, 211 -5.44 M180.66 3.76 C188.84 0.15, 197.47 -1.46, 209.47 -5.91" stroke="#1e1e1e" stroke-width="1" fill="none"></path></g><g transform="translate(215.3776547635116 139.65631579563205) rotate(0 104.55923801241443 -2.9460920178871675)"><path d="M182.34 -15.24 C188.84 -13.27, 195.23 -13.56, 211 -5.44 M179.95 -16.75 C188.41 -14.59, 197.24 -10.42, 209.47 -5.91" stroke="#1e1e1e" stroke-width="1" fill="none"></path></g></g><mask></mask><g stroke-linecap="round" transform="translate(422.71400807677855 326.33109301740524) rotate(0 133.5 53)"><path d="M26.5 0 M26.5 0 C70.79 1.08, 114.86 2.5, 240.5 0 M26.5 0 C92.93 0.35, 159.7 -0.72, 240.5 0 M240.5 0 C259.39 1, 267.98 8.25, 267 26.5 M240.5 0 C256.27 -2.19, 267.94 10.24, 267 26.5 M267 26.5 C266.95 48.6, 268.19 67.44, 267 79.5 M267 26.5 C267.88 40.82, 266.62 57.23, 267 79.5 M267 79.5 C266.35 97.45, 259.44 106.69, 240.5 106 M267 79.5 C265.86 97.77, 257.8 105.22, 240.5 106 M240.5 106 C189.78 106.67, 140.05 106.5, 26.5 106 M240.5 106 C194.39 105.54, 147.74 106.24, 26.5 106 M26.5 106 C8.95 104.77, 0.5 98.54, 0 79.5 M26.5 106 C8.09 106.49, 0.35 96.04, 0 79.5 M0 79.5 C1.42 64.21, 0.04 49.57, 0 26.5 M0 79.5 C0.55 58.82, 1.05 38.83, 0 26.5 M0 26.5 C-1.09 9.19, 10.8 -1.78, 26.5 0 M0 26.5 C1.79 8.25, 9.54 1.15, 26.5 0" stroke="#1e1e1e" stroke-width="1" fill="none"></path></g><g transform="translate(428.4300801592981 367.33109301740524) rotate(0 127.78392791748047 30)"><text x="127.78392791748047" y="0" font-family="Virgil, Segoe UI Emoji" font-size="16px" fill="#1e1e1e" text-anchor="middle" style="white-space: pre;" direction="ltr" dominant-baseline="text-before-edge">Token will be passed to another</text><text x="127.78392791748047" y="20" font-family="Virgil, Segoe UI Emoji" font-size="16px" fill="#1e1e1e" text-anchor="middle" style="white-space: pre;" direction="ltr" dominant-baseline="text-before-edge">phy or returned to the parent </text><text x="127.78392791748047" y="40" font-family="Virgil, Segoe UI Emoji" font-size="16px" fill="#1e1e1e" text-anchor="middle" style="white-space: pre;" direction="ltr" dominant-baseline="text-before-edge">node.</text></g><g mask="url(#mask-UshtgueexXfCsJP4hiLO6)" stroke-linecap="round"><g transform="translate(562.9942162549833 197.88214023095043) rotate(0 0.08593912999867825 58.014239843336554)"><path d="M0.95 -0.64 C0.72 18.45, 0.13 95.93, -0.36 115.46 M-0.02 1.63 C-0.4 20.81, -0.27 97.87, -0.77 116.67" stroke="#1e1e1e" stroke-width="1" fill="none"></path></g><g transform="translate(562.9942162549833 197.88214023095043) rotate(0 0.08593912999867825 58.014239843336554)"><path d="M-11.81 90.06 C-7.74 98.16, -2.11 110.32, -2.67 116.56 M-10.28 89.11 C-7.67 96.91, -3.77 106.35, -0.97 116.89" stroke="#1e1e1e" stroke-width="1" fill="none"></path></g><g transform="translate(562.9942162549833 197.88214023095043) rotate(0 0.08593912999867825 58.014239843336554)"><path d="M8.71 90.28 C4.9 98.45, 2.65 110.53, -2.67 116.56 M10.24 89.33 C6.02 97.19, 3.09 106.56, -0.97 116.89" stroke="#1e1e1e" stroke-width="1" fill="none"></path></g></g><mask id="mask-UshtgueexXfCsJP4hiLO6"><rect x="0" y="0" fill="#fff" width="664.3658388702579" height="413.9598696698249"></rect><rect x="476.1284733067214" y="230.92100495038767" fill="#000" width="172.35986328125" height="50" opacity="1"></rect></mask><g transform="translate(476.1284733067214 230.92100495038767) rotate(0 86.95168207826055 24.975375123899312)"><text x="86.179931640625" y="0" font-family="Virgil, Segoe UI Emoji" font-size="20px" fill="#1e1e1e" text-anchor="middle" style="white-space: pre;" direction="ltr" dominant-baseline="text-before-edge">No more node to </text><text x="86.179931640625" y="25" font-family="Virgil, Segoe UI Emoji" font-size="20px" fill="#1e1e1e" text-anchor="middle" style="white-space: pre;" direction="ltr" dominant-baseline="text-before-edge">detect</text></g><g stroke-linecap="round"><g transform="translate(417.9263083923479 384.10690390768013) rotate(0 -93.29123885745003 -0.30052491461924546)"><path d="M-0.68 0.81 C-31.92 0.85, -156.7 0.5, -187.75 0.18 M1.17 0.19 C-29.65 -0.08, -153.9 -1.38, -185.37 -1.41" stroke="#1e1e1e" stroke-width="1" fill="none"></path></g><g transform="translate(417.9263083923479 384.10690390768013) rotate(0 -93.29123885745003 -0.30052491461924546)"><path d="M-155.76 -12.54 C-163.2 -8.62, -173.21 -5.22, -184.38 -1.14 M-157.17 -11.92 C-165.62 -8.48, -173.37 -6.32, -185.15 -1.6" stroke="#1e1e1e" stroke-width="1" fill="none"></path></g><g transform="translate(417.9263083923479 384.10690390768013) rotate(0 -93.29123885745003 -0.30052491461924546)"><path d="M-155.89 7.98 C-163.29 6.25, -173.26 4, -184.38 -1.14 M-157.3 8.6 C-165.81 6.27, -173.52 2.67, -185.15 -1.6" stroke="#1e1e1e" stroke-width="1" fill="none"></path></g></g><mask></mask><g stroke-linecap="round"><g transform="translate(715.5403866851075 141.24714147346322) rotate(0 41.59767735126252 -3.1635677488943656)"><path d="M0.9 0.19 C14.91 -0.9, 69.42 -5.47, 83.28 -6.52 M-0.09 -0.75 C13.83 -1.7, 68.33 -4.62, 82.29 -5.31" stroke="#1e1e1e" stroke-width="1" fill="none"></path></g><g transform="translate(715.5403866851075 141.24714147346322) rotate(0 41.59767735126252 -3.1635677488943656)"><path d="M54.99 6.25 C60.08 4.63, 67.25 0.59, 83.83 -6.34 M55.54 5.95 C64.49 1.58, 72.84 -0.38, 81.93 -5.45" stroke="#1e1e1e" stroke-width="1" fill="none"></path></g><g transform="translate(715.5403866851075 141.24714147346322) rotate(0 41.59767735126252 -3.1635677488943656)"><path d="M53.92 -14.24 C59.27 -11.07, 66.69 -10.32, 83.83 -6.34 M54.47 -14.54 C63.96 -12.22, 72.66 -7.5, 81.93 -5.45" stroke="#1e1e1e" stroke-width="1" fill="none"></path></g></g><mask></mask><g stroke-linecap="round" transform="translate(822.1913032263665 561.4475464056836) rotate(0 133.5 50.5)"><path d="M25.25 0 M25.25 0 C71.89 0, 120.38 3.23, 241.75 0 M25.25 0 C101.07 1.26, 179.01 1.37, 241.75 0 M241.75 0 C256.7 -0.63, 266.9 6.44, 267 25.25 M241.75 0 C256.57 -1.58, 266.82 7.59, 267 25.25 M267 25.25 C266.58 47.33, 266.85 65.9, 267 75.75 M267 25.25 C266.48 36.43, 266.89 46.16, 267 75.75 M267 75.75 C265.89 93.83, 259.39 101.34, 241.75 101 M267 75.75 C268.08 94.73, 259.84 99.02, 241.75 101 M241.75 101 C196.19 100.24, 151.34 100.59, 25.25 101 M241.75 101 C165.92 100.47, 89.8 101.16, 25.25 101 M25.25 101 C7.35 101.24, -1 91.67, 0 75.75 M25.25 101 C6.2 102.01, 1.44 91.71, 0 75.75 M0 75.75 C0.95 62.35, -1.53 46.81, 0 25.25 M0 75.75 C-0.18 56.72, 0.88 38.41, 0 25.25 M0 25.25 C-0.93 7.25, 10.37 1.83, 25.25 0 M0 25.25 C-0.24 9.88, 7.49 0.87, 25.25 0" stroke="#1e1e1e" stroke-width="1" fill="none"></path></g><g transform="translate(880.5213737219719 599.4475464056836) rotate(0 75.16992950439453 12.5)"><text x="75.16992950439453" y="0" font-family="Virgil, Segoe UI Emoji" font-size="20px" fill="#1e1e1e" text-anchor="middle" style="white-space: pre;" direction="ltr" dominant-baseline="text-before-edge">token returned.</text></g><g stroke-linecap="round" transform="translate(431.50759392461623 558.2400419633718) rotate(0 133.5 43)"><path d="M21.5 0 M21.5 0 C103.24 0.9, 183.32 2.41, 245.5 0 M21.5 0 C102.34 0.69, 182.49 0.54, 245.5 0 M245.5 0 C261.22 1.35, 268.32 6.22, 267 21.5 M245.5 0 C259.66 -1.24, 267.04 8, 267 21.5 M267 21.5 C265.59 32.75, 266.29 46.52, 267 64.5 M267 21.5 C266.38 33.34, 265.92 47.79, 267 64.5 M267 64.5 C268.93 80.35, 260.32 86.63, 245.5 86 M267 64.5 C268.53 78.48, 261.51 84.87, 245.5 86 M245.5 86 C184.06 86.21, 122.37 86.09, 21.5 86 M245.5 86 C157.05 84.64, 67.9 85.23, 21.5 86 M21.5 86 C8.45 84.2, -0.41 77.55, 0 64.5 M21.5 86 C7.1 84.93, -0.65 79.89, 0 64.5 M0 64.5 C-0.76 48.67, -1.07 33.98, 0 21.5 M0 64.5 C1.01 53.4, 1.04 42.53, 0 21.5 M0 21.5 C-0.1 8.03, 5.18 0.56, 21.5 0 M0 21.5 C0.06 8.32, 6.48 0.05, 21.5 0" stroke="#1e1e1e" stroke-width="1" fill="none"></path></g><g transform="translate(445.7036617346748 599.2400419633718) rotate(0 119.3039321899414 20)"><text x="119.3039321899414" y="0" font-family="Virgil, Segoe UI Emoji" font-size="16px" fill="#1e1e1e" text-anchor="middle" style="white-space: pre;" direction="ltr" dominant-baseline="text-before-edge">Token will be passed back to </text><text x="119.3039321899414" y="20" font-family="Virgil, Segoe UI Emoji" font-size="16px" fill="#1e1e1e" text-anchor="middle" style="white-space: pre;" direction="ltr" dominant-baseline="text-before-edge">your phy trough Run_topo.</text></g><g mask="url(#mask-amVA3DoTgWHz9gJzB3m4B)" stroke-linecap="round"><g transform="translate(812.4258118788721 550.5523720038836) rotate(0 -54.50141808897615 -58.1936530682658)"><path d="M-0.53 0.99 C-18.98 -18.45, -91.33 -97.8, -109.67 -117.38 M1.4 0.47 C-17.27 -18.81, -91.57 -97.16, -110.4 -116.46" stroke="#1e1e1e" stroke-width="1" fill="none"></path></g><g transform="translate(812.4258118788721 550.5523720038836) rotate(0 -54.50141808897615 -58.1936530682658)"><path d="M-81.82 -102.53 C-95.77 -109.29, -104.69 -111.63, -108.98 -115.64 M-83.49 -103.84 C-90.94 -106.87, -99.01 -111.78, -110.26 -116.53" stroke="#1e1e1e" stroke-width="1" fill="none"></path></g><g transform="translate(812.4258118788721 550.5523720038836) rotate(0 -54.50141808897615 -58.1936530682658)"><path d="M-96.62 -88.32 C-104.75 -100.52, -107.94 -108.36, -108.98 -115.64 M-98.3 -89.62 C-101.34 -96.83, -105.04 -105.93, -110.26 -116.53" stroke="#1e1e1e" stroke-width="1" fill="none"></path></g></g><mask id="mask-amVA3DoTgWHz9gJzB3m4B"><rect x="0" y="0" fill="#fff" width="1022.5191994435236" height="766.765360793157"></rect><rect x="671.1991864559213" y="467.44587760924696" fill="#000" width="172.35986328125" height="50" opacity="1"></rect></mask><g transform="translate(671.1991864559213 467.4458776092474) rotate(0 86.7252073339746 24.91284132637088)"><text x="86.179931640625" y="0" font-family="Virgil, Segoe UI Emoji" font-size="20px" fill="#1e1e1e" text-anchor="middle" style="white-space: pre;" direction="ltr" dominant-baseline="text-before-edge">No more node to </text><text x="86.179931640625" y="25" font-family="Virgil, Segoe UI Emoji" font-size="20px" fill="#1e1e1e" text-anchor="middle" style="white-space: pre;" direction="ltr" dominant-baseline="text-before-edge">detect</text></g><g stroke-linecap="round"><g transform="translate(813.4485680869466 617.850508044186) rotate(0 -54.09963187700487 -2.8882537592794506)"><path d="M-0.69 -0.25 C-18.71 -0.89, -90.72 -3.33, -109.02 -4.02 M1.15 -1.43 C-16.84 -2.36, -90.58 -4.71, -109.35 -5.52" stroke="#1e1e1e" stroke-width="1" fill="none"></path></g><g transform="translate(813.4485680869466 617.850508044186) rotate(0 -54.09963187700487 -2.8882537592794506)"><path d="M-81.22 -12.75 C-85.23 -13.34, -92.25 -11.4, -107.45 -6.27 M-81.01 -15.13 C-91.62 -10.59, -102.7 -8.19, -109.42 -5.82" stroke="#1e1e1e" stroke-width="1" fill="none"></path></g><g transform="translate(813.4485680869466 617.850508044186) rotate(0 -54.09963187700487 -2.8882537592794506)"><path d="M-81.98 7.75 C-85.79 2.59, -92.64 -0.06, -107.45 -6.27 M-81.78 5.37 C-92.27 2.34, -103.08 -2.84, -109.42 -5.82" stroke="#1e1e1e" stroke-width="1" fill="none"></path></g></g><mask></mask><g stroke-linecap="round"><g transform="translate(422.202469349083 602.9326771168244) rotate(0 -99.48587340096037 0.8020562356070968)"><path d="M-0.64 0.24 C-33.94 0.59, -166.48 0.87, -199.54 1.34 M1.22 -0.68 C-32.21 -0.15, -166.8 1.99, -200.19 2.29" stroke="#1e1e1e" stroke-width="1" fill="none"></path></g><g transform="translate(422.202469349083 602.9326771168244) rotate(0 -99.48587340096037 0.8020562356070968)"><path d="M-171.74 -7.42 C-183.09 -3.2, -189.14 0.3, -199.34 3.59 M-172.23 -8.21 C-181.95 -5.64, -191.97 -0.34, -199.68 2.52" stroke="#1e1e1e" stroke-width="1" fill="none"></path></g><g transform="translate(422.202469349083 602.9326771168244) rotate(0 -99.48587340096037 0.8020562356070968)"><path d="M-171.48 13.1 C-182.77 10.74, -188.91 7.66, -199.34 3.59 M-171.96 12.31 C-181.91 7.35, -192.03 5.13, -199.68 2.52" stroke="#1e1e1e" stroke-width="1" fill="none"></path></g></g><mask></mask><g stroke-linecap="round" transform="translate(830.842560694341 733.5687182173369) rotate(0 133.5 50.5)"><path d="M25.25 0 M25.25 0 C71.56 0.14, 118.57 0.26, 241.75 0 M25.25 0 C84.29 -1.67, 145.77 -2.02, 241.75 0 M241.75 0 C260.5 -0.25, 265.48 9.11, 267 25.25 M241.75 0 C259.46 -1.99, 267.14 6.97, 267 25.25 M267 25.25 C268.22 44.56, 268.09 65.8, 267 75.75 M267 25.25 C267.48 41.53, 267.91 57.71, 267 75.75 M267 75.75 C268.86 92.53, 258.37 102.13, 241.75 101 M267 75.75 C269.1 94.46, 258.07 99.81, 241.75 101 M241.75 101 C188.69 101.98, 130.77 100.06, 25.25 101 M241.75 101 C161.15 99.2, 79.9 99.98, 25.25 101 M25.25 101 C8.17 102.5, -1.17 91.37, 0 75.75 M25.25 101 C8.29 100.72, -1.24 92.55, 0 75.75 M0 75.75 C-1.29 58.18, -0.18 42.2, 0 25.25 M0 75.75 C-1.08 65.33, -1.26 54.04, 0 25.25 M0 25.25 C0.2 6.98, 7.36 -1.19, 25.25 0 M0 25.25 C1.25 10.38, 9.86 1.91, 25.25 0" stroke="#1e1e1e" stroke-width="1" fill="none"></path></g><g transform="translate(891.562630579595 771.5687182173369) rotate(0 72.7799301147461 12.5)"><text x="72.7799301147461" y="0" font-family="Virgil, Segoe UI Emoji" font-size="20px" fill="#1e1e1e" text-anchor="middle" style="white-space: pre;" direction="ltr" dominant-baseline="text-before-edge">token received.</text></g><g stroke-linecap="round" transform="translate(439.2587205577729 728.5896812837263) rotate(0 133.5 55)"><path d="M27.5 0 M27.5 0 C81.35 0.09, 133.67 -1.29, 239.5 0 M27.5 0 C100.46 -1.21, 172.42 -0.59, 239.5 0 M239.5 0 C258.45 -0.83, 268.36 8.33, 267 27.5 M239.5 0 C256.28 0.21, 266.36 8.67, 267 27.5 M267 27.5 C268.65 48.22, 268.37 71.79, 267 82.5 M267 27.5 C267.95 39.27, 267.66 51.96, 267 82.5 M267 82.5 C265.05 100.09, 258.39 109.7, 239.5 110 M267 82.5 C267.9 100.04, 258.93 110.69, 239.5 110 M239.5 110 C164.5 111.13, 91.2 108.96, 27.5 110 M239.5 110 C187.4 108.27, 135.81 108.3, 27.5 110 M27.5 110 C9.12 110.02, 1.01 100.02, 0 82.5 M27.5 110 C9.31 110.74, 1.15 101.83, 0 82.5 M0 82.5 C0.23 62.96, -2.25 39.6, 0 27.5 M0 82.5 C0.78 69.62, 0.64 55.37, 0 27.5 M0 27.5 C-1.17 7.33, 9.69 -0.25, 27.5 0 M0 27.5 C2.13 7.61, 9.41 0.16, 27.5 0" stroke="#1e1e1e" stroke-width="1" fill="none"></path></g><g transform="translate(446.2627946544526 773.5896812837263) rotate(0 126.49592590332031 30)"><text x="126.49592590332031" y="0" font-family="Virgil, Segoe UI Emoji" font-size="16px" fill="#1e1e1e" text-anchor="middle" style="white-space: pre;" direction="ltr" dominant-baseline="text-before-edge">We just get the token, it will </text><text x="126.49592590332031" y="20" font-family="Virgil, Segoe UI Emoji" font-size="16px" fill="#1e1e1e" text-anchor="middle" style="white-space: pre;" direction="ltr" dominant-baseline="text-before-edge">be passed to the next phy then</text><text x="126.49592590332031" y="40" font-family="Virgil, Segoe UI Emoji" font-size="16px" fill="#1e1e1e" text-anchor="middle" style="white-space: pre;" direction="ltr" dominant-baseline="text-before-edge">yours.</text></g><g stroke-linecap="round"><g transform="translate(820.6947582815001 787.7954919505137) rotate(0 -50.1806326965534 -0.2775707618106935)"><path d="M0.26 1 C-16.33 0.56, -82.98 -1.05, -99.48 -1.56 M-1.06 0.49 C-17.85 0.73, -84.24 0.03, -100.63 -0.26" stroke="#1e1e1e" stroke-width="1" fill="none"></path></g><g transform="translate(820.6947582815001 787.7954919505137) rotate(0 -50.1806326965534 -0.2775707618106935)"><path d="M-70.63 -10.76 C-81.64 -6.52, -91.17 -5.86, -100.28 -1.69 M-72.86 -10.23 C-80.38 -7.19, -87.65 -3.79, -99.85 0.27" stroke="#1e1e1e" stroke-width="1" fill="none"></path></g><g transform="translate(820.6947582815001 787.7954919505137) rotate(0 -50.1806326965534 -0.2775707618106935)"><path d="M-70.9 9.76 C-82.01 7.72, -91.46 2.09, -100.28 -1.69 M-73.13 10.29 C-80.51 7.75, -87.71 5.57, -99.85 0.27" stroke="#1e1e1e" stroke-width="1" fill="none"></path></g></g><mask></mask><g stroke-linecap="round"><g transform="translate(428.47236379202695 787.4435363510356) rotate(0 -102.7758568633717 -0.19728624824165308)"><path d="M-0.09 -0.95 C-34.41 -1.23, -170.59 -1.56, -204.95 -1.56 M-1.59 1.16 C-36.08 1.07, -171.19 0.58, -205.46 -0.12" stroke="#1e1e1e" stroke-width="1" fill="none"></path></g><g transform="translate(428.47236379202695 787.4435363510356) rotate(0 -102.7758568633717 -0.19728624824165308)"><path d="M-178.75 -8.69 C-188.2 -7.09, -197.88 -0.59, -205.53 0.81 M-176.48 -11.02 C-183.12 -6.83, -190.52 -5.75, -206.12 -0.35" stroke="#1e1e1e" stroke-width="1" fill="none"></path></g><g transform="translate(428.47236379202695 787.4435363510356) rotate(0 -102.7758568633717 -0.19728624824165308)"><path d="M-178.97 11.83 C-188.36 5.63, -197.96 4.34, -205.53 0.81 M-176.7 9.5 C-183.26 8.8, -190.61 4.99, -206.12 -0.35" stroke="#1e1e1e" stroke-width="1" fill="none"></path></g></g><mask></mask><g stroke-linecap="round" transform="translate(10 98.91143768918027) rotate(0 100.0953181743439 391.11454115431343)"><path d="M32 0 M32 0 C76.48 -0.44, 119.46 0.51, 168.19 0 M32 0 C71.94 -0.77, 112.13 0.2, 168.19 0 M168.19 0 C188.1 -0.8, 200.43 11.82, 200.19 32 M168.19 0 C187.5 0.93, 198.7 12.56, 200.19 32 M200.19 32 C202.23 291.16, 201.71 551.21, 200.19 750.23 M200.19 32 C199.67 247.07, 199.72 461.54, 200.19 750.23 M200.19 750.23 C198.22 770.4, 191.15 782.55, 168.19 782.23 M200.19 750.23 C200.51 772.16, 191.27 782.19, 168.19 782.23 M168.19 782.23 C122.45 783.51, 75.25 781.2, 32 782.23 M168.19 782.23 C115.24 783.22, 63.32 782.22, 32 782.23 M32 782.23 C10.75 780.91, 0.41 770.32, 0 750.23 M32 782.23 C11.89 780.13, 1.37 770.77, 0 750.23 M0 750.23 C-2.11 514.34, -2.58 279.24, 0 32 M0 750.23 C1.69 566.02, 2.15 381, 0 32 M0 32 C1.08 11.21, 10.04 0.57, 32 0 M0 32 C-0.14 9.62, 12.45 -0.97, 32 0" stroke="#1e1e1e" stroke-width="1" fill="none"></path></g><g transform="translate(32.92735705373798 472.5259788434937) rotate(0 77.16796112060547 17.5)"><text x="77.16796112060547" y="0" font-family="Virgil, Segoe UI Emoji" font-size="28px" fill="#1e1e1e" text-anchor="middle" style="white-space: pre;" direction="ltr" dominant-baseline="text-before-edge">Luos engine</text></g><g stroke-linecap="round" transform="translate(809.554851122195 78.77738986889335) rotate(0 133.5 50.5)"><path d="M25.25 0 M25.25 0 C91.83 -1.64, 154.39 -2.69, 241.75 0 M25.25 0 C79.24 1.61, 133.26 0.92, 241.75 0 M241.75 0 C260.24 -0.06, 268.65 10.24, 267 25.25 M241.75 0 C257.21 -1.33, 266.83 10.27, 267 25.25 M267 25.25 C267.63 44.04, 267.81 62.34, 267 75.75 M267 25.25 C266.49 36.33, 267.45 49.63, 267 75.75 M267 75.75 C268.65 91.39, 259.25 99.21, 241.75 101 M267 75.75 C269.03 93.53, 256.96 101.9, 241.75 101 M241.75 101 C163.83 100.09, 84.15 100.89, 25.25 101 M241.75 101 C163.77 98.78, 87.13 99.36, 25.25 101 M25.25 101 C9.3 100.93, 0.45 91.53, 0 75.75 M25.25 101 C6.2 101.38, 0.59 90.97, 0 75.75 M0 75.75 C0.39 62.83, 1.71 47.77, 0 25.25 M0 75.75 C1.12 60.43, -0.35 44.98, 0 25.25 M0 25.25 C1.27 7.22, 7.27 0.3, 25.25 0 M0 25.25 C-0.47 9.99, 7.89 -0.35, 25.25 0" stroke="#1e1e1e" stroke-width="1" fill="none"></path></g><g transform="translate(875.4949145987575 116.77738986889335) rotate(0 67.5599365234375 12.5)"><text x="67.5599365234375" y="0" font-family="Virgil, Segoe UI Emoji" font-size="20px" fill="#1e1e1e" text-anchor="middle" style="white-space: pre;" direction="ltr" dominant-baseline="text-before-edge">token passed.</text></g><g stroke-linecap="round" transform="translate(1313.9622278946854 25.965354874771947) rotate(0 118.80207746074029 108.10074865059164)"><path d="M32 0 M32 0 C94.3 2.09, 153.83 1.39, 205.6 0 M32 0 C98.97 1.09, 166.08 1.12, 205.6 0 M205.6 0 C228.37 0.25, 235.84 10.11, 237.6 32 M205.6 0 C226.73 1.47, 239.51 9.53, 237.6 32 M237.6 32 C236.72 82.01, 236.22 129.39, 237.6 184.2 M237.6 32 C236.3 84.63, 237.26 135.34, 237.6 184.2 M237.6 184.2 C238.72 206.16, 225.44 217.57, 205.6 216.2 M237.6 184.2 C236.76 203.83, 228.11 217.65, 205.6 216.2 M205.6 216.2 C163 217.82, 121.36 215.67, 32 216.2 M205.6 216.2 C170.38 216.24, 136.97 215.93, 32 216.2 M32 216.2 C10.13 215.74, -1.55 205.18, 0 184.2 M32 216.2 C11.49 216.19, 0.9 205.36, 0 184.2 M0 184.2 C0.63 128.21, 0.5 77.29, 0 32 M0 184.2 C0.97 136.2, -0.32 89.28, 0 32 M0 32 C-1.45 9.66, 9.66 1.23, 32 0 M0 32 C0.97 10.24, 11.08 -0.25, 32 0" stroke="#1e1e1e" stroke-width="1" fill="none"></path></g><g transform="translate(1365.2003405116757 116.56610352536336) rotate(0 67.56396484375 17.5)"><text x="67.56396484375" y="0" font-family="Virgil, Segoe UI Emoji" font-size="28px" fill="#1e1e1e" text-anchor="middle" style="white-space: pre;" direction="ltr" dominant-baseline="text-before-edge">Child node</text></g><g stroke-linecap="round" transform="translate(1287.8332994263546 685.444452269372) rotate(0 118.80207746074029 108.10074865059187)"><path d="M32 0 M32 0 C72.8 1.51, 108.67 -1.55, 205.6 0 M32 0 C78.98 -0.5, 126.61 -0.98, 205.6 0 M205.6 0 C227.33 1.87, 239.37 12.35, 237.6 32 M205.6 0 C226.21 -0.52, 239.08 9.18, 237.6 32 M237.6 32 C237.67 86.37, 239.5 137.77, 237.6 184.2 M237.6 32 C236.17 90.94, 237.12 148.7, 237.6 184.2 M237.6 184.2 C238.12 203.54, 228.72 215.34, 205.6 216.2 M237.6 184.2 C237.4 207.46, 224.99 214.28, 205.6 216.2 M205.6 216.2 C147.13 216.26, 87.16 217.43, 32 216.2 M205.6 216.2 C163.06 215.29, 120.39 216.24, 32 216.2 M32 216.2 C11.03 214.89, 1.1 205.79, 0 184.2 M32 216.2 C8.68 215.96, -0.1 205.19, 0 184.2 M0 184.2 C0.58 153.16, 2.56 119.16, 0 32 M0 184.2 C-0.11 131.89, 0.68 78.74, 0 32 M0 32 C-0.08 11.97, 11.16 0.37, 32 0 M0 32 C-0.91 9.87, 9.83 0.42, 32 0" stroke="#1e1e1e" stroke-width="1" fill="none"></path></g><g transform="translate(1322.9994134471535 776.0452009199635) rotate(0 83.6359634399414 17.5)"><text x="83.6359634399414" y="0" font-family="Virgil, Segoe UI Emoji" font-size="28px" fill="#1e1e1e" text-anchor="middle" style="white-space: pre;" direction="ltr" dominant-baseline="text-before-edge">Parent node</text></g><g stroke-linecap="round"><g transform="translate(1090.2261825032747 133.36702174379616) rotate(0 105.11691747292389 -0.6479764974828868)"><path d="M0.99 -0.77 C35.7 -1.09, 173.08 -2.52, 207.78 -2.73 M0.05 1.43 C35.2 1.34, 175.39 -1.19, 210.18 -1.55" stroke="#e03131" stroke-width="1" fill="none"></path></g><g transform="translate(1090.2261825032747 133.36702174379616) rotate(0 105.11691747292389 -0.6479764974828868)"><path d="M180.86 8.14 C188.43 7.45, 196.91 2.73, 211.96 -1.1 M181.44 9.95 C193.55 5.23, 203.78 0.67, 209.4 -0.66" stroke="#e03131" stroke-width="1" fill="none"></path></g><g transform="translate(1090.2261825032747 133.36702174379616) rotate(0 105.11691747292389 -0.6479764974828868)"><path d="M180.56 -12.38 C188.06 -7.7, 196.63 -7.06, 211.96 -1.1 M181.14 -10.57 C193.55 -7.44, 203.89 -4.16, 209.4 -0.66" stroke="#e03131" stroke-width="1" fill="none"></path></g></g><mask></mask><g stroke-linecap="round"><g transform="translate(1300.9425765952356 229.41010342683876) rotate(0 -100.10836649965267 194.14716018119543)"><path d="M0.24 1.17 C-33.05 65.65, -166.31 323.22, -199.5 387.56 M-1.1 0.74 C-34.57 64.85, -167.41 321.93, -200.45 386.01" stroke="#e03131" stroke-width="1" fill="none"></path></g><g transform="translate(1300.9425765952356 229.41010342683876) rotate(0 -100.10836649965267 194.14716018119543)"><path d="M-194.69 356.24 C-195.86 366.75, -197.69 375.61, -201.6 387.79 M-196.45 355.31 C-197.19 363.45, -197.58 371.51, -200.97 386.71" stroke="#e03131" stroke-width="1" fill="none"></path></g><g transform="translate(1300.9425765952356 229.41010342683876) rotate(0 -100.10836649965267 194.14716018119543)"><path d="M-176.46 365.65 C-183.51 373.19, -191.17 379.04, -201.6 387.79 M-178.22 364.73 C-183.63 370.58, -188.62 376.27, -200.97 386.71" stroke="#e03131" stroke-width="1" fill="none"></path></g></g><mask></mask><g stroke-linecap="round"><g transform="translate(1269.7587490909555 780.5733500842107) rotate(0 -79.07480425409994 3.9234128420043817)"><path d="M-0.73 -0.58 C-26.98 0.69, -132.18 5.9, -158.58 7.23 M1.09 1.72 C-25.17 3.18, -132.41 7.31, -159.24 8.43" stroke="#e03131" stroke-width="1" fill="none"></path></g><g transform="translate(1269.7587490909555 780.5733500842107) rotate(0 -79.07480425409994 3.9234128420043817)"><path d="M-132.46 -2.05 C-138.4 -0.72, -143.91 3.6, -160.14 7.07 M-132.28 -2.35 C-139.42 1.38, -149.21 4.63, -160.2 8.79" stroke="#e03131" stroke-width="1" fill="none"></path></g><g transform="translate(1269.7587490909555 780.5733500842107) rotate(0 -79.07480425409994 3.9234128420043817)"><path d="M-131.63 18.46 C-137.68 15.49, -143.37 15.52, -160.14 7.07 M-131.45 18.16 C-139.02 15.62, -149.07 12.6, -160.2 8.79" stroke="#e03131" stroke-width="1" fill="none"></path></g></g><mask></mask><g transform="translate(468.6706171227097 734.9443082203779) rotate(0 100.27989196777344 12.5)"><text x="100.27989196777344" y="0" font-family="Virgil, Segoe UI Emoji" font-size="20px" fill="#1e1e1e" text-anchor="middle" style="white-space: pre;" direction="ltr" dominant-baseline="text-before-edge">Phy_Topologysource:</text></g><g transform="translate(468.1158484305761 565.3521561934767) rotate(0 92.01990509033203 12.5)"><text x="92.01990509033203" y="0" font-family="Virgil, Segoe UI Emoji" font-size="20px" fill="#1e1e1e" text-anchor="middle" style="white-space: pre;" direction="ltr" dominant-baseline="text-before-edge">Phy_TopologyNext:</text></g><g transform="translate(460.3448375638245 331.0648415483465) rotate(0 92.31990814208984 12.5)"><text x="92.31990814208984" y="0" font-family="Virgil, Segoe UI Emoji" font-size="20px" fill="#1e1e1e" text-anchor="middle" style="white-space: pre;" direction="ltr" dominant-baseline="text-before-edge">Phy_TopologyDone:</text></g><g transform="translate(460.2755471864348 81.12575181712509) rotate(0 98.05992889404297 12.5)"><text x="98.05992889404297" y="0" font-family="Virgil, Segoe UI Emoji" font-size="20px" fill="#1e1e1e" text-anchor="middle" style="white-space: pre;" direction="ltr" dominant-baseline="text-before-edge">Run_topo callback :</text></g></svg>